<?xml version="1.0" encoding="UTF-8" standalone="no"?>
<svg
   xmlns:dc="http://purl.org/dc/elements/1.1/"
   xmlns:cc="http://creativecommons.org/ns#"
   xmlns:rdf="http://www.w3.org/1999/02/22-rdf-syntax-ns#"
   xmlns:svg="http://www.w3.org/2000/svg"
   xmlns="http://www.w3.org/2000/svg"
   xmlns:sodipodi="http://sodipodi.sourceforge.net/DTD/sodipodi-0.dtd"
   xmlns:inkscape="http://www.inkscape.org/namespaces/inkscape"
   version="1.0"
   width="256"
   height="190.75"
   viewBox="0 0 204.8 152.6"
   preserveAspectRatio="xMidYMid meet"
   id="svg2"
   inkscape:version="0.48.5 r10040"
   sodipodi:docname="aoc-svg.svg">
  <defs
     id="defs208" />
  <sodipodi:namedview
     pagecolor="#ffffff"
     bordercolor="#666666"
     borderopacity="1"
     objecttolerance="10"
     gridtolerance="10"
     guidetolerance="10"
     inkscape:pageopacity="0"
     inkscape:pageshadow="2"
     inkscape:window-width="1920"
     inkscape:window-height="1005"
     id="namedview206"
     showgrid="false"
     inkscape:zoom="2.7330223"
     inkscape:cx="125"
     inkscape:cy="81.875"
     inkscape:window-x="-9"
     inkscape:window-y="-9"
     inkscape:window-maximized="1"
     inkscape:current-layer="g6" />
  <metadata
     id="metadata4">
Created by potrace 1.10, written by Peter Selinger 2001-2011
<rdf:RDF>
  <cc:Work
     rdf:about="">
    <dc:format>image/svg+xml</dc:format>
    <dc:type
       rdf:resource="http://purl.org/dc/dcmitype/StillImage" />
  </cc:Work>
</rdf:RDF>
</metadata>
  <g
     transform="matrix(0.1,0,0,-0.1,0,152.6)"
     id="g6"
     style="fill:#000000;stroke:none">
    <path
       d="m 255,1231 c -12,-5 29,-8 95,-8 90,0 104,2 65,8 -65,10 -135,10 -160,0 z"
       id="path10"
       inkscape:connector-curvature="0" />
    <path
       d="m 525,1219 c -22,-3 30,-7 115,-9 85,-1 227,-3 315,-5 523,-8 701,-7 728,6 24,11 30,11 37,-1 5,-8 12,-12 15,-8 4,3 22,0 40,-8 49,-20 55,-17 17,8 -37,23 -36,23 -277,13 -82,-3 -330,-2 -550,2 -220,4 -418,5 -440,2 z"
       id="path12"
       inkscape:connector-curvature="0" />
    <path
       d="m 234,1191 c -86,-7 -120,-28 -134,-80 -7,-27 -7,-156 0,-427 12,-422 21,-544 45,-580 37,-57 -6,-54 872,-61 l 808,-5 32,29 c 19,18 34,43 37,64 7,49 56,823 56,891 0,69 -13,99 -50,122 -26,15 -88,18 -532,26 -277,5 -573,12 -658,15 -321,11 -407,12 -476,6 z m -10,-33 c -3,-4 12,-8 33,-8 32,-1 35,-2 20,-11 -11,-6 -32,-9 -48,-7 -20,3 -29,0 -29,-9 0,-16 -22,-17 -38,-1 -9,9 -6,16 13,28 27,17 58,23 49,8 z m 233,6 c -3,-3 -12,-4 -19,-1 -8,3 -5,6 6,6 11,1 17,-2 13,-5 z m -127,-23 c 8,-6 18,-7 22,-5 10,6 889,5 1243,-1 164,-3 239,-8 237,-15 -2,-10 -12,-175 -27,-460 -2,-52 -7,-167 -10,-255 -4,-88 -9,-169 -11,-180 -4,-16 -3,-17 4,-5 10,15 17,122 28,405 15,398 26,489 54,445 8,-13 10,-13 10,1 0,9 -9,19 -21,22 -27,7 -20,30 10,32 42,3 59,-39 53,-130 -2,-44 -5,-106 -6,-137 0,-32 -3,-58 -6,-58 -3,0 -5,-44 -6,-98 -1,-90 -6,-176 -20,-327 -3,-33 -7,-85 -9,-115 -10,-146 -12,-153 -40,-178 l -28,-23 -551,6 c -303,3 -602,7 -663,7 -62,1 -113,6 -113,10 0,5 -5,6 -12,2 -6,-4 -63,-9 -126,-10 -85,-3 -121,0 -142,11 -33,17 -51,63 -56,139 -1,28 -3,51 -4,51 -9,0 -24,820 -15,835 5,8 11,5 21,-8 9,-13 21,-18 37,-15 25,5 25,5 26,-89 2,-179 23,-783 27,-787 7,-8 4,309 -6,514 -5,110 -10,243 -11,295 l -2,95 54,11 c 31,6 48,13 39,16 -8,4 -10,7 -5,7 6,0 17,-3 25,-8 z"
       id="path14"
       inkscape:connector-curvature="0" />
    <path
       d="m 820,1113 c 78,-7 460,-7 460,0 0,4 -111,6 -247,5 -137,-1 -232,-3 -213,-5 z"
       id="path16"
       inkscape:connector-curvature="0" />
    <path
       d="m 1314,1108 c -3,-5 75,-9 173,-10 98,-1 211,-2 251,-3 39,-1 72,1 72,6 0,4 -80,8 -177,9 -98,1 -209,2 -246,3 -38,2 -71,-1 -73,-5 z"
       id="path18"
       inkscape:connector-curvature="0" />
    <path
       d="m 147,875 c 3,-116 7,-212 9,-214 8,-8 3,344 -5,384 -5,23 -7,-48 -4,-170 z"
       id="path20"
       inkscape:connector-curvature="0" />
    <path
       d="m 373,1073 c 9,-2 23,-2 30,0 6,3 -1,5 -18,5 -16,0 -22,-2 -12,-5 z"
       id="path22"
       inkscape:connector-curvature="0" />
    <path
       d="m 433,1073 c 9,-2 23,-2 30,0 6,3 -1,5 -18,5 -16,0 -22,-2 -12,-5 z"
       id="path24"
       inkscape:connector-curvature="0" />
    <path
       d="m 538,1073 c 34,-2 90,-2 125,0 34,2 6,3 -63,3 -69,0 -97,-1 -62,-3 z"
       id="path26"
       inkscape:connector-curvature="0" />
    <path
       d="m 747,1049 c 6,-21 -12,-27 -20,-6 -3,7 -6,5 -6,-5 -1,-24 26,-23 38,1 8,14 7,20 -3,24 -10,4 -12,0 -9,-14 z"
       id="path28"
       inkscape:connector-curvature="0" />
    <path
       d="m 454,1045 c -4,-8 -10,-12 -15,-9 -5,3 -9,0 -9,-5 0,-19 28,-12 33,9 6,23 -1,27 -9,5 z"
       id="path30"
       inkscape:connector-curvature="0" />
    <path
       d="m 1301,1033 c -1,-17 16,-25 25,-12 4,7 3,9 -4,5 -5,-3 -13,0 -15,6 -4,9 -6,10 -6,1 z"
       id="path32"
       inkscape:connector-curvature="0" />
    <path
       d="m 1590,1025 c 0,-8 4,-15 10,-15 5,0 7,7 4,15 -4,8 -8,15 -10,15 -2,0 -4,-7 -4,-15 z"
       id="path34"
       inkscape:connector-curvature="0" />
    <path
       d="m 1883,975 c 0,-38 2,-53 4,-32 2,20 2,52 0,70 -2,17 -4,1 -4,-38 z"
       id="path36"
       inkscape:connector-curvature="0" />
    <path
       d="m 1016,1018 c 3,-5 10,-6 15,-3 13,9 11,12 -6,12 -8,0 -12,-4 -9,-9 z"
       id="path38"
       inkscape:connector-curvature="0" />
    <path
       d="m 1863,930 c 0,-47 2,-66 4,-42 2,23 2,61 0,85 -2,23 -4,4 -4,-43 z"
       id="path40"
       inkscape:connector-curvature="0" />
    <path
       d="m 1492,948 c -16,-16 -16,-112 -1,-102 6,3 9,19 6,34 -9,43 2,68 32,73 l 26,4 -25,2 c -15,0 -31,-4 -38,-11 z"
       id="path42"
       inkscape:connector-curvature="0" />
    <path
       d="m 1623,953 c 9,-2 23,-2 30,0 6,3 -1,5 -18,5 -16,0 -22,-2 -12,-5 z"
       id="path44"
       inkscape:connector-curvature="0" />
    <path
       d="m 1563,910 c 0,-25 2,-35 4,-22 2,12 2,32 0,45 -2,12 -4,2 -4,-23 z"
       id="path46"
       inkscape:connector-curvature="0" />
    <path
       d="m 1590,895 c 0,-32 2,-56 4,-54 8,7 10,98 3,105 -4,4 -7,-19 -7,-51 z"
       id="path48"
       inkscape:connector-curvature="0" />
    <path
       d="m 1660,916 c 0,-14 4,-27 8,-30 5,-3 9,8 9,24 0,17 -4,30 -9,30 -4,0 -8,-11 -8,-24 z"
       id="path50"
       inkscape:connector-curvature="0" />
    <path
       d="m 462,658 3,-273 373,-3 372,-2 0,275 0,275 -375,0 -375,0 2,-272 z m 716,247 c 10,-4 13,-53 11,-230 -1,-124 1,-229 5,-232 3,-4 6,-17 6,-30 l 0,-23 -362,2 -363,3 3,229 c 2,126 6,234 9,239 4,6 1,7 -6,2 -9,-5 -12,0 -9,16 2,20 10,25 48,29 54,6 640,1 658,-5 z"
       id="path52"
       inkscape:connector-curvature="0" />
    <path
       d="m 1287,924 c -4,-4 -7,-16 -7,-26 0,-14 6,-19 23,-16 14,2 22,10 22,23 0,20 -25,32 -38,19 z"
       id="path54"
       inkscape:connector-curvature="0" />
    <path
       d="m 1403,923 c -15,-5 -17,-39 -4,-47 17,-11 42,6 39,27 -3,22 -15,29 -35,20 z"
       id="path56"
       inkscape:connector-curvature="0" />
    <path
       d="m 1513,913 c -10,-3 -10,-10 -2,-25 6,-11 8,-26 5,-35 -4,-9 -1,-13 6,-11 7,3 13,13 13,24 0,10 4,22 9,25 5,4 5,12 2,18 -8,12 -13,12 -33,4 z"
       id="path58"
       inkscape:connector-curvature="0" />
    <path
       d="m 1615,910 c -3,-5 -2,-18 3,-27 5,-10 7,-24 5,-30 -3,-7 0,-13 6,-13 6,0 12,3 12,8 9,57 8,72 -6,72 -7,0 -17,-4 -20,-10 z"
       id="path60"
       inkscape:connector-curvature="0" />
    <path
       d="m 1732,906 c 7,-8 15,-12 17,-11 5,6 -10,25 -20,25 -5,0 -4,-6 3,-14 z"
       id="path62"
       inkscape:connector-curvature="0" />
    <path
       d="m 320,899 c 0,-5 -4,-7 -10,-4 -5,3 -10,1 -10,-4 0,-17 27,-13 34,4 3,8 1,15 -4,15 -6,0 -10,-5 -10,-11 z"
       id="path64"
       inkscape:connector-curvature="0" />
    <path
       d="m 1710,885 c 0,-8 4,-15 8,-15 5,0 9,7 9,15 0,8 -4,15 -9,15 -4,0 -8,-7 -8,-15 z"
       id="path66"
       inkscape:connector-curvature="0" />
    <path
       d="m 171,874 c 0,-11 3,-14 6,-6 3,7 2,16 -1,19 -3,4 -6,-2 -5,-13 z"
       id="path68"
       inkscape:connector-curvature="0" />
    <path
       d="m 1882,860 c 0,-19 2,-27 5,-17 2,9 2,25 0,35 -3,9 -5,1 -5,-18 z"
       id="path70"
       inkscape:connector-curvature="0" />
    <path
       d="m 1293,863 c -7,-3 -13,-14 -13,-25 0,-14 6,-19 22,-16 13,2 24,10 26,19 3,18 -15,29 -35,22 z"
       id="path72"
       inkscape:connector-curvature="0" />
    <path
       d="m 1555,850 c -3,-5 -1,-10 4,-10 6,0 11,5 11,10 0,6 -2,10 -4,10 -3,0 -8,-4 -11,-10 z"
       id="path74"
       inkscape:connector-curvature="0" />
    <path
       d="m 1660,849 c 0,-5 5,-7 10,-4 6,3 10,8 10,11 0,2 -4,4 -10,4 -5,0 -10,-5 -10,-11 z"
       id="path76"
       inkscape:connector-curvature="0" />
    <path
       d="m 174,765 c 0,-49 1,-71 3,-48 2,23 2,64 0,90 -2,26 -3,8 -3,-42 z"
       id="path78"
       inkscape:connector-curvature="0" />
    <path
       d="m 1355,820 c -21,-40 -19,-57 8,-84 l 23,-23 -23,-27 c -27,-31 -30,-78 -7,-100 68,-69 169,35 102,105 l -24,24 23,22 23,22 1,-32 c 1,-24 3,-19 9,18 6,44 4,52 -18,77 -19,21 -34,28 -63,28 -32,0 -41,-5 -54,-30 z m 92,12 c 6,-4 16,-19 21,-33 21,-53 -53,-99 -96,-59 -26,24 -28,47 -6,78 15,22 57,29 81,14 z m 3,-152 c 50,-50 -4,-128 -68,-98 -58,28 -32,114 36,117 6,1 21,-8 32,-19 z"
       id="path80"
       inkscape:connector-curvature="0" />
    <path
       d="m 1380,800 c -9,-16 -8,-25 1,-36 16,-19 58,-18 66,2 16,41 -46,73 -67,34 z m 43,-10 c 3,-13 0,-20 -8,-20 -17,0 -28,17 -20,30 10,16 22,12 28,-10 z"
       id="path82"
       inkscape:connector-curvature="0" />
    <path
       d="m 1390,636 c 0,-8 4,-17 8,-20 13,-8 35,11 28,23 -10,16 -36,14 -36,-3 z"
       id="path84"
       inkscape:connector-curvature="0" />
    <path
       d="m 1850,833 c 0,-6 5,-15 10,-18 6,-3 10,-42 10,-87 0,-72 -2,-79 -17,-73 -15,5 -16,4 -5,-6 8,-8 12,-43 12,-98 0,-135 8,-90 15,89 6,141 5,168 -9,185 -8,11 -16,15 -16,8 z"
       id="path86"
       inkscape:connector-curvature="0" />
    <path
       d="m 292,795 c 0,-16 2,-22 5,-12 2,9 2,23 0,30 -3,6 -5,-1 -5,-18 z"
       id="path88"
       inkscape:connector-curvature="0" />
    <path
       d="m 1287,803 c -4,-3 -7,-15 -7,-25 0,-23 38,-25 47,-2 8,21 -24,43 -40,27 z"
       id="path90"
       inkscape:connector-curvature="0" />
    <path
       d="m 1557,793 c -4,-3 -7,-18 -6,-32 1,-26 1,-25 10,3 9,31 7,41 -4,29 z"
       id="path92"
       inkscape:connector-curvature="0" />
    <path
       d="m 1591,784 c 0,-11 3,-14 6,-6 3,7 2,16 -1,19 -3,4 -6,-2 -5,-13 z"
       id="path94"
       inkscape:connector-curvature="0" />
    <path
       d="m 1663,765 c 0,-22 2,-30 4,-17 2,12 2,30 0,40 -3,9 -5,-1 -4,-23 z"
       id="path96"
       inkscape:connector-curvature="0" />
    <path
       d="m 1853,730 c 0,-36 2,-50 4,-32 2,17 2,47 0,65 -2,17 -4,3 -4,-33 z"
       id="path98"
       inkscape:connector-curvature="0" />
    <path
       d="m 1513,773 c -16,-6 -17,-33 -2,-33 7,0 9,-9 6,-21 -3,-13 -1,-19 6,-16 13,4 23,77 10,76 -4,0 -14,-3 -20,-6 z"
       id="path100"
       inkscape:connector-curvature="0" />
    <path
       d="m 1607,762 c -27,-17 -36,-45 -16,-57 6,-4 10,-1 8,6 -3,27 1,40 12,33 6,-3 9,-15 6,-25 -6,-21 8,-26 19,-7 11,17 14,57 6,62 -4,2 -20,-3 -35,-12 z"
       id="path102"
       inkscape:connector-curvature="0" />
    <path
       d="m 1742,740 c 0,-19 2,-27 5,-17 2,9 2,25 0,35 -3,9 -5,1 -5,-18 z"
       id="path104"
       inkscape:connector-curvature="0" />
    <path
       d="m 293,695 c 0,-38 2,-53 4,-32 2,20 2,52 0,70 -2,17 -4,1 -4,-38 z"
       id="path106"
       inkscape:connector-curvature="0" />
    <path
       d="m 1283,739 c -16,-16 -5,-39 17,-39 25,0 35,18 20,35 -15,18 -22,19 -37,4 z m 27,-19 c 0,-5 -2,-10 -4,-10 -3,0 -8,5 -11,10 -3,6 -1,10 4,10 6,0 11,-4 11,-10 z"
       id="path108"
       inkscape:connector-curvature="0" />
    <path
       d="m 1550,710 c 0,-5 5,-10 11,-10 5,0 7,5 4,10 -3,6 -8,10 -11,10 -2,0 -4,-4 -4,-10 z"
       id="path110"
       inkscape:connector-curvature="0" />
    <path
       d="m 1283,679 c -16,-16 -5,-39 17,-39 23,0 32,13 24,34 -7,19 -25,21 -41,5 z"
       id="path112"
       inkscape:connector-curvature="0" />
    <path
       d="m 1742,665 c 0,-16 2,-22 5,-12 2,9 2,23 0,30 -3,6 -5,-1 -5,-18 z"
       id="path114"
       inkscape:connector-curvature="0" />
    <path
       d="m 1498,560 c -1,-60 -2,-122 -2,-137 -1,-27 1,-28 62,-31 44,-2 63,1 66,10 3,7 7,70 10,141 l 6,127 -70,0 -70,0 -2,-110 z m 105,86 c 14,-11 17,-29 17,-95 0,-58 -3,-80 -11,-75 -7,4 -9,0 -5,-13 9,-27 -15,-46 -48,-37 -31,7 -36,14 -40,52 -4,27 -3,28 42,28 l 47,-1 0,50 0,50 -37,3 c -37,3 -38,2 -38,-30 0,-63 -18,-63 -19,0 0,48 3,63 17,71 24,14 54,13 75,-3 z m -13,-57 c 9,-6 11,-12 4,-15 -6,-2 -8,-18 -6,-34 4,-27 1,-30 -22,-30 -17,0 -26,5 -26,16 0,11 6,15 20,11 13,-3 20,0 20,9 0,8 -9,14 -20,14 -22,0 -23,1 -14,24 7,18 23,20 44,5 z m -65,-169 c 3,-5 1,-10 -4,-10 -6,0 -11,5 -11,10 0,6 2,10 4,10 3,0 8,-4 11,-10 z m 48,-17 c -7,-2 -19,-2 -25,0 -7,3 -2,5 12,5 14,0 19,-2 13,-5 z"
       id="path116"
       inkscape:connector-curvature="0" />
    <path
       d="m 1558,483 c 6,-2 18,-2 25,0 6,3 1,5 -13,5 -14,0 -19,-2 -12,-5 z"
       id="path118"
       inkscape:connector-curvature="0" />
    <path
       d="m 1550,456 c 0,-2 7,-6 15,-10 8,-3 15,-1 15,4 0,6 -7,10 -15,10 -8,0 -15,-2 -15,-4 z"
       id="path120"
       inkscape:connector-curvature="0" />
    <path
       d="m 169,615 c -5,-50 -4,-63 7,-53 3,3 4,28 2,54 l -3,49 -6,-50 z"
       id="path122"
       inkscape:connector-curvature="0" />
    <path
       d="m 1276,621 c -9,-13 4,-41 18,-41 18,0 35,21 29,36 -6,16 -39,19 -47,5 z"
       id="path124"
       inkscape:connector-curvature="0" />
    <path
       d="m 291,604 c 0,-11 3,-14 6,-6 3,7 2,16 -1,19 -3,4 -6,-2 -5,-13 z"
       id="path126"
       inkscape:connector-curvature="0" />
    <path
       d="m 1843,555 c 0,-33 2,-45 4,-27 2,18 2,45 0,60 -2,15 -4,0 -4,-33 z"
       id="path128"
       inkscape:connector-curvature="0" />
    <path
       d="m 1275,560 c -9,-15 14,-40 31,-33 22,8 18,43 -5,43 -11,0 -23,-5 -26,-10 z"
       id="path130"
       inkscape:connector-curvature="0" />
    <path
       d="m 155,493 c 1,-30 -2,-56 -7,-59 -4,-3 -4,-14 2,-24 5,-10 10,-54 10,-97 1,-53 5,-84 15,-97 11,-14 15,-16 15,-5 1,10 5,9 15,-5 8,-11 15,-16 15,-10 0,5 -7,17 -14,27 -11,14 -15,15 -20,5 -3,-7 -5,8 -3,34 1,25 -2,44 -6,41 -5,-3 -7,51 -5,119 2,84 -1,125 -8,125 -6,0 -10,-22 -9,-54 z"
       id="path132"
       inkscape:connector-curvature="0" />
    <path
       d="m 301,534 c 0,-11 3,-14 6,-6 3,7 2,16 -1,19 -3,4 -6,-2 -5,-13 z"
       id="path134"
       inkscape:connector-curvature="0" />
    <path
       d="m 1382,541 c -20,-12 -30,-63 -18,-90 8,-18 8,-25 -2,-29 -20,-6 -14,-30 14,-48 19,-13 28,-14 37,-5 8,8 5,11 -15,11 -32,0 -41,19 -21,45 11,16 15,17 22,6 5,-8 7,-20 4,-28 -3,-7 0,-13 6,-13 6,0 11,8 11,18 0,10 11,25 25,32 20,10 23,18 19,39 -14,59 -47,85 -82,62 z m 52,-17 c 37,-37 6,-91 -41,-73 -27,10 -30,44 -6,71 20,22 27,22 47,2 z"
       id="path136"
       inkscape:connector-curvature="0" />
    <path
       d="m 1385,501 c -3,-5 -1,-12 5,-16 5,-3 10,1 10,9 0,18 -6,21 -15,7 z"
       id="path138"
       inkscape:connector-curvature="0" />
    <path
       d="m 1420,490 c 0,-19 3,-21 12,-12 9,9 9,15 0,24 -9,9 -12,7 -12,-12 z"
       id="path140"
       inkscape:connector-curvature="0" />
    <path
       d="m 1732,530 c 0,-14 2,-19 5,-12 2,6 2,18 0,25 -3,6 -5,1 -5,-13 z"
       id="path142"
       inkscape:connector-curvature="0" />
    <path
       d="m 303,410 c 1,-58 2,-84 4,-58 3,39 7,46 21,41 13,-4 12,-2 -3,10 -15,13 -16,16 -5,17 10,0 11,3 3,8 -6,4 -13,25 -16,47 -2,22 -4,-7 -4,-65 z"
       id="path144"
       inkscape:connector-curvature="0" />
    <path
       d="m 1273,494 c -7,-18 14,-35 34,-27 7,3 13,14 13,24 0,24 -38,26 -47,3 z"
       id="path146"
       inkscape:connector-curvature="0" />
    <path
       d="m 183,410 c 0,-47 2,-66 4,-42 2,23 2,61 0,85 -2,23 -4,4 -4,-43 z"
       id="path148"
       inkscape:connector-curvature="0" />
    <path
       d="m 1843,453 c 1,-23 -2,-45 -6,-49 -4,-4 -6,-23 -6,-43 l 2,-36 7,40 c 7,37 7,36 8,-20 0,-43 -2,-54 -8,-40 -6,13 -7,-1 -4,-40 3,-42 2,-54 -5,-40 -7,15 -10,16 -10,4 -1,-16 -34,-52 -42,-45 -2,2 -352,8 -778,12 -589,5 -773,4 -770,-5 3,-9 196,-11 777,-11 620,0 772,-2 766,-12 -4,-7 7,0 24,16 39,36 42,23 5,-17 -20,-21 -22,-26 -8,-17 45,27 61,70 63,165 1,50 -3,110 -8,135 l -8,45 1,-42 z"
       id="path150"
       inkscape:connector-curvature="0" />
    <path
       d="m 1732,460 c 0,-14 2,-19 5,-12 2,6 2,18 0,25 -3,6 -5,1 -5,-13 z"
       id="path152"
       inkscape:connector-curvature="0" />
    <path
       d="m 1705,431 c 3,-6 1,-11 -4,-11 -15,0 -14,-27 1,-36 8,-5 9,-2 5,10 -5,14 -3,17 8,13 23,-9 26,8 3,22 -11,7 -17,8 -13,2 z"
       id="path154"
       inkscape:connector-curvature="0" />
    <path
       d="m 1274,415 c -4,-9 -2,-21 4,-27 15,-15 44,-1 40,19 -4,23 -36,29 -44,8 z"
       id="path156"
       inkscape:connector-curvature="0" />
    <path
       d="m 455,299 c -4,-6 -5,-12 -2,-15 2,-3 7,2 10,11 7,17 1,20 -8,4 z"
       id="path158"
       inkscape:connector-curvature="0" />
    <path
       d="m 481,284 c 0,-11 3,-14 6,-6 3,7 2,16 -1,19 -3,4 -6,-2 -5,-13 z"
       id="path160"
       inkscape:connector-curvature="0" />
    <path
       d="m 1280,273 c 0,-10 -104,-12 -484,-10 -266,1 -482,-1 -479,-5 6,-10 1400,-10 1406,0 3,4 -92,6 -211,4 -167,-2 -217,0 -224,10 -6,10 -8,10 -8,1 z"
       id="path162"
       inkscape:connector-curvature="0" />
    <path
       d="m 210,172 c 0,-12 19,-26 26,-19 2,2 -2,10 -11,17 -9,8 -15,8 -15,2 z"
       id="path164"
       inkscape:connector-curvature="0" />
    <path
       d="m 848,153 c 18,-2 45,-2 60,0 15,2 0,4 -33,4 -33,0 -45,-2 -27,-4 z"
       id="path166"
       inkscape:connector-curvature="0" />
    <path
       d="m 963,153 c 15,-2 37,-2 50,0 12,2 0,4 -28,4 -27,0 -38,-2 -22,-4 z"
       id="path168"
       inkscape:connector-curvature="0" />
    <path
       d="m 1053,153 c 9,-2 25,-2 35,0 9,3 1,5 -18,5 -19,0 -27,-2 -17,-5 z"
       id="path170"
       inkscape:connector-curvature="0" />
    <path
       d="m 1158,153 c 23,-2 61,-2 85,0 23,2 4,4 -43,4 -47,0 -66,-2 -42,-4 z"
       id="path172"
       inkscape:connector-curvature="0" />
    <path
       d="m 1328,153 c 23,-2 61,-2 85,0 23,2 4,4 -43,4 -47,0 -66,-2 -42,-4 z"
       id="path174"
       inkscape:connector-curvature="0" />
    <path
       d="m 1498,153 c 23,-2 61,-2 85,0 23,2 4,4 -43,4 -47,0 -66,-2 -42,-4 z"
       id="path176"
       inkscape:connector-curvature="0" />
    <path
       d="m 1643,153 c 9,-2 23,-2 30,0 6,3 -1,5 -18,5 -16,0 -22,-2 -12,-5 z"
       id="path178"
       inkscape:connector-curvature="0" />
    <path
       d="m 1728,153 c 6,-2 18,-2 25,0 6,3 1,5 -13,5 -14,0 -19,-2 -12,-5 z"
       id="path180"
       inkscape:connector-curvature="0" />
    <path
       d="m 373,133 c 9,-2 23,-2 30,0 6,3 -1,5 -18,5 -16,0 -22,-2 -12,-5 z"
       id="path182"
       inkscape:connector-curvature="0" />
    <path
       d="m 524,133 c 7,-7 77,-5 85,3 2,2 -17,4 -44,4 -27,0 -45,-3 -41,-7 z"
       id="path184"
       inkscape:connector-curvature="0" />
    <path
       d="m 628,133 c 7,-3 16,-2 19,1 4,3 -2,6 -13,5 -11,0 -14,-3 -6,-6 z"
       id="path186"
       inkscape:connector-curvature="0" />
    <path
       d="m 695,130 c 3,-5 8,-10 11,-10 2,0 4,5 4,10 0,6 -5,10 -11,10 -5,0 -7,-4 -4,-10 z"
       id="path188"
       inkscape:connector-curvature="0" />
    <path
       d="m 733,134 c 7,-8 319,-6 326,2 2,2 -71,4 -164,4 -93,0 -165,-3 -162,-6 z"
       id="path190"
       inkscape:connector-curvature="0" />
    <path
       d="m 1135,130 c 39,-3 77,-10 84,-15 10,-5 12,-4 7,3 -5,9 12,11 59,11 36,-1 69,1 72,5 3,3 -61,5 -143,4 -116,-1 -134,-3 -79,-8 z"
       id="path192"
       inkscape:connector-curvature="0" />
    <path
       d="m 1383,133 c 10,-9 197,-10 197,0 0,4 -46,7 -102,7 -56,0 -98,-3 -95,-7 z"
       id="path194"
       inkscape:connector-curvature="0" />
    <path
       d="m 1591,136 c 8,-8 108,-10 116,-3 3,4 -22,7 -57,7 -35,0 -61,-2 -59,-4 z"
       id="path196"
       inkscape:connector-curvature="0" />
    <path
       d="m 1970,86 c 0,-2 7,-7 16,-10 8,-3 12,-2 9,4 -6,10 -25,14 -25,6 z"
       id="path202"
       inkscape:connector-curvature="0" />
    <path
       d="m 1910,56 c 0,-2 7,-7 16,-10 8,-3 12,-2 9,4 -6,10 -25,14 -25,6 z"
       id="path204"
       inkscape:connector-curvature="0" />
  </g>
</svg>
