<?xml version="1.0" encoding="UTF-8" standalone="no"?>
<svg
   xmlns:dc="http://purl.org/dc/elements/1.1/"
   xmlns:cc="http://creativecommons.org/ns#"
   xmlns:rdf="http://www.w3.org/1999/02/22-rdf-syntax-ns#"
   xmlns:svg="http://www.w3.org/2000/svg"
   xmlns="http://www.w3.org/2000/svg"
   xmlns:sodipodi="http://sodipodi.sourceforge.net/DTD/sodipodi-0.dtd"
   xmlns:inkscape="http://www.inkscape.org/namespaces/inkscape"
   version="1.0"
   width="375"
   height="310.5"
   viewBox="0 0 300 248.4"
   preserveAspectRatio="xMidYMid meet"
   id="svg2"
   inkscape:version="0.48.5 r10040"
   sodipodi:docname="ap-svg.svg">
  <defs
     id="defs188" />
  <sodipodi:namedview
     pagecolor="#ffffff"
     bordercolor="#666666"
     borderopacity="1"
     objecttolerance="10"
     gridtolerance="10"
     guidetolerance="10"
     inkscape:pageopacity="0"
     inkscape:pageshadow="2"
     inkscape:window-width="1913"
     inkscape:window-height="832"
     id="namedview186"
     showgrid="false"
     fit-margin-bottom="0"
     inkscape:zoom="0.89904762"
     inkscape:cx="187.5"
     inkscape:cy="131.25"
     inkscape:window-x="0"
     inkscape:window-y="0"
     inkscape:window-maximized="0"
     inkscape:current-layer="svg2" />
  <metadata
     id="metadata4">
Created by potrace 1.10, written by Peter Selinger 2001-2011
<rdf:RDF>
  <cc:Work
     rdf:about="">
    <dc:format>image/svg+xml</dc:format>
    <dc:type
       rdf:resource="http://purl.org/dc/dcmitype/StillImage" />
  </cc:Work>
</rdf:RDF>
</metadata>
  <g
     transform="matrix(0.1,0,0,-0.1,0,248.4)"
     id="g6"
     style="fill:#000000;stroke:none">
    <path
       d="m 1639,1916 c 23,-14 46,-26 51,-26 7,0 47,-37 86,-82 24,-27 44,-80 44,-118 0,-110 -334,-198 -647,-170 -323,29 -527,139 -482,258 10,25 9,25 -8,9 -11,-9 -55,-33 -98,-53 -44,-20 -113,-51 -153,-70 -41,-19 -78,-34 -82,-34 -5,0 -10,-19 -12,-42 -3,-39 -6,-43 -28,-42 -14,0 -38,4 -53,9 l -28,7 1,-213 c 0,-118 1,-218 0,-222 0,-4 -8,-4 -17,1 -20,10 -63,-1 -63,-17 0,-18 52,-22 76,-6 l 24,15 0,206 0,207 29,-6 c 43,-9 69,2 80,34 5,16 11,29 13,29 2,0 25,-7 51,-15 26,-8 45,-10 43,-6 -3,5 -26,14 -51,20 -25,6 -45,15 -45,20 0,4 33,23 72,41 40,19 104,48 143,66 76,36 89,34 100,-17 4,-16 11,-31 16,-34 5,-4 5,-13 0,-23 -16,-29 0,-70 39,-104 60,-53 75,-64 96,-70 10,-3 27,-9 37,-13 9,-4 17,-3 17,1 0,5 -19,17 -43,27 -23,9 -53,27 -67,38 -14,11 -19,18 -12,14 6,-3 12,-1 12,5 0,7 -7,10 -15,7 -20,-8 -55,39 -55,75 l 0,29 33,-25 c 119,-91 369,-145 617,-133 194,9 327,45 416,113 l 42,33 11,-31 c 21,-59 -24,-105 -159,-162 -36,-15 -72,-30 -80,-34 -46,-23 -481,-21 -555,2 l -50,16 70,-6 c 39,-3 82,-7 98,-9 15,-2 27,0 27,4 0,8 -136,21 -205,20 l -40,-1 30,-13 c 17,-8 55,-19 85,-26 30,-6 60,-14 65,-18 14,-9 386,-6 409,4 17,7 17,6 3,-21 -9,-19 -14,-58 -13,-112 l 1,-84 40,-22 c 50,-28 137,-50 164,-41 21,6 25,18 23,63 -1,20 4,22 46,22 36,0 61,8 105,35 32,19 119,67 195,106 75,40 155,83 177,97 22,14 45,25 52,25 7,0 10,4 7,9 -3,4 2,8 10,8 22,0 23,-7 15,-115 -4,-55 -10,-156 -13,-225 -4,-69 -9,-150 -12,-182 -3,-31 -1,-59 4,-62 11,-7 16,45 38,383 20,306 22,298 -81,239 -38,-22 -179,-101 -312,-175 -243,-135 -243,-135 -243,-169 0,-51 -21,-56 -115,-25 -78,25 -80,27 -83,61 -2,19 -1,62 3,95 l 6,60 142,75 c 78,41 193,102 256,134 64,33 110,61 105,63 -6,2 -56,16 -110,32 l -99,28 -5,40 c -4,22 -13,52 -22,65 -39,60 -127,126 -188,143 -15,4 -8,-3 19,-19 z m 246,-266 c 3,-5 17,-10 30,-10 13,0 36,-5 51,-10 l 28,-11 -30,-18 c -16,-9 -51,-30 -78,-46 l -49,-29 6,30 c 3,16 -1,44 -9,63 -8,18 -14,35 -14,37 0,9 59,3 65,-6 z m 476,-144 c -11,-13 -82,-55 -241,-144 -25,-14 -58,-34 -75,-44 -16,-10 -37,-18 -46,-18 -9,0 -22,-7 -29,-15 -7,-9 -19,-14 -27,-11 -8,3 -11,2 -8,-4 5,-9 -19,-27 -40,-29 -26,-3 -45,-13 -40,-22 3,-5 -2,-6 -11,-2 -10,4 -15,2 -11,-4 4,-5 -6,-10 -23,-10 -39,0 -38,11 3,28 17,7 73,37 124,66 51,29 95,53 98,53 4,0 20,9 36,21 16,11 29,18 29,14 0,-3 6,-1 13,5 25,24 223,129 241,130 15,0 16,-3 7,-14 z"
       id="path8"
       inkscape:connector-curvature="0" />
    <path
       d="m 840,1919 c 0,-5 5,-7 10,-4 6,3 10,8 10,11 0,2 -4,4 -10,4 -5,0 -10,-5 -10,-11 z"
       id="path10"
       inkscape:connector-curvature="0" />
    <path
       d="m 794,1901 c -33,-20 -51,-41 -36,-41 5,0 17,9 27,20 10,11 24,20 32,20 7,0 13,5 13,10 0,13 0,13 -36,-9 z"
       id="path12"
       inkscape:connector-curvature="0" />
    <path
       d="m 560,1892 c 0,-17 13,-22 27,-11 8,7 13,8 13,1 0,-14 27,-23 46,-15 15,6 15,8 -2,20 -20,14 -84,18 -84,5 z"
       id="path14"
       inkscape:connector-curvature="0" />
    <path
       d="m 530,1866 c 0,-13 -3,-32 -6,-41 -6,-14 -3,-14 29,1 33,16 43,42 11,30 -9,-3 -14,2 -14,14 0,11 -4,20 -10,20 -5,0 -10,-11 -10,-24 z"
       id="path16"
       inkscape:connector-curvature="0" />
    <path
       d="m 420,1840 c -8,-5 -10,-10 -5,-10 6,0 17,5 25,10 8,5 11,10 5,10 -5,0 -17,-5 -25,-10 z"
       id="path18"
       inkscape:connector-curvature="0" />
    <path
       d="m 380,1819 c 0,-5 5,-7 10,-4 6,3 10,8 10,11 0,2 -4,4 -10,4 -5,0 -10,-5 -10,-11 z"
       id="path20"
       inkscape:connector-curvature="0" />
    <path
       d="m 334,1794 c -18,-14 -18,-14 6,-3 31,14 36,19 24,19 -6,0 -19,-7 -30,-16 z"
       id="path22"
       inkscape:connector-curvature="0" />
    <path
       d="m 460,1769 c 0,-5 5,-7 10,-4 6,3 10,8 10,11 0,2 -4,4 -10,4 -5,0 -10,-5 -10,-11 z"
       id="path24"
       inkscape:connector-curvature="0" />
    <path
       d="m 281,1713 c -1,-18 19,-27 32,-13 9,10 8,12 -5,7 -9,-3 -19,-1 -22,6 -3,9 -5,9 -5,0 z"
       id="path26"
       inkscape:connector-curvature="0" />
    <path
       d="m 2128,1661 c -27,-14 -48,-29 -48,-34 0,-4 11,0 25,9 14,9 25,13 25,9 0,-3 7,1 16,9 20,21 41,20 48,-1 3,-11 4,-8 3,6 -3,33 -14,33 -69,2 z"
       id="path28"
       inkscape:connector-curvature="0" />
    <path
       d="m 300,1659 c 0,-5 -4,-7 -10,-4 -5,3 -10,1 -10,-5 0,-15 32,-9 38,8 2,6 -1,12 -7,12 -6,0 -11,-5 -11,-11 z"
       id="path30"
       inkscape:connector-curvature="0" />
    <path
       d="m 2190,1620 c 0,-5 5,-10 11,-10 5,0 7,5 4,10 -3,6 -8,10 -11,10 -2,0 -4,-4 -4,-10 z"
       id="path32"
       inkscape:connector-curvature="0" />
    <path
       d="m 2355,1620 c -3,-5 -1,-10 4,-10 6,0 11,5 11,10 0,6 -2,10 -4,10 -3,0 -8,-4 -11,-10 z"
       id="path34"
       inkscape:connector-curvature="0" />
    <path
       d="m 1800,1591 c 0,-11 -10,-28 -23,-38 -13,-10 -25,-22 -28,-28 -2,-5 -8,-9 -14,-7 -5,2 -4,-3 3,-10 11,-11 18,-7 43,20 24,27 41,82 24,82 -3,0 -5,-9 -5,-19 z"
       id="path36"
       inkscape:connector-curvature="0" />
    <path
       d="m 2229,1602 c 9,-7 10,-11 2,-15 -7,-4 -8,-5 0,-3 15,2 13,20 -3,24 -10,3 -10,2 1,-6 z"
       id="path38"
       inkscape:connector-curvature="0" />
    <path
       d="m 2150,1590 c -13,-8 -12,-10 3,-10 9,0 17,5 17,10 0,12 -1,12 -20,0 z"
       id="path40"
       inkscape:connector-curvature="0" />
    <path
       d="m 510,1550 c 8,-5 24,-9 35,-9 20,0 20,0 0,9 -11,5 -27,9 -35,9 -13,1 -13,0 0,-9 z"
       id="path42"
       inkscape:connector-curvature="0" />
    <path
       d="m 2138,1553 c -27,-4 -35,-13 -22,-26 8,-7 54,13 54,25 0,4 -1,7 -2,7 -2,-1 -15,-4 -30,-6 z"
       id="path44"
       inkscape:connector-curvature="0" />
    <path
       d="m 608,1523 c 7,-3 16,-2 19,1 4,3 -2,6 -13,5 -11,0 -14,-3 -6,-6 z"
       id="path46"
       inkscape:connector-curvature="0" />
    <path
       d="m 690,1525 c 0,-9 71,-37 78,-31 3,3 3,6 0,6 -3,0 -22,7 -42,15 -20,8 -36,13 -36,10 z"
       id="path48"
       inkscape:connector-curvature="0" />
    <path
       d="m 1917,1507 c -18,-14 -31,-83 -17,-92 5,-3 45,13 90,35 78,39 97,54 63,48 -10,-1 -24,1 -31,6 -23,14 -88,16 -105,3 z m 19,-6 c -3,-5 1,-11 9,-15 9,-3 15,0 15,10 0,8 5,12 10,9 6,-4 8,-11 5,-16 -9,-13 9,-11 23,3 9,9 12,9 12,-3 0,-9 -11,-21 -24,-27 -20,-9 -29,-8 -47,7 -19,15 -20,41 -3,41 3,0 3,-4 0,-9 z m -3,-37 c 8,-8 -3,-34 -14,-34 -5,0 -9,9 -9,20 0,19 11,26 23,14 z"
       id="path50"
       inkscape:connector-curvature="0" />
    <path
       d="m 494,1457 c -2,-7 -6,-103 -8,-213 -3,-216 3,-256 46,-273 67,-28 758,-251 775,-251 11,0 25,6 31,13 6,7 13,105 17,227 7,211 7,215 -14,240 l -22,25 15,-31 c 23,-47 12,-421 -13,-447 -17,-17 -33,-13 -403,111 -213,70 -393,134 -402,141 -14,12 -16,45 -16,232 l 0,219 28,-6 c 15,-3 62,-15 106,-26 43,-10 80,-17 83,-14 6,5 -180,66 -202,66 -9,0 -18,-6 -21,-13 z"
       id="path52"
       inkscape:connector-curvature="0" />
    <path
       d="m 1246,1462 c -3,-5 1,-9 9,-9 8,0 12,4 9,9 -3,4 -7,8 -9,8 -2,0 -6,-4 -9,-8 z"
       id="path54"
       inkscape:connector-curvature="0" />
    <path
       d="m 1226,1415 c -16,-12 -17,-15 -4,-15 26,0 48,11 42,21 -7,12 -16,11 -38,-6 z"
       id="path56"
       inkscape:connector-curvature="0" />
    <path
       d="m 1289,1421 c 12,-8 51,-4 51,5 0,2 -15,4 -32,4 -23,0 -29,-3 -19,-9 z"
       id="path58"
       inkscape:connector-curvature="0" />
    <path
       d="m 1810,1410 c -8,-5 -10,-10 -5,-10 6,0 17,5 25,10 8,5 11,10 5,10 -5,0 -17,-5 -25,-10 z"
       id="path60"
       inkscape:connector-curvature="0" />
    <path
       d="m 808,1368 c 6,-6 18,-8 28,-6 14,3 12,5 -9,10 -19,3 -25,2 -19,-4 z"
       id="path62"
       inkscape:connector-curvature="0" />
    <path
       d="m 1785,1370 c -17,-7 -17,-9 -4,-14 8,-4 31,0 50,8 l 34,15 -30,0 c -16,0 -39,-4 -50,-9 z"
       id="path64"
       inkscape:connector-curvature="0" />
    <path
       d="m 1175,1360 c 27,-12 43,-12 25,0 -8,5 -22,9 -30,9 -10,0 -8,-3 5,-9 z"
       id="path66"
       inkscape:connector-curvature="0" />
    <path
       d="m 1686,1348 c 3,-5 10,-6 15,-3 13,9 11,12 -6,12 -8,0 -12,-4 -9,-9 z"
       id="path68"
       inkscape:connector-curvature="0" />
    <path
       d="m 1230,1340 c 8,-5 22,-9 30,-9 10,0 8,3 -5,9 -27,12 -43,12 -25,0 z"
       id="path70"
       inkscape:connector-curvature="0" />
    <path
       d="m 1683,1313 c -30,-6 -29,-17 2,-31 14,-6 25,-7 25,-2 0,4 7,16 16,24 14,15 14,16 -3,15 -10,-1 -28,-4 -40,-6 z"
       id="path72"
       inkscape:connector-curvature="0" />
    <path
       d="m 1298,1293 c 7,-3 16,-2 19,1 4,3 -2,6 -13,5 -11,0 -14,-3 -6,-6 z"
       id="path74"
       inkscape:connector-curvature="0" />
    <path
       d="m 1580,1290 c -8,-5 -12,-11 -9,-14 2,-3 11,-1 19,4 8,5 12,11 9,14 -2,3 -11,1 -19,-4 z"
       id="path76"
       inkscape:connector-curvature="0" />
    <path
       d="m 1690,1253 c 0,-5 5,-15 10,-23 8,-12 10,-11 10,8 0,12 -4,22 -10,22 -5,0 -10,-3 -10,-7 z"
       id="path78"
       inkscape:connector-curvature="0" />
    <path
       d="m 1250,1236 c 0,-2 9,-6 20,-9 11,-3 18,-1 14,4 -5,9 -34,13 -34,5 z"
       id="path80"
       inkscape:connector-curvature="0" />
    <path
       d="m 1830,1154 c 0,-14 4,-23 9,-20 5,3 7,15 4,26 -7,28 -13,25 -13,-6 z"
       id="path82"
       inkscape:connector-curvature="0" />
    <path
       d="m 1832,1080 c -1,-25 -4,-70 -7,-100 -4,-49 -4,-51 5,-22 6,18 9,63 7,100 -2,48 -4,54 -5,22 z"
       id="path84"
       inkscape:connector-curvature="0" />
    <path
       d="m 234,1089 c -3,-6 -1,-16 5,-22 8,-8 11,-5 11,11 0,24 -5,28 -16,11 z"
       id="path86"
       inkscape:connector-curvature="0" />
    <path
       d="m 130,1081 c 0,-30 23,-62 53,-75 45,-18 48,-24 51,-107 2,-68 1,-72 -24,-82 -14,-6 -46,-24 -72,-40 -47,-28 -48,-30 -48,-77 0,-69 43,-92 121,-65 39,14 67,14 122,-1 11,-4 17,-15 17,-34 0,-41 23,-50 127,-48 l 88,1 310,-110 c 171,-61 318,-114 327,-118 10,-4 18,-20 20,-38 5,-48 44,-63 122,-48 57,11 67,10 144,-14 l 82,-26 0,-44 c 0,-34 5,-47 19,-55 28,-14 38,-13 17,3 -18,13 -29,97 -13,97 5,0 5,5 2,10 -10,16 18,70 35,70 8,-1 26,-8 40,-16 25,-15 25,-15 1,-10 -28,6 -71,-12 -71,-31 0,-7 6,-13 13,-13 9,0 8,-3 -2,-9 -9,-6 -3,-10 20,-13 27,-4 39,0 57,19 12,13 20,29 17,34 -4,5 -2,9 4,9 5,0 12,-6 14,-12 4,-10 8,-10 15,1 5,7 22,15 36,16 23,3 85,38 169,97 15,10 40,21 56,23 16,2 43,11 60,19 26,14 31,14 31,2 0,-8 -26,-31 -57,-52 -32,-21 -60,-41 -63,-44 -3,-4 -33,-24 -67,-45 -35,-21 -68,-44 -74,-52 -10,-11 -15,-11 -30,3 -16,15 -17,14 -12,-7 5,-17 3,-20 -7,-14 -8,5 -11,4 -6,-3 3,-6 -6,-20 -21,-32 l -28,-22 -3,27 c -2,15 1,32 7,38 8,8 11,6 11,-6 0,-9 5,-17 11,-17 5,0 7,5 3,11 -3,6 0,15 7,20 12,7 11,9 -1,9 -13,0 -13,1 0,10 8,5 10,10 5,10 -23,0 -65,-51 -65,-80 0,-16 -7,-36 -16,-44 -42,-42 25,-4 214,124 l 207,140 76,0 c 45,0 80,5 87,12 7,7 12,33 12,59 0,45 1,47 59,88 33,22 63,41 69,41 13,0 43,36 36,43 -4,3 -15,2 -26,-4 -15,-8 -24,-7 -38,6 -10,9 -21,12 -24,7 -3,-5 3,-12 14,-15 11,-3 20,-10 20,-15 0,-9 -54,-47 -84,-61 -5,-2 -22,-17 -37,-32 -29,-30 -44,-33 -98,-23 -34,7 -41,27 -14,43 10,6 12,11 6,11 -7,0 -13,4 -13,8 0,5 25,7 55,4 47,-4 56,-2 62,14 4,11 23,34 42,53 l 36,33 -35,-23 c -19,-13 -38,-28 -42,-33 -4,-6 -22,-3 -47,10 -35,16 -41,24 -40,49 0,27 1,28 9,9 10,-26 15,-30 57,-39 27,-5 37,-2 59,20 25,25 30,26 63,16 20,-6 110,-35 201,-64 91,-29 203,-64 249,-77 l 83,-24 20,24 c 13,16 18,35 16,59 -3,42 21,32 -337,141 -123,38 -224,70 -225,72 -2,2 -7,19 -12,38 -8,29 -16,37 -52,49 -39,12 -45,11 -62,-4 -32,-29 -58,-95 -80,-205 -22,-112 -55,-192 -93,-228 -23,-21 -25,-22 -60,-7 -21,8 -37,11 -37,5 0,-5 15,-13 33,-18 25,-8 28,-11 15,-17 -26,-11 -146,33 -164,60 -17,26 -22,108 -10,175 l 8,45 -21,-24 c -14,-16 -21,-19 -22,-10 0,8 -4,6 -9,-6 -5,-11 -8,-60 -8,-110 1,-49 3,-76 5,-58 5,38 25,35 42,-5 6,-15 28,-36 48,-47 49,-27 51,-39 10,-64 -44,-27 -77,-28 -77,-1 0,11 0,23 -1,28 0,4 10,10 23,13 21,6 22,7 4,14 -37,16 -64,-58 -31,-85 36,-30 -74,-67 -139,-47 -37,10 -38,12 -15,18 16,4 7,6 -26,6 -54,-1 -182,43 -201,69 -10,13 -12,12 -18,-2 -4,-9 -5,-18 -4,-18 2,-1 39,-14 83,-29 43,-15 82,-33 86,-39 12,-18 -23,-70 -41,-62 -50,21 -137,44 -168,44 -28,0 -33,3 -24,12 7,7 12,23 12,38 -1,24 -1,24 -15,6 -8,-10 -12,-23 -9,-27 10,-16 -17,-49 -39,-49 -33,0 -57,21 -63,55 -5,30 -10,39 -22,41 -4,0 -18,5 -32,11 -14,6 -45,17 -70,26 -25,8 -56,20 -70,25 -111,46 -475,167 -515,172 -45,4 -50,8 -52,30 -2,43 -4,46 -13,22 -5,-12 -7,-29 -4,-37 4,-9 -3,-16 -19,-20 -36,-9 -64,2 -70,28 -2,12 -8,30 -12,40 -7,17 -4,18 29,12 21,-4 55,-2 80,5 42,12 51,10 222,-50 99,-34 259,-89 357,-123 l 179,-62 -6,-33 c -4,-28 -1,-34 20,-42 33,-13 81,-11 120,3 26,10 29,15 23,37 -7,24 -7,24 -8,3 -1,-13 -5,-23 -11,-23 -5,0 -7,14 -3,33 6,32 6,32 -15,13 -16,-14 -19,-23 -12,-36 8,-15 5,-20 -19,-25 -17,-3 -39,-1 -51,5 -18,10 -21,19 -18,50 2,21 0,36 -4,34 -4,-3 -26,1 -48,7 -29,9 -37,15 -28,22 9,6 7,7 -6,3 -26,-9 -101,15 -84,26 8,5 1,6 -16,2 -22,-5 -27,-4 -21,6 6,9 4,11 -4,6 -14,-9 -311,92 -311,105 0,5 -7,5 -17,2 -12,-5 -14,-3 -8,7 5,8 4,11 -3,6 -15,-9 -63,4 -56,15 3,5 -2,6 -10,3 -8,-3 -31,3 -53,13 -38,18 -64,18 -149,-2 -36,-8 -64,13 -64,50 0,23 -19,35 -86,54 -27,8 -35,5 -57,-18 -18,-20 -24,-34 -20,-53 7,-36 -32,-63 -70,-49 -21,8 -26,17 -29,58 -5,58 -4,60 19,38 13,-14 18,-15 22,-4 2,7 -1,15 -7,17 -21,7 -13,22 12,22 13,0 29,7 36,15 12,14 15,14 31,-1 11,-10 22,-14 26,-11 11,11 6,193 -6,215 -7,12 -18,22 -27,22 -8,0 -17,7 -20,15 -4,8 -12,15 -19,15 -8,0 -17,5 -20,10 -9,14 47,1 56,-13 4,-5 12,-6 18,-2 9,5 7,11 -6,20 -10,7 -21,11 -25,9 -4,-3 -21,2 -38,11 -16,8 -30,11 -30,6 z M 2290,840 c 0,-7 6,-7 18,-1 15,8 20,4 30,-21 11,-30 11,-30 -20,-24 -29,6 -58,-6 -58,-24 0,-11 60,-18 66,-8 3,5 2,8 -3,7 -4,-1 -17,-1 -27,0 -16,1 -17,4 -8,13 9,9 22,5 56,-19 41,-29 70,-42 102,-47 7,-1 17,-5 20,-9 4,-4 17,-7 29,-7 13,0 43,-9 69,-21 25,-11 51,-17 56,-14 6,3 10,1 10,-5 0,-8 10,-10 28,-6 21,5 24,4 12,-5 -12,-9 -11,-10 8,-6 14,3 20,1 15,-6 -4,-6 0,-8 11,-4 9,4 39,-2 66,-13 28,-11 50,-17 50,-15 0,3 14,-1 30,-10 23,-12 30,-13 31,-3 0,7 5,2 10,-11 7,-19 12,-21 24,-11 12,10 12,7 2,-20 -8,-20 -13,-26 -15,-16 -4,21 -22,21 -22,0 0,-10 -6,-14 -14,-11 -8,3 -34,11 -58,17 -24,7 -81,24 -128,40 -47,15 -106,34 -132,41 -32,9 -47,18 -45,28 3,23 -100,59 -116,41 -8,-9 -8,-11 -1,-7 14,8 74,-11 74,-23 0,-4 10,-6 22,-2 14,3 19,2 14,-6 -9,-15 -17,-15 -53,-1 -15,7 -35,13 -43,15 -8,1 -33,6 -55,10 -22,4 -46,11 -52,17 -9,6 -13,6 -13,-2 0,-6 7,-14 15,-17 21,-8 19,-21 -5,-34 -16,-8 -28,-8 -50,2 -16,7 -26,16 -23,21 2,4 1,13 -4,20 -19,24 -3,103 27,136 29,31 50,40 50,21 z M 352,722 c 4,-4 5,-23 2,-41 -6,-27 -10,-32 -28,-27 -12,3 -35,6 -52,6 -30,0 -32,2 -32,41 l -1,42 51,-6 c 28,-4 55,-10 60,-15 z M 1830,590 c 0,-16 -4,-30 -8,-30 -5,0 -8,10 -6,23 1,12 3,25 3,30 3,21 11,3 11,-23 z m 400,-19 c 0,-17 -15,-19 -35,-5 -18,13 -18,14 8,14 15,0 27,-4 27,-9 z m -400,-52 c 0,-6 -4,-7 -10,-4 -5,3 -10,11 -10,16 0,6 5,7 10,4 6,-3 10,-11 10,-16 z m 391,-59 c 45,0 45,0 41,-30 -6,-40 -30,-52 -100,-48 l -57,3 3,35 c 3,39 18,53 47,45 11,-2 41,-5 66,-5 z M 1680,229 c 0,-5 -4,-7 -10,-4 -5,3 -10,-1 -10,-9 0,-9 -4,-16 -10,-16 -5,0 -10,7 -10,16 0,8 -4,12 -10,9 -5,-3 -10,-1 -10,4 0,6 14,11 30,11 17,0 30,-5 30,-11 z"
       id="path88"
       inkscape:connector-curvature="0" />
    <path
       d="m 2250,727 c 0,-14 4,-28 8,-31 9,-5 8,41 -1,51 -4,3 -7,-5 -7,-20 z"
       id="path90"
       inkscape:connector-curvature="0" />
    <path
       d="m 2338,708 c 6,-6 18,-8 28,-6 14,3 12,5 -9,10 -19,3 -25,2 -19,-4 z"
       id="path92"
       inkscape:connector-curvature="0" />
    <path
       d="m 2536,650 c 6,-6 20,-12 32,-15 12,-2 28,-7 35,-11 9,-5 9,-4 1,5 -6,6 -25,16 -44,21 -23,6 -30,6 -24,0 z"
       id="path94"
       inkscape:connector-curvature="0" />
    <path
       d="m 2630,620 c 8,-5 20,-10 25,-10 6,0 3,5 -5,10 -8,5 -19,10 -25,10 -5,0 -3,-5 5,-10 z"
       id="path96"
       inkscape:connector-curvature="0" />
    <path
       d="m 2670,611 c 0,-4 45,-21 101,-38 102,-31 126,-30 34,1 -98,34 -135,44 -135,37 z"
       id="path98"
       inkscape:connector-curvature="0" />
    <path
       d="m 2171,424 c 0,-11 3,-14 6,-6 3,7 2,16 -1,19 -3,4 -6,-2 -5,-13 z"
       id="path100"
       inkscape:connector-curvature="0" />
    <path
       d="m 470,1001 c 0,-6 4,-13 10,-16 6,-3 7,1 4,9 -7,18 -14,21 -14,7 z"
       id="path102"
       inkscape:connector-curvature="0" />
    <path
       d="m 1820,859 c 0,-37 -2,-82 -5,-100 l -5,-34 10,30 c 13,37 18,142 8,158 -4,7 -8,-18 -8,-54 z"
       id="path104"
       inkscape:connector-curvature="0" />
    <path
       d="m 2061,891 c -23,-43 0,-82 34,-57 14,10 16,18 8,41 -12,36 -28,42 -42,16 z m 29,-8 c 0,-5 -4,-14 -9,-21 -7,-11 -9,-11 -14,1 -3,8 -3,18 0,21 9,8 23,7 23,-1 z"
       id="path106"
       inkscape:connector-curvature="0" />
    <path
       d="m 1701,824 c 0,-11 3,-14 6,-6 3,7 2,16 -1,19 -3,4 -6,-2 -5,-13 z"
       id="path108"
       inkscape:connector-curvature="0" />
    <path
       d="m 1961,818 c -17,-11 -31,-24 -31,-30 0,-5 -4,-6 -10,-3 -5,3 -10,-2 -10,-11 0,-16 2,-15 23,3 45,41 58,43 132,19 63,-20 71,-26 87,-62 20,-44 24,-37 6,12 -8,22 -22,37 -42,44 -17,6 -52,19 -77,29 -46,18 -48,18 -78,-1 z"
       id="path110"
       inkscape:connector-curvature="0" />
    <path
       d="m 484,798 c -3,-5 -9,-6 -14,-3 -5,3 -11,1 -15,-5 -9,-14 -48,-13 -63,2 -9,9 -12,9 -12,1 0,-7 4,-14 9,-17 4,-3 6,-17 3,-31 -4,-22 -1,-25 24,-25 35,0 61,14 45,24 -6,4 -11,14 -11,22 0,11 7,13 28,8 43,-10 49,-18 22,-25 -22,-6 -21,-7 11,-8 19,-1 40,-6 46,-12 6,-6 16,-8 23,-4 15,9 -6,36 -24,29 -15,-6 -50,31 -42,44 3,5 -2,9 -10,9 -8,0 -17,-4 -20,-9 z m -54,-50 c 0,-19 -2,-20 -10,-8 -13,19 -13,30 0,30 6,0 10,-10 10,-22 z"
       id="path112"
       inkscape:connector-curvature="0" />
    <path
       d="m 1850,775 c -10,-12 -10,-18 1,-32 12,-15 12,-16 -4,-10 -28,11 -18,-35 11,-48 12,-5 22,-14 22,-20 0,-5 4,-3 10,5 5,9 5,19 -2,27 -7,9 -7,13 1,13 6,0 11,12 11,26 0,22 -3,24 -22,18 -20,-6 -21,-5 -10,9 8,9 9,18 4,21 -6,3 -15,-1 -22,-9 z m 10,-65 c 0,-5 -2,-10 -4,-10 -3,0 -8,5 -11,10 -3,6 -1,10 4,10 6,0 11,-4 11,-10 z"
       id="path114"
       inkscape:connector-curvature="0" />
    <path
       d="m 290,776 c 0,-2 7,-7 16,-10 8,-3 12,-2 9,4 -6,10 -25,14 -25,6 z"
       id="path116"
       inkscape:connector-curvature="0" />
    <path
       d="m 183,753 c -7,-3 -13,-12 -13,-21 0,-15 2,-15 17,1 18,18 16,27 -4,20 z"
       id="path118"
       inkscape:connector-curvature="0" />
    <path
       d="m 1940,730 c -12,-16 -19,-30 -16,-30 2,0 14,14 26,30 12,17 19,30 16,30 -2,0 -14,-13 -26,-30 z"
       id="path120"
       inkscape:connector-curvature="0" />
    <path
       d="m 2085,750 c -11,-5 -15,-9 -10,-10 6,-1 0,-5 -12,-10 -13,-5 -23,-14 -23,-20 0,-6 12,-4 30,5 16,8 36,15 45,15 9,0 15,5 13,12 -6,16 -19,18 -43,8 z"
       id="path122"
       inkscape:connector-curvature="0" />
    <path
       d="m 2137,699 c 4,-13 8,-18 11,-10 2,7 -1,18 -6,23 -8,8 -9,4 -5,-13 z"
       id="path124"
       inkscape:connector-curvature="0" />
    <path
       d="m 466,696 c 3,-8 12,-12 21,-9 12,5 12,7 1,14 -20,13 -28,11 -22,-5 z"
       id="path126"
       inkscape:connector-curvature="0" />
    <path
       d="m 2077,698 c 4,-7 8,-22 10,-33 1,-11 -1,-14 -3,-7 -8,17 -25,15 -18,-2 6,-15 -52,-53 -64,-42 -3,3 0,6 7,6 7,0 9,5 6,11 -7,10 30,49 47,49 5,0 6,5 2,11 -4,8 -9,7 -15,-2 -7,-11 -9,-11 -9,-1 0,7 -5,10 -10,7 -6,-4 -8,-11 -5,-16 5,-8 -6,-13 -25,-11 -3,0 -5,-17 -5,-38 0,-21 -3,-36 -7,-34 -5,3 -8,-1 -8,-10 0,-8 -3,-21 -6,-30 -7,-18 4,-20 26,-5 11,8 12,12 3,15 -10,4 -10,8 0,19 7,7 15,11 20,8 4,-2 7,1 7,7 0,6 5,8 10,5 6,-3 10,-1 10,5 0,6 5,8 12,4 7,-4 22,-9 35,-10 21,-2 21,-1 8,12 -19,20 -19,25 2,17 10,-4 14,-2 10,4 -4,6 -3,23 3,38 9,24 8,26 -11,20 -15,-5 -19,-4 -15,4 4,6 0,11 -9,11 -10,0 -13,-4 -8,-12 z"
       id="path128"
       inkscape:connector-curvature="0" />
    <path
       d="m 1935,692 c -3,-3 -5,-10 -5,-16 0,-6 5,-4 10,4 9,13 10,13 10,0 0,-8 -5,-22 -10,-30 -9,-13 -10,-13 -10,0 0,13 -1,13 -10,0 -5,-8 -9,-22 -9,-30 0,-10 3,-8 9,5 9,20 9,20 10,0 1,-16 4,-14 12,9 7,18 13,24 18,16 5,-8 9,-7 13,5 5,10 3,14 -5,9 -7,-5 -9,-1 -6,13 5,18 -13,28 -27,15 z"
       id="path130"
       inkscape:connector-curvature="0" />
    <path
       d="m 1806,675 c -3,-9 0,-15 9,-15 9,0 12,6 9,15 -4,8 -7,15 -9,15 -2,0 -5,-7 -9,-15 z"
       id="path132"
       inkscape:connector-curvature="0" />
    <path
       d="m 1906,675 c -9,-26 -7,-32 5,-12 6,10 9,21 6,23 -2,3 -7,-2 -11,-11 z"
       id="path134"
       inkscape:connector-curvature="0" />
    <path
       d="m 2034,645 c -10,-8 -14,-14 -9,-15 15,0 40,18 34,24 -3,3 -14,-1 -25,-9 z"
       id="path136"
       inkscape:connector-curvature="0" />
    <path
       d="m 1976,635 c -9,-26 -7,-32 5,-12 6,10 9,21 6,23 -2,3 -7,-2 -11,-11 z"
       id="path138"
       inkscape:connector-curvature="0" />
    <path
       d="m 2141,634 c 0,-11 3,-14 6,-6 3,7 2,16 -1,19 -3,4 -6,-2 -5,-13 z"
       id="path140"
       inkscape:connector-curvature="0" />
    <path
       d="m 1886,608 c -9,-59 -13,-150 -6,-136 7,13 20,168 14,168 -2,0 -5,-15 -8,-32 z"
       id="path142"
       inkscape:connector-curvature="0" />
    <path
       d="m 770,600 c 8,-5 22,-9 30,-9 10,0 8,3 -5,9 -27,12 -43,12 -25,0 z"
       id="path144"
       inkscape:connector-curvature="0" />
    <path
       d="m 1902,543 c -1,-34 -5,-70 -8,-80 -5,-17 -5,-17 6,-1 6,10 9,45 7,80 l -3,63 -2,-62 z"
       id="path146"
       inkscape:connector-curvature="0" />
    <path
       d="m 1922,570 c 0,-19 2,-27 5,-17 2,9 2,25 0,35 -3,9 -5,1 -5,-18 z"
       id="path148"
       inkscape:connector-curvature="0" />
    <path
       d="m 1943,565 c 0,-22 2,-30 4,-17 2,12 2,30 0,40 -3,9 -5,-1 -4,-23 z"
       id="path150"
       inkscape:connector-curvature="0" />
    <path
       d="m 2034,587 c -12,-7 -19,-18 -17,-24 3,-7 -7,-18 -21,-24 -18,-9 -26,-20 -26,-38 0,-35 9,-46 49,-59 45,-16 48,-15 25,7 -10,10 -24,16 -30,14 -6,-2 -17,3 -24,12 -15,18 0,20 19,3 11,-11 13,-10 7,5 -16,43 -18,52 -9,40 6,-8 14,-9 23,-3 13,9 13,10 0,10 -9,0 -4,8 13,18 15,9 27,20 27,24 0,4 7,5 15,2 10,-4 13,-2 10,8 -7,18 -34,20 -61,5 z m 16,-17 c -8,-5 -17,-7 -19,-4 -3,3 1,9 9,14 8,5 17,7 19,4 3,-3 -1,-9 -9,-14 z"
       id="path152"
       inkscape:connector-curvature="0" />
    <path
       d="m 2127,583 c -3,-10 -10,-33 -16,-52 -6,-19 -7,-30 -2,-25 12,12 34,84 28,90 -2,3 -7,-3 -10,-13 z"
       id="path154"
       inkscape:connector-curvature="0" />
    <path
       d="m 1862,560 c 0,-14 2,-19 5,-12 2,6 2,18 0,25 -3,6 -5,1 -5,-13 z"
       id="path156"
       inkscape:connector-curvature="0" />
    <path
       d="m 2440,573 c 0,-8 52,-26 153,-52 22,-6 37,-6 37,0 0,5 -9,9 -20,9 -11,0 -37,7 -58,16 -20,10 -46,18 -57,19 -11,2 -28,6 -37,10 -10,4 -18,3 -18,-2 z"
       id="path158"
       inkscape:connector-curvature="0" />
    <path
       d="m 920,550 c 8,-5 20,-10 25,-10 6,0 3,5 -5,10 -8,5 -19,10 -25,10 -5,0 -3,-5 5,-10 z"
       id="path160"
       inkscape:connector-curvature="0" />
    <path
       d="m 2054,545 c -11,-8 -14,-15 -6,-15 6,0 12,-5 12,-11 0,-5 -4,-7 -10,-4 -5,3 -10,1 -10,-5 0,-6 -4,-8 -10,-5 -16,10 -12,-11 5,-25 13,-11 14,-10 9,4 -4,12 -2,15 9,10 12,-4 15,1 13,20 -3,23 0,26 18,21 12,-4 17,-3 11,2 -5,5 -13,12 -16,16 -3,4 -14,0 -25,-8 z"
       id="path162"
       inkscape:connector-curvature="0" />
    <path
       d="m 1862,510 c 0,-14 2,-19 5,-12 2,6 2,18 0,25 -3,6 -5,1 -5,-13 z"
       id="path164"
       inkscape:connector-curvature="0" />
    <path
       d="m 1685,510 c 3,-5 8,-10 11,-10 2,0 4,5 4,10 0,6 -5,10 -11,10 -5,0 -7,-4 -4,-10 z"
       id="path166"
       inkscape:connector-curvature="0" />
    <path
       d="m 1921,498 c 0,-14 -4,-35 -7,-45 -5,-17 -5,-17 6,0 6,10 9,30 7,45 l -4,27 -2,-27 z"
       id="path168"
       inkscape:connector-curvature="0" />
    <path
       d="m 1250,498 c 0,-9 5,-20 10,-23 13,-8 13,5 0,25 -8,13 -10,13 -10,-2 z"
       id="path170"
       inkscape:connector-curvature="0" />
    <path
       d="m 1358,502 c -1,-4 -21,-15 -43,-23 -66,-24 -57,-82 10,-65 14,4 25,11 25,17 0,6 -4,7 -10,4 -5,-3 -10,-1 -10,4 0,6 -4,11 -10,11 -5,0 -10,-8 -10,-17 0,-15 -2,-16 -10,-3 -15,23 -12,30 10,30 11,0 20,4 20,8 0,4 16,6 35,4 23,-3 36,-11 40,-23 4,-10 15,-19 25,-19 10,0 22,-5 25,-10 4,-6 11,-8 16,-5 16,11 9,23 -17,29 -15,4 -38,20 -53,37 -26,30 -37,35 -43,21 z"
       id="path172"
       inkscape:connector-curvature="0" />
    <path
       d="m 1939,478 c -3,-20 -1,-34 3,-32 4,3 8,0 8,-7 0,-7 2,-10 4,-8 2,2 1,22 -3,44 l -7,40 -5,-37 z"
       id="path174"
       inkscape:connector-curvature="0" />
    <path
       d="m 1515,460 c 3,-5 8,-10 11,-10 2,0 4,5 4,10 0,6 -5,10 -11,10 -5,0 -7,-4 -4,-10 z"
       id="path176"
       inkscape:connector-curvature="0" />
    <path
       d="m 1435,410 c -3,-5 -1,-10 4,-10 6,0 11,5 11,10 0,6 -2,10 -4,10 -3,0 -8,-4 -11,-10 z"
       id="path178"
       inkscape:connector-curvature="0" />
    <path
       d="m 1843,365 c 0,-8 4,-12 9,-9 4,3 8,0 8,-6 0,-6 5,-8 10,-5 8,5 7,11 -1,21 -15,18 -26,18 -26,-1 z"
       id="path180"
       inkscape:connector-curvature="0" />
    <path
       d="m 1500,354 c 0,-7 71,-36 76,-31 2,2 -14,11 -36,20 -22,8 -40,13 -40,11 z"
       id="path182"
       inkscape:connector-curvature="0" />
    <path
       d="m 1676,332 c -3,-6 -1,-14 5,-17 14,-9 20,-2 10,14 -6,8 -11,9 -15,3 z"
       id="path184"
       inkscape:connector-curvature="0" />
  </g>
</svg>
