<?xml version="1.0" standalone="no"?>
<!DOCTYPE svg PUBLIC "-//W3C//DTD SVG 20010904//EN"
 "http://www.w3.org/TR/2001/REC-SVG-20010904/DTD/svg10.dtd">
<svg version="1.0" xmlns="http://www.w3.org/2000/svg"
 width="900.000000pt" height="495.000000pt" viewBox="0 0 900.000000 495.000000"
 preserveAspectRatio="xMidYMid meet">
<metadata>
Created by potrace 1.10, written by Peter Selinger 2001-2011
</metadata>
<g transform="translate(0.000000,495.000000) scale(0.100000,-0.100000)"
fill="#000000" stroke="none">
<path d="M1487 3992 c-15 -9 -30 -28 -33 -42 -14 -72 -16 -74 -80 -86 -62 -11
-124 -45 -124 -68 0 -7 -18 -29 -40 -49 -41 -36 -48 -51 -30 -62 15 -9 12 -61
-5 -75 -8 -7 -15 -19 -15 -27 0 -8 -6 -27 -13 -41 -18 -35 -40 -86 -62 -142
-18 -45 -30 -74 -58 -140 -9 -19 -30 -71 -47 -115 -18 -44 -38 -93 -45 -110
-7 -16 -28 -66 -45 -110 -17 -44 -37 -93 -45 -110 -7 -16 -20 -50 -30 -75 -22
-56 -44 -107 -62 -142 -7 -14 -13 -32 -13 -39 0 -7 -6 -20 -14 -28 -25 -29
-29 -75 -7 -95 25 -23 213 -45 386 -46 72 0 182 -5 245 -11 63 -5 192 -11 287
-13 96 -1 177 -7 185 -12 36 -28 103 -54 138 -54 44 0 110 34 110 57 0 14 -11
15 -75 10 l-75 -7 0 44 c0 35 -4 46 -19 51 -25 8 -49 -3 -56 -26 -9 -29 -40
-42 -55 -24 -7 8 -21 15 -31 15 -11 0 -28 6 -39 12 -16 10 -24 10 -40 1 -17
-11 -21 -10 -31 10 -7 12 -19 27 -28 34 -13 9 -15 27 -13 86 2 57 -1 77 -13
87 -11 9 -15 32 -15 84 0 74 -11 113 -24 81 -13 -34 -7 -152 9 -165 9 -8 15
-29 15 -56 0 -39 -2 -43 -27 -46 -41 -4 -43 -36 -4 -44 40 -8 67 -48 53 -79
-10 -22 -11 -22 -64 -8 -36 10 -148 18 -358 24 -168 6 -316 12 -329 15 -21 5
-23 9 -19 47 5 37 67 203 118 312 10 22 31 72 45 110 15 39 40 102 55 140 52
130 78 199 121 325 23 70 52 136 65 151 28 30 33 96 9 105 -24 10 -18 34 8 34
28 0 52 41 35 58 -21 21 17 24 81 7 33 -8 72 -13 86 -9 18 4 32 1 45 -11 12
-11 28 -15 43 -11 13 3 38 2 55 -3 25 -8 36 -6 56 10 13 10 28 19 34 19 16 0
72 -31 72 -40 0 -20 49 -33 152 -41 60 -4 116 -13 124 -20 11 -9 18 -8 34 6
17 15 42 17 217 17 256 -1 864 -19 1110 -33 116 -7 226 -8 280 -3 86 8 83 9
-137 20 -124 7 -247 17 -275 23 -27 5 -99 10 -160 10 -60 1 -150 8 -200 16
-49 8 -122 15 -161 15 -39 0 -97 5 -129 11 -32 6 -101 14 -154 19 -118 11
-233 27 -329 46 -40 8 -89 14 -110 14 -20 0 -59 7 -86 15 -27 8 -66 15 -86 15
-21 0 -57 7 -81 15 -24 9 -56 13 -72 9 -17 -3 -36 0 -50 9 -12 7 -50 16 -85
20 -62 5 -112 31 -94 49 4 4 46 3 92 -2 47 -5 91 -10 98 -10 17 0 54 39 47 51
-24 38 -168 52 -218 21z m70 -140 c15 -10 26 -74 14 -91 -7 -12 -14 -10 -40
10 -40 32 -49 59 -25 76 20 15 34 16 51 5z"/>
<path d="M7049 3813 c-17 -7 -45 -13 -61 -13 -16 0 -57 -7 -91 -15 -82 -19
-173 -34 -280 -45 -49 -6 -97 -15 -107 -20 -10 -6 -40 -10 -67 -10 -26 0 -66
-5 -88 -11 -54 -13 -370 -37 -642 -49 -123 -5 -294 -13 -380 -19 -306 -20
-363 -20 -374 0 -5 10 -7 30 -3 44 4 18 1 32 -11 45 -15 17 -31 20 -101 20
-73 0 -86 -3 -104 -22 -40 -44 -17 -68 42 -44 20 9 50 13 69 10 37 -6 86 -40
75 -51 -4 -4 -54 -7 -111 -6 -112 1 -133 -7 -120 -47 6 -18 14 -20 108 -20 56
0 112 -3 124 -6 13 -4 28 1 40 13 17 17 29 18 103 12 47 -3 243 -7 435 -8 193
-1 375 -4 405 -6 120 -9 697 -5 750 5 30 5 86 15 124 20 38 5 85 14 105 20 20
5 48 10 64 10 24 0 27 4 27 31 0 27 3 30 28 27 17 -2 27 -9 27 -20 0 -25 13
-32 31 -17 9 7 43 14 76 15 32 2 65 7 71 12 7 5 28 15 47 22 86 34 112 78 69
121 -18 18 -30 20 -135 18 -65 -2 -128 -9 -145 -16z m-354 -143 c18 -7 33 -7
46 1 22 11 63 3 54 -12 -4 -5 -19 -9 -36 -9 -16 0 -38 -5 -49 -12 -15 -10 -26
-10 -53 0 -18 7 -46 12 -62 12 -39 0 -20 17 25 23 19 2 38 5 42 5 4 1 19 -3
33 -8z m-135 -30 c0 -5 -7 -10 -15 -10 -8 0 -15 5 -15 10 0 6 7 10 15 10 8 0
15 -4 15 -10z"/>
<path d="M1356 3696 c-45 -14 -57 -31 -26 -39 18 -5 20 -13 20 -84 l0 -78 20
25 c11 14 20 39 20 56 0 19 6 34 15 38 25 9 17 23 -16 30 -36 7 -37 39 -1 44
12 2 22 8 22 13 0 11 -3 10 -54 -5z"/>
<path d="M1520 3662 c0 -15 4 -32 9 -37 4 -6 18 -39 29 -73 15 -45 46 -97 105
-175 112 -150 120 -164 115 -198 -3 -22 -1 -29 12 -29 23 0 40 20 40 50 0 30
-24 76 -95 185 -29 44 -63 100 -75 125 -38 75 -111 180 -126 180 -9 0 -14 -10
-14 -28z"/>
<path d="M7317 3672 c-21 -23 -10 -75 43 -187 22 -47 40 -89 40 -94 0 -4 20
-49 45 -99 25 -50 45 -93 45 -96 0 -3 15 -38 34 -78 19 -40 45 -100 59 -133
43 -104 93 -217 130 -295 53 -114 76 -167 113 -260 19 -47 39 -94 43 -105 39
-86 34 -121 -13 -109 -38 10 -84 10 -311 0 -199 -9 -189 -9 -400 -6 l-150 2
-23 49 c-12 28 -27 47 -32 44 -20 -12 -22 -73 -4 -114 l18 -41 125 0 c69 -1
158 -5 196 -10 103 -14 496 -24 597 -16 105 9 151 33 156 82 2 19 -3 36 -12
44 -9 7 -16 20 -16 30 0 10 -7 23 -15 30 -8 7 -15 20 -15 29 0 10 -7 26 -15
37 -8 10 -15 29 -15 40 0 12 -7 27 -15 34 -8 7 -15 19 -15 27 0 8 -6 27 -13
41 -13 25 -23 47 -61 137 -9 20 -22 51 -30 70 -9 20 -22 51 -30 70 -9 20 -22
51 -30 70 -9 20 -22 50 -29 68 -7 17 -21 48 -30 67 -8 19 -23 53 -32 75 -9 22
-23 54 -30 70 -7 17 -20 46 -29 65 -8 19 -24 56 -35 82 -12 26 -21 52 -21 57
0 6 -4 11 -10 11 -5 0 -10 7 -10 16 0 9 -7 28 -14 42 -8 15 -22 45 -31 67 -32
77 -98 205 -105 205 -5 0 -11 -6 -13 -12 -4 -10 -6 -10 -6 0 -1 17 -15 15 -34
-6z"/>
<path d="M2238 3614 c-14 -13 3 -24 36 -24 19 0 51 -6 72 -13 22 -8 91 -17
154 -21 63 -4 135 -11 160 -16 25 -5 74 -9 110 -10 36 0 120 -7 185 -15 66 -8
163 -15 215 -16 52 0 133 -4 180 -10 79 -8 362 -18 1055 -35 244 -6 282 -5
293 8 10 13 32 14 130 10 147 -6 154 -9 150 -70 -3 -45 -4 -47 -31 -45 -16 1
-39 -2 -53 -7 -22 -9 -23 -12 -12 -37 16 -38 16 -37 32 -24 24 20 52 -3 71
-56 9 -27 21 -56 26 -65 5 -9 12 -36 15 -60 4 -24 10 -50 14 -58 11 -19 -15
-67 -37 -73 -17 -4 -17 -5 1 -12 15 -6 27 0 53 28 34 37 40 63 24 95 -5 9 -14
48 -21 86 -9 56 -9 71 2 77 7 5 130 8 273 7 208 -1 267 -5 295 -17 29 -12 88
-15 360 -13 179 1 334 6 345 9 41 14 -82 21 -388 22 -221 1 -315 4 -330 13
-15 8 -88 13 -217 15 -107 1 -204 3 -215 3 -11 0 -38 -2 -60 -5 -22 -3 -60 0
-85 7 l-45 14 0 68 c-1 51 3 69 15 76 8 4 175 11 370 15 195 3 396 11 445 16
73 8 232 22 340 29 20 1 20 1 0 10 -23 10 -442 12 -1320 6 -55 -1 -176 7 -270
16 -114 12 -269 18 -470 19 -165 1 -392 5 -505 10 -113 5 -340 11 -505 14
-265 6 -568 18 -780 32 -39 2 -73 1 -77 -3z"/>
<path d="M4340 3611 l-125 -6 109 -7 c155 -11 334 -10 341 2 4 6 -6 10 -23 10
-16 0 -62 2 -103 4 -41 2 -130 0 -199 -3z"/>
<path d="M7195 3575 c-4 -16 -13 -37 -20 -45 -6 -8 -15 -23 -18 -32 -4 -12
-17 -18 -35 -18 -34 0 -61 -24 -41 -36 7 -4 26 -10 43 -13 20 -5 32 -14 34
-26 12 -74 32 -46 32 44 0 42 5 70 15 81 10 11 12 24 6 45 l-8 30 -8 -30z"/>
<path d="M1837 3463 c-3 -5 -1 -18 4 -30 11 -30 69 -33 69 -5 0 10 -5 23 -12
30 -13 13 -54 16 -61 5z"/>
<path d="M2475 3441 c-3 -10 -1 -31 5 -47 l11 -29 19 25 c23 29 24 42 8 58
-18 18 -36 15 -43 -7z"/>
<path d="M1300 3425 c0 -16 6 -25 15 -25 8 0 15 -4 15 -10 0 -5 6 -10 14 -10
7 0 19 -7 26 -15 15 -18 30 -19 30 -2 0 16 -72 87 -88 87 -7 0 -12 -11 -12
-25z"/>
<path d="M3123 3423 c-7 -2 -13 -14 -13 -24 0 -16 6 -20 28 -17 19 2 27 9 27
23 0 20 -19 28 -42 18z"/>
<path d="M3766 3401 c-9 -14 4 -41 19 -41 17 0 38 27 30 40 -8 12 -42 13 -49
1z"/>
<path d="M4437 3383 c-4 -4 -5 -21 -1 -38 l6 -32 -271 5 c-275 4 -372 -1 -353
-20 6 -6 118 -9 308 -7 445 3 452 3 460 12 4 4 -22 7 -58 7 -73 0 -85 6 -62
31 25 28 -3 69 -29 42z"/>
<path d="M5174 3355 c-12 -19 -14 -29 -6 -37 17 -17 42 -1 42 26 0 36 -16 41
-36 11z"/>
<path d="M1860 3360 c0 -9 136 -21 273 -25 68 -1 100 2 107 11 8 9 0 13 -37
18 -71 8 -343 5 -343 -4z"/>
<path d="M4687 3363 c-4 -3 -7 -21 -7 -40 0 -25 4 -33 18 -33 10 0 24 -6 31
-12 10 -11 16 -8 32 11 27 33 24 51 -11 58 -17 3 -33 10 -36 14 -6 11 -18 12
-27 2z"/>
<path d="M2284 3345 c25 -19 122 -30 149 -17 19 8 13 11 -38 16 -33 4 -76 8
-95 11 -32 4 -33 3 -16 -10z"/>
<path d="M5751 3351 c-8 -5 -11 -16 -6 -30 8 -27 50 -28 64 -3 17 32 -23 55
-58 33z"/>
<path d="M2732 3340 c-34 -3 -62 -9 -62 -15 0 -6 83 -10 229 -10 202 0 256 4
240 19 -7 7 -340 12 -407 6z"/>
<path d="M6338 3331 c-32 -18 -31 -31 2 -48 28 -14 50 -2 50 27 0 30 -22 39
-52 21z"/>
<path d="M1314 3316 c-8 -32 -2 -58 14 -64 8 -2 12 9 12 37 0 46 -16 64 -26
27z"/>
<path d="M3191 3331 c-21 -13 6 -17 112 -13 59 2 86 7 76 13 -18 11 -170 11
-188 0z"/>
<path d="M3405 3330 c-3 -5 3 -10 14 -10 12 0 21 5 21 10 0 6 -6 10 -14 10 -8
0 -18 -4 -21 -10z"/>
<path d="M3470 3330 c0 -5 14 -10 30 -10 17 0 30 5 30 10 0 6 -13 10 -30 10
-16 0 -30 -4 -30 -10z"/>
<path d="M6914 3305 c-9 -23 3 -45 24 -45 23 0 42 19 42 42 0 23 -58 26 -66 3z"/>
<path d="M7138 3313 c-2 -5 -1 -24 3 -43 l6 -35 2 43 c1 39 -3 52 -11 35z"/>
<path d="M4783 3273 c-28 -19 -29 -33 -2 -62 27 -29 43 -23 50 23 7 45 -13 62
-48 39z"/>
<path d="M6405 3240 c3 -5 31 -10 61 -10 34 0 53 4 49 10 -3 6 -31 10 -61 10
-34 0 -53 -4 -49 -10z"/>
<path d="M1433 3233 c-15 -5 -17 -41 -4 -62 12 -18 41 -7 41 17 0 24 -22 51
-37 45z"/>
<path d="M1340 3205 c0 -14 5 -25 10 -25 6 0 10 11 10 25 0 14 -4 25 -10 25
-5 0 -10 -11 -10 -25z"/>
<path d="M6556 3221 c-3 -5 13 -11 36 -15 60 -10 493 -5 509 5 18 11 37 10
-278 15 -144 2 -265 0 -267 -5z"/>
<path d="M7172 3212 c-28 -22 -20 -52 14 -52 26 0 44 24 37 51 -7 24 -21 24
-51 1z"/>
<path d="M1687 3193 c-13 -12 -7 -23 13 -23 11 0 20 7 20 15 0 15 -21 21 -33
8z"/>
<path d="M1490 3127 c0 -8 -11 -19 -25 -25 -31 -14 -35 -47 -5 -39 13 3 25 -2
35 -16 15 -21 15 -20 15 13 0 19 3 45 6 58 5 16 2 22 -10 22 -9 0 -16 -6 -16
-13z"/>
<path d="M2511 3126 c-7 -8 -11 -30 -9 -48 2 -26 8 -34 27 -36 45 -7 71 6 71
36 0 48 -62 81 -89 48z"/>
<path d="M1544 3107 c-7 -20 14 -59 29 -54 20 6 15 61 -6 65 -9 2 -20 -3 -23
-11z"/>
<path d="M1609 3093 c-13 -35 -3 -42 54 -36 38 5 47 9 47 25 0 26 -30 35 -45
14 -12 -15 -13 -15 -18 4 -7 28 -26 25 -38 -7z"/>
<path d="M1730 3089 c0 -24 23 -21 28 4 2 10 -3 17 -12 17 -10 0 -16 -9 -16
-21z"/>
<path d="M1790 3085 c0 -16 6 -25 15 -25 9 0 15 9 15 25 0 16 -6 25 -15 25 -9
0 -15 -9 -15 -25z"/>
<path d="M1852 3083 c3 -26 6 -28 53 -29 28 -1 58 -5 67 -9 22 -9 38 1 38 26
0 25 -25 35 -45 19 -12 -10 -16 -9 -21 4 -8 21 -30 20 -39 -1 -6 -17 -7 -17
-19 0 -20 26 -38 21 -34 -10z"/>
<path d="M4550 3059 c0 -11 5 -17 10 -14 6 3 10 13 10 21 0 8 -4 14 -10 14 -5
0 -10 -9 -10 -21z"/>
<path d="M4658 3062 c-32 -19 -35 -30 -12 -39 15 -6 54 27 54 47 0 13 -9 12
-42 -8z"/>
<path d="M4950 3064 c0 -16 23 -44 35 -44 16 0 18 9 9 34 -6 15 -44 24 -44 10z"/>
<path d="M7113 3035 c0 -22 2 -30 4 -17 2 12 2 30 0 40 -3 9 -5 -1 -4 -23z"/>
<path d="M2649 3026 c-27 -13 -35 -45 -19 -75 16 -31 82 -29 99 3 24 45 -33
96 -80 72z"/>
<path d="M1718 3019 c-20 -11 -23 -41 -8 -70 8 -15 22 -19 60 -19 l50 0 0 34
c0 53 -55 83 -102 55z"/>
<path d="M1526 3003 c-8 -8 -8 -126 0 -147 13 -34 24 -2 24 69 0 68 -8 94 -24
78z"/>
<path d="M4640 2970 c0 -6 55 -10 144 -10 86 0 147 4 151 10 4 6 -47 10 -144
10 -94 0 -151 -4 -151 -10z"/>
<path d="M7111 2901 l-24 -19 30 -16 c27 -13 33 -14 43 -1 15 18 9 49 -10 52
-8 2 -26 -6 -39 -16z"/>
<path d="M2570 2895 c-8 -10 -4 -18 19 -34 29 -21 72 -27 167 -23 44 2 52 5
63 29 10 21 9 28 -1 34 -23 15 -63 9 -81 -11 -20 -23 -73 -27 -102 -7 -33 23
-53 26 -65 12z"/>
<path d="M5710 2853 c-14 -3 -29 -8 -34 -13 -13 -12 57 -23 95 -15 l33 7 -25
14 c-25 14 -28 14 -69 7z"/>
<path d="M1694 2835 c-8 -21 14 -45 42 -45 27 0 44 38 23 51 -22 14 -59 10
-65 -6z"/>
<path d="M1485 2819 c-8 -23 7 -45 24 -35 6 4 11 18 11 32 0 30 -26 32 -35 3z"/>
<path d="M2540 2815 c-17 -21 -4 -67 18 -63 22 4 28 51 9 66 -11 10 -17 9 -27
-3z"/>
<path d="M2660 2805 c-16 -19 -9 -49 13 -53 13 -3 17 3 17 27 0 35 -13 47 -30
26z"/>
<path d="M2600 2780 c0 -19 5 -30 14 -30 17 0 28 24 20 45 -11 27 -34 17 -34
-15z"/>
<path d="M2726 2803 c-3 -4 -6 -17 -6 -30 0 -31 34 -28 38 3 3 21 -20 39 -32
27z"/>
<path d="M2782 2798 c-19 -19 -14 -45 9 -51 44 -12 64 16 33 47 -19 19 -26 20
-42 4z"/>
<path d="M5490 2785 c-33 -36 -20 -69 64 -157 102 -106 152 -118 269 -65 26
12 47 25 47 29 0 5 9 8 19 8 11 0 26 7 35 15 8 8 19 15 25 15 16 0 28 31 33
88 5 46 2 55 -16 67 -31 20 -77 16 -111 -9 -47 -35 -94 -55 -144 -62 -43 -5
-49 -4 -63 18 -9 14 -18 35 -20 48 -3 22 -8 25 -60 26 -47 2 -60 -2 -78 -21z
m350 -154 c0 -20 -48 -36 -64 -21 -17 17 3 40 34 40 23 0 30 -5 30 -19z"/>
<path d="M6320 2767 c0 -8 11 -19 25 -25 21 -10 27 -9 31 3 3 8 3 19 -1 25 -9
15 -55 12 -55 -3z"/>
<path d="M7053 2740 c0 -25 2 -35 4 -22 2 12 2 32 0 45 -2 12 -4 2 -4 -23z"/>
<path d="M2102 2708 c-19 -19 -15 -66 7 -78 44 -23 101 -9 101 26 0 49 -75 85
-108 52z"/>
<path d="M3883 2702 c-12 -9 -23 -28 -25 -42 -3 -22 1 -25 31 -28 33 -3 34 -2
28 26 -4 20 -2 31 6 34 7 2 92 3 190 3 l179 0 30 -34 c28 -32 30 -38 24 -89
-4 -30 -15 -66 -24 -81 -10 -14 -24 -42 -32 -61 -28 -77 -84 -186 -102 -199
-30 -21 -42 -61 -23 -81 14 -15 13 -19 -5 -43 -37 -47 -157 -58 -202 -19 -36
31 -17 52 49 52 26 0 48 10 79 35 23 19 49 35 58 35 21 0 20 10 -1 25 -16 12
-16 15 -2 32 24 26 32 60 24 99 -6 37 -20 45 -29 17 -3 -10 -22 -29 -41 -42
-43 -29 -54 -64 -30 -91 13 -15 15 -25 8 -47 l-10 -28 -12 23 c-14 26 -68 31
-77 7 -4 -8 -10 -15 -15 -15 -13 0 -11 84 2 97 14 14 3 47 -12 37 -6 -3 -24 8
-41 26 -25 28 -28 37 -19 57 6 12 19 23 30 23 22 0 45 25 37 39 -4 5 -22 15
-42 21 -30 10 -38 9 -55 -6 -11 -10 -19 -30 -19 -49 0 -17 -6 -40 -14 -50 -12
-17 -16 -17 -31 -5 -30 25 -114 32 -530 44 -126 4 -270 11 -320 16 -73 7 -291
13 -415 11 -80 -1 -95 -2 -104 -10 -22 -18 -184 -55 -256 -59 -41 -2 -79 -7
-83 -11 -9 -9 12 -61 24 -61 4 0 11 5 14 10 9 15 41 12 55 -5 17 -21 37 -19
68 6 23 17 35 20 79 14 50 -6 52 -5 70 26 l18 31 130 -6 c72 -3 198 -10 280
-15 83 -6 229 -10 325 -10 96 -1 214 -6 262 -11 48 -6 164 -12 257 -14 94 -3
175 -7 180 -10 5 -4 13 -31 16 -61 4 -31 11 -58 16 -61 5 -3 9 -20 9 -38 0
-17 5 -37 12 -44 7 -7 17 -26 22 -44 18 -53 52 -70 152 -75 85 -4 91 -2 129
25 48 33 54 61 24 101 -22 31 -23 31 -3 53 26 31 54 83 54 101 0 8 6 17 13 19
12 5 434 -6 682 -18 l140 -6 26 -31 c24 -29 29 -30 53 -19 14 6 26 18 26 27 0
19 -2 18 155 15 137 -3 143 -4 165 -57 5 -12 28 -32 52 -44 34 -18 54 -21 107
-17 37 3 84 14 106 25 35 18 50 19 120 12 106 -10 382 -11 389 -1 3 5 2 30 -2
58 -6 40 -11 50 -29 52 -14 2 -23 -3 -28 -18 -6 -20 -10 -20 -185 -14 -135 5
-190 4 -226 -6 -46 -13 -48 -13 -71 14 -26 30 -86 46 -98 26 -4 -7 -2 -16 4
-20 13 -7 33 -81 26 -89 -8 -7 -55 49 -55 65 0 19 -19 18 -27 -2 -4 -12 -15
-6 -50 28 l-44 43 -135 -3 c-74 -1 -151 -8 -172 -15 -33 -11 -47 -10 -142 20
-129 40 -142 42 -415 47 -126 3 -232 9 -249 15 -16 7 -37 9 -47 6 -23 -8 -25
8 -4 25 8 7 15 21 15 31 0 10 5 21 10 24 14 9 13 119 -2 167 -21 72 -35 76
-273 77 -186 1 -213 -1 -232 -17z"/>
<path d="M1792 2673 l3 -28 103 0 c98 -1 102 0 102 21 0 19 -7 22 -72 26 -58
5 -75 3 -84 -10 -10 -13 -11 -13 -17 2 -4 9 -14 16 -22 16 -12 0 -15 -8 -13
-27z"/>
<path d="M2023 2674 c-7 -18 11 -39 26 -30 17 11 13 46 -4 46 -9 0 -18 -7 -22
-16z"/>
<path d="M4250 2645 c0 -15 38 -41 47 -32 2 3 0 15 -7 26 -12 24 -40 28 -40 6z"/>
<path d="M4072 2579 c3 -56 -9 -71 -36 -44 -21 21 -36 11 -36 -25 0 -54 7 -60
70 -60 70 0 82 12 86 84 3 48 1 55 -26 74 -49 36 -61 30 -58 -29z"/>
<path d="M5147 2623 c-4 -3 -7 -19 -7 -34 0 -16 -13 -48 -29 -71 -16 -24 -32
-62 -36 -84 -8 -53 -1 -56 135 -56 58 1 119 -4 136 -9 26 -8 37 -6 65 13 l34
22 3 99 c3 91 2 98 -15 95 -13 -3 -18 -13 -18 -38 0 -19 -4 -35 -10 -35 -6 0
-9 19 -7 42 3 48 -10 61 -44 42 -29 -15 -30 -34 -4 -74 22 -33 27 -75 8 -75
-6 0 -21 9 -33 20 -18 17 -25 18 -58 8 -28 -9 -40 -9 -49 0 -9 9 -16 8 -30 -5
-14 -13 -20 -13 -33 -3 -21 18 -19 29 9 36 19 4 25 14 30 51 3 25 3 49 0 54
-6 11 -38 12 -47 2z"/>
<path d="M7067 2623 c-13 -12 -7 -54 8 -59 21 -9 45 14 45 42 0 18 -5 24 -23
24 -13 0 -27 -3 -30 -7z"/>
<path d="M5270 2590 c0 -11 6 -20 13 -20 19 0 27 10 20 26 -8 21 -33 17 -33
-6z"/>
<path d="M6150 2545 c-36 -43 32 -73 119 -51 37 9 47 16 49 34 5 33 -30 26
-39 -8 l-6 -25 -11 28 c-13 30 -22 33 -40 15 -9 -9 -13 -7 -18 5 -8 21 -37 22
-54 2z"/>
<path d="M6351 2536 c-16 -19 -10 -51 8 -51 20 0 33 41 17 54 -10 8 -17 7 -25
-3z"/>
<path d="M3800 2511 c0 -27 15 -49 26 -39 7 8 -8 68 -17 68 -5 0 -9 -13 -9
-29z"/>
<path d="M6427 2522 c-10 -10 -17 -28 -17 -40 0 -11 -4 -24 -10 -27 -5 -3 -10
-14 -10 -25 0 -30 40 -13 47 21 3 16 12 34 19 40 18 15 18 49 1 49 -8 0 -21
-8 -30 -18z"/>
<path d="M6545 2520 c-10 -11 -15 -26 -11 -36 6 -15 9 -14 31 6 27 26 33 50
12 50 -8 0 -22 -9 -32 -20z"/>
<path d="M6618 2515 c-8 -18 -8 -29 -1 -36 16 -16 33 -2 33 26 0 34 -18 40
-32 10z"/>
<path d="M6687 2534 c-4 -4 -7 -18 -7 -31 0 -28 23 -27 28 1 4 20 -11 40 -21
30z"/>
<path d="M6882 2511 c-26 -19 -20 -31 15 -31 16 0 23 6 23 19 0 28 -12 32 -38
12z"/>
<path d="M6746 2511 c-3 -5 -3 -16 0 -25 4 -12 11 -13 24 -6 10 6 25 7 33 4
16 -6 33 11 20 19 -20 12 -72 17 -77 8z"/>
<path d="M6951 2511 c-9 -6 -11 -18 -8 -33 9 -36 -5 -51 -42 -43 -28 6 -31 4
-31 -18 0 -13 -3 -39 -6 -56 -5 -25 -3 -31 11 -31 13 0 16 6 13 25 -6 31 4 38
55 39 l39 1 1 59 c2 59 -6 73 -32 57z"/>
<path d="M6470 2435 c0 -20 4 -26 18 -23 9 2 17 12 17 23 0 11 -8 21 -17 23
-14 3 -18 -3 -18 -23z"/>
<path d="M6804 2447 c-7 -20 -2 -47 11 -50 14 -3 19 43 6 56 -7 7 -12 6 -17
-6z"/>
<path d="M6537 2444 c-4 -4 -7 -18 -7 -31 0 -28 23 -27 28 1 4 20 -11 40 -21
30z"/>
<path d="M6596 2442 c-4 -7 -2 -87 3 -111 1 -3 10 5 21 17 22 23 26 42 10 42
-5 0 -10 11 -10 24 0 26 -15 43 -24 28z"/>
<path d="M6710 2432 c0 -5 8 -19 19 -30 12 -14 16 -31 13 -48 -4 -20 -1 -25 9
-22 16 6 14 75 -3 95 -12 15 -38 17 -38 5z"/>
<path d="M4010 2410 c-17 -31 -11 -49 16 -56 34 -9 47 6 35 38 -13 33 -38 43
-51 18z"/>
<path d="M6682 2368 c-18 -18 -14 -38 8 -38 13 0 20 7 20 19 0 25 -13 34 -28
19z"/>
<path d="M6804 2357 c-3 -9 -3 -21 1 -27 9 -14 -21 -60 -39 -60 -7 0 -32 -18
-55 -41 -23 -22 -48 -38 -54 -36 -7 2 -12 25 -12 57 0 32 -5 55 -12 57 -14 5
-37 -70 -28 -96 7 -23 -17 -43 -47 -39 -19 2 -24 10 -26 40 -2 20 4 51 13 68
26 51 -5 69 -47 27 -51 -51 -90 -52 -100 -2 -2 12 -13 21 -26 23 -21 3 -22 0
-22 -67 0 -85 12 -118 46 -131 21 -8 25 -15 20 -35 -5 -18 -1 -27 13 -35 28
-15 31 -14 47 26 14 32 18 35 52 32 29 -2 38 -8 40 -25 4 -30 46 -37 142 -24
151 21 147 19 153 56 7 42 -8 162 -22 179 -6 7 -9 20 -6 28 3 8 -1 21 -9 28
-13 10 -17 9 -22 -3z"/>
<path d="M6923 2359 c-17 -17 -4 -39 23 -39 28 0 44 28 23 41 -19 12 -33 11
-46 -2z"/>
<path d="M7023 2330 c-24 -10 -27 -18 -15 -37 10 -16 72 5 72 23 0 9 -25 27
-33 23 -1 0 -12 -4 -24 -9z"/>
</g>
</svg>
