<?xml version="1.0" standalone="no"?>
<!DOCTYPE svg PUBLIC "-//W3C//DTD SVG 20010904//EN"
 "http://www.w3.org/TR/2001/REC-SVG-20010904/DTD/svg10.dtd">
<svg version="1.0" xmlns="http://www.w3.org/2000/svg"
 width="200.000000pt" height="200.000000pt" viewBox="0 0 200.000000 200.000000"
 preserveAspectRatio="xMidYMid meet">
<metadata>
Created by potrace 1.10, written by Peter Selinger 2001-2011
</metadata>
<g transform="translate(0.000000,200.000000) scale(0.100000,-0.100000)"
fill="#3f3f3f" stroke="none">
<path d="M865 1829 c-193 -28 -325 -130 -325 -251 0 -38 6 -55 26 -77 16 -18
32 -28 43 -24 12 4 13 3 2 -5 -28 -20 105 -89 237 -122 56 -14 255 -14 301 1
48 14 145 52 151 59 3 3 15 11 28 18 32 18 51 5 115 -77 42 -54 57 -82 67
-129 13 -63 9 -161 -9 -245 -15 -70 -78 -209 -105 -233 -26 -23 -273 -109
-357 -124 -30 -5 -83 -16 -119 -25 -36 -8 -98 -14 -138 -15 -100 0 -180 -24
-188 -55 -7 -28 20 -79 50 -94 44 -22 135 -40 226 -46 52 -3 127 -12 165 -20
99 -20 272 -37 296 -30 12 4 42 4 67 0 44 -7 45 -8 22 -18 -15 -6 -207 -11
-500 -13 -472 -3 -475 -3 -492 -25 -22 -27 -23 -43 -1 -60 15 -13 15 -12 4 9
-13 24 -6 47 10 36 5 -3 8 0 7 7 -2 7 6 15 16 17 17 4 18 -1 14 -43 -6 -46 -5
-46 19 -40 16 4 22 2 18 -5 -8 -13 -46 -13 -81 0 -25 10 -26 9 -13 -7 19 -25
32 -33 49 -32 10 0 8 3 -5 8 -34 13 84 21 387 27 527 9 529 10 599 57 29 19
34 30 37 66 5 65 -8 74 -98 66 -201 -17 -582 12 -679 52 -65 27 -103 55 -92
66 35 35 189 65 421 82 47 4 108 13 136 21 28 7 83 18 123 24 82 11 143 39
167 75 9 14 25 84 36 162 11 76 29 167 40 203 23 73 34 181 24 233 -7 38 -101
163 -143 189 -23 15 -27 23 -24 58 4 56 -36 138 -85 177 -82 64 -219 110 -298
100 -27 -4 -35 -3 -25 4 18 11 -41 10 -126 -2z m98 -6 c-7 -2 -21 -2 -30 0
-10 3 -4 5 12 5 17 0 24 -2 18 -5z m-160 -29 c-23 -9 -64 -26 -90 -40 -37 -19
-41 -23 -18 -19 16 4 50 16 75 27 25 12 54 23 65 25 43 7 215 11 215 5 0 -4
13 -7 29 -8 16 -1 47 -9 68 -18 38 -17 45 -21 110 -57 19 -11 38 -17 42 -15 4
3 15 -4 24 -14 22 -26 49 -80 40 -80 -4 0 -2 -5 4 -11 14 -14 0 -65 -26 -93
-10 -12 -24 -32 -31 -44 -6 -13 -14 -21 -17 -18 -4 3 -12 -3 -20 -13 -7 -11
-43 -30 -80 -43 -59 -20 -87 -23 -203 -23 -114 1 -146 4 -205 24 -99 33 -159
69 -145 86 9 10 6 15 -10 20 -30 10 -59 40 -64 67 -4 28 22 113 48 150 10 15
33 37 51 48 40 25 132 59 160 58 11 0 1 -6 -22 -14z m402 -15 c28 -11 61 -28
75 -39 22 -17 23 -20 6 -20 -10 0 -24 7 -30 15 -6 8 -47 28 -91 45 -44 17 -64
28 -45 24 19 -4 58 -15 85 -25z m212 -312 c12 -11 20 -24 16 -30 -3 -6 -1 -7
5 -3 6 3 21 -8 33 -26 13 -18 31 -39 40 -45 22 -17 49 -161 27 -147 -4 3 -8
15 -8 26 0 11 -9 36 -21 54 -11 19 -18 34 -14 34 4 0 -8 14 -25 31 -17 18 -29
38 -26 46 4 8 1 11 -5 7 -6 -3 -20 3 -32 14 -12 11 -32 22 -45 24 -21 3 -22 4
-7 26 17 23 26 22 62 -11z m43 -716 c0 -16 -41 -61 -68 -75 -35 -18 -132 -31
-132 -18 0 5 17 13 38 17 48 9 115 42 133 66 14 20 29 25 29 10z m-9 -391 c22
-12 24 -28 8 -63 -13 -28 -63 -55 -117 -62 -37 -4 -366 -15 -652 -20 -165 -3
-196 4 -188 42 3 17 19 18 203 21 434 6 507 7 510 4 8 -8 193 -6 187 2 -3 5 5
7 16 4 12 -4 20 -2 17 2 -3 5 2 13 12 19 17 9 17 10 -1 30 -10 11 -28 22 -40
24 -20 4 -20 4 2 6 13 0 32 -4 43 -9z"/>
<path d="M1316 1535 c-3 -9 0 -15 10 -15 8 0 13 4 10 9 -4 5 0 12 6 14 8 4 7
6 -3 6 -9 1 -19 -6 -23 -14z"/>
<path d="M1291 1504 c0 -11 3 -14 6 -6 3 7 2 16 -1 19 -3 4 -6 -2 -5 -13z"/>
<path d="M766 1416 c10 -8 21 -12 24 -10 5 6 -21 24 -34 24 -6 0 -1 -6 10 -14z"/>
<path d="M544 1497 c3 -10 6 -23 6 -28 0 -9 48 -60 93 -96 15 -13 27 -19 27
-14 0 5 -15 21 -32 36 -18 15 -48 48 -67 74 -19 25 -31 38 -27 28z"/>
<path d="M565 1335 c4 -55 9 -162 11 -238 l4 -138 50 -50 c27 -27 52 -49 55
-49 4 0 -15 28 -42 61 -47 60 -48 63 -48 133 0 39 4 80 8 91 6 14 6 16 -1 6
-7 -10 -11 -3 -13 25 -6 56 0 86 14 77 7 -3 3 4 -8 17 -15 17 -16 22 -5 18 11
-4 16 0 16 12 0 11 -6 17 -16 15 -10 -2 -16 4 -17 15 -1 13 3 17 13 13 10 -4
12 0 8 11 -3 9 -10 16 -15 16 -4 0 -6 6 -3 14 3 8 1 23 -6 33 -9 14 -10 -5 -5
-82z"/>
<path d="M1329 1404 c-18 -22 -71 -48 -94 -47 -16 1 -17 1 -2 -3 9 -3 17 -10
17 -15 0 -6 7 -3 16 5 8 9 21 16 28 16 7 0 25 14 41 30 16 17 24 30 18 30 -6
0 -16 -7 -24 -16z"/>
<path d="M1356 1388 c-20 -71 -26 -100 -26 -130 0 -19 -3 -38 -6 -41 -4 -3 -8
-21 -9 -39 -1 -18 -5 -53 -10 -78 -4 -25 -4 -42 0 -38 10 9 66 338 58 338 -2
0 -5 -6 -7 -12z"/>
<path d="M1309 1348 c-5 -18 -6 -38 -1 -34 7 8 12 36 6 36 -2 0 -4 -1 -5 -2z"/>
<path d="M1263 1318 c-13 -6 -23 -17 -23 -24 0 -7 -6 -15 -12 -17 -7 -3 -3 -6
10 -6 15 -1 22 4 20 13 -2 8 6 22 17 30 23 18 19 19 -12 4z"/>
<path d="M848 1303 c6 -2 18 -2 25 0 6 3 1 5 -13 5 -14 0 -19 -2 -12 -5z"/>
<path d="M897 1298 c-7 -4 20 -7 58 -7 73 1 71 6 -3 11 -24 2 -48 0 -55 -4z"/>
<path d="M1048 1293 c12 -2 32 -2 45 0 12 2 2 4 -23 4 -25 0 -35 -2 -22 -4z"/>
<path d="M1299 1273 c-13 -16 -12 -17 4 -4 16 13 21 21 13 21 -2 0 -10 -8 -17
-17z"/>
<path d="M1085 1270 c3 -5 8 -10 11 -10 2 0 4 5 4 10 0 6 -5 10 -11 10 -5 0
-7 -4 -4 -10z"/>
<path d="M1225 1248 c-3 -7 -3 -30 -2 -50 2 -20 0 -35 -5 -32 -4 3 -8 -1 -9
-8 -2 -32 -9 -53 -19 -56 -7 -3 -4 -10 7 -19 10 -8 12 -12 6 -8 -9 4 -13 -2
-14 -17 -1 -42 -9 -69 -25 -85 -25 -26 -6 -28 22 -2 17 16 24 31 21 46 -2 12
-1 24 4 25 4 2 8 19 10 38 2 19 6 40 10 45 4 6 9 29 13 53 3 24 9 48 12 54 5
8 1 9 -11 4 -15 -5 -16 -4 -5 9 9 11 9 15 1 15 -6 0 -14 -6 -16 -12z"/>
<path d="M1050 1140 c-11 -8 -7 -9 15 -4 37 8 45 14 19 14 -10 0 -26 -5 -34
-10z"/>
<path d="M1058 1113 c7 -3 16 -2 19 1 4 3 -2 6 -13 5 -11 0 -14 -3 -6 -6z"/>
<path d="M1075 1100 c-19 -8 -19 -9 -1 -9 20 -1 20 -1 0 -17 -18 -14 -18 -15
4 -4 12 6 22 17 22 25 0 8 -1 15 -2 14 -2 0 -12 -4 -23 -9z"/>
<path d="M1270 1055 c0 -8 2 -15 4 -15 2 0 6 7 10 15 3 8 1 15 -4 15 -6 0 -10
-7 -10 -15z"/>
<path d="M620 1040 c0 -5 5 -10 11 -10 5 0 7 5 4 10 -3 6 -8 10 -11 10 -2 0
-4 -4 -4 -10z"/>
<path d="M1050 1040 c-8 -5 -10 -10 -5 -10 6 0 17 5 25 10 8 5 11 10 5 10 -5
0 -17 -5 -25 -10z"/>
<path d="M840 1030 c0 -5 5 -10 10 -10 6 0 10 5 10 10 0 6 -4 10 -10 10 -5 0
-10 -4 -10 -10z"/>
<path d="M1296 1003 c-10 -54 -56 -117 -103 -142 -21 -11 -32 -20 -24 -21 11
0 10 -4 -5 -16 -33 -27 9 -2 49 29 21 16 40 28 42 26 7 -8 -66 -79 -75 -74 -6
4 -10 1 -10 -5 0 -6 -6 -10 -12 -8 -7 1 -23 -2 -36 -6 -19 -6 -21 -10 -11 -22
10 -12 7 -13 -18 -8 -20 4 -35 1 -46 -10 -8 -9 -24 -16 -34 -16 -17 1 -17 1 0
11 9 5 17 15 17 20 0 6 -7 3 -17 -6 -10 -10 -27 -15 -44 -13 -20 3 -26 1 -22
-10 5 -10 -3 -12 -33 -7 -70 11 -124 27 -118 36 2 4 12 6 22 3 14 -5 14 -4 2
4 -9 7 -19 7 -25 2 -7 -6 -16 -5 -23 2 -7 7 -12 9 -12 5 0 -4 -10 1 -22 13
-12 11 -27 20 -33 20 -12 0 -81 77 -102 114 -20 34 -15 9 6 -32 36 -70 117
-131 211 -160 56 -17 137 -24 145 -13 3 6 12 11 18 11 7 0 6 -4 -3 -10 -19
-12 -16 -12 55 1 97 18 200 81 231 141 9 17 11 27 5 24 -6 -4 -11 -2 -11 3 0
6 4 11 9 11 15 0 43 84 39 116 -3 26 -4 25 -12 -13z m-146 -223 c0 -5 -8 -10
-17 -10 -15 0 -16 2 -3 10 19 12 20 12 20 0z m-63 -36 c-3 -3 -12 -4 -19 -1
-8 3 -5 6 6 6 11 1 17 -2 13 -5z"/>
<path d="M1260 1020 c-13 -8 -12 -10 3 -10 9 0 17 5 17 10 0 12 -1 12 -20 0z"/>
<path d="M1066 1005 c4 -8 8 -15 10 -15 2 0 4 7 4 15 0 8 -4 15 -10 15 -5 0
-7 -7 -4 -15z"/>
<path d="M1168 942 c-33 -20 -35 -27 -9 -29 11 -1 23 8 30 23 6 13 10 24 8 23
-1 0 -14 -8 -29 -17z"/>
<path d="M1155 890 c-3 -6 1 -7 9 -4 18 7 21 14 7 14 -6 0 -13 -4 -16 -10z"/>
<path d="M1072 835 c-11 -13 -10 -15 7 -15 14 0 19 5 15 15 -7 18 -6 18 -22 0z"/>
<path d="M873 743 c9 -2 25 -2 35 0 9 3 1 5 -18 5 -19 0 -27 -2 -17 -5z"/>
<path d="M1218 593 c-16 -2 -28 -8 -28 -13 0 -5 7 -6 17 -3 12 5 14 3 8 -8 -8
-12 -6 -12 8 0 9 7 32 17 50 21 l32 8 -30 -1 c-16 0 -42 -2 -57 -4z"/>
<path d="M1155 570 c4 -6 11 -8 16 -5 14 9 11 15 -7 15 -8 0 -12 -5 -9 -10z"/>
<path d="M1080 556 c7 -7 14 -6 21 1 9 9 7 12 -9 10 -14 -1 -18 -5 -12 -11z"/>
<path d="M960 550 c-10 -6 3 -7 40 -3 30 3 57 7 59 9 10 9 -85 3 -99 -6z"/>
<path d="M916 542 c-3 -5 1 -9 9 -9 8 0 12 4 9 9 -3 4 -7 8 -9 8 -2 0 -6 -4
-9 -8z"/>
<path d="M765 524 c-98 -21 -115 -26 -110 -33 4 -7 95 9 125 22 8 4 36 8 63
10 26 2 50 7 54 11 10 9 -65 4 -132 -10z"/>
<path d="M885 354 c21 -8 62 -16 90 -19 l50 -5 -45 14 c-25 7 -65 15 -90 19
l-45 6 40 -15z"/>
</g>
</svg>
