<?xml version="1.0" standalone="no"?>
<!DOCTYPE svg PUBLIC "-//W3C//DTD SVG 20010904//EN"
 "http://www.w3.org/TR/2001/REC-SVG-20010904/DTD/svg10.dtd">
<svg version="1.0" xmlns="http://www.w3.org/2000/svg"
 width="300.000000pt" height="200.000000pt" viewBox="0 0 300.000000 200.000000"
 preserveAspectRatio="xMidYMid meet">
<metadata>
Created by potrace 1.10, written by Peter Selinger 2001-2011
</metadata>
<g transform="translate(0.000000,200.000000) scale(0.100000,-0.100000)"
fill="#000000" stroke="none">
<path d="M2040 1867 c-41 -13 -50 -23 -50 -58 l0 -26 52 13 c45 12 54 12 68
-1 15 -14 17 -12 18 20 2 39 -14 48 -21 13 -3 -13 -5 -7 -4 12 2 40 -9 44 -63
27z m47 -23 c3 -9 0 -20 -8 -25 -19 -12 -32 -11 -24 1 3 6 -1 10 -9 10 -9 0
-16 -7 -16 -15 0 -8 -7 -15 -15 -15 -8 0 -15 6 -15 13 0 19 20 36 36 30 8 -3
14 0 14 6 0 17 30 13 37 -5z"/>
<path d="M1670 1754 c-345 -92 -611 -167 -905 -254 -126 -38 -241 -70 -255
-72 -16 -2 -26 -10 -28 -23 -2 -18 -1 -18 10 -5 7 9 22 16 33 17 11 1 103 26
205 56 201 60 568 163 802 225 l147 38 4 -65 3 -66 2 66 2 67 108 26 c59 15
115 29 124 32 17 5 18 -19 21 -368 l2 -373 3 378 c2 327 4 377 17 377 8 0 15
5 15 10 0 16 -20 12 -310 -66z"/>
<path d="M2140 1796 c8 -7 72 -58 141 -114 70 -56 137 -114 149 -129 l22 -28
-6 -447 c-4 -301 -3 -448 4 -448 6 0 10 53 11 143 1 78 2 194 3 257 0 63 0
211 -1 328 -3 210 -3 213 -25 221 -13 5 -84 59 -158 120 -74 61 -139 111 -145
111 -5 0 -3 -6 5 -14z"/>
<path d="M2083 1743 c-22 -8 -16 -49 7 -49 14 0 20 7 20 23 0 24 -9 33 -27 26z"/>
<path d="M2104 1515 c0 -93 2 -133 3 -88 2 45 2 122 0 170 -1 48 -3 12 -3 -82z"/>
<path d="M2223 1630 c0 -25 2 -35 4 -22 2 12 2 32 0 45 -2 12 -4 2 -4 -23z"/>
<path d="M1710 1593 c0 -5 -21 -9 -47 -10 -25 -1 -51 -7 -57 -13 -5 -5 -20
-10 -32 -10 -30 0 -84 -46 -101 -88 -16 -39 -16 -165 0 -155 6 4 8 0 4 -9 -3
-9 2 -24 12 -34 16 -18 16 -20 -6 -53 -28 -41 -32 -144 -8 -191 27 -52 49 -60
171 -60 106 0 114 1 143 26 63 53 69 187 10 250 -19 20 -19 21 2 40 71 63 79
231 14 284 -17 13 -18 13 -11 0 6 -12 4 -11 -6 1 -7 9 -19 14 -27 11 -8 -3
-11 0 -7 7 5 7 -3 11 -23 11 -17 0 -31 -3 -31 -7z m81 -43 c30 -16 49 -64 49
-122 0 -91 -42 -138 -127 -144 -26 -2 -75 -6 -108 -9 -33 -4 -57 -3 -52 1 4 4
0 15 -9 25 -36 40 -27 155 15 193 11 10 59 26 108 36 48 10 77 19 63 19 -35 0
-141 -23 -167 -38 -54 -28 -73 -153 -32 -205 11 -14 17 -26 12 -26 -11 1 -49
30 -39 30 5 0 4 6 -2 13 -6 7 -10 40 -9 72 3 74 31 116 91 139 71 26 173 34
207 16z m-261 -282 c0 -14 -17 -8 -35 12 -17 19 -17 19 9 7 14 -7 26 -15 26
-19z m235 3 c-3 -6 1 -13 9 -18 44 -24 61 -144 30 -209 -25 -52 -60 -66 -162
-63 -48 1 -100 7 -115 12 -39 13 -57 54 -57 131 0 58 3 69 29 98 29 32 33 33
148 44 65 6 119 12 121 13 2 0 1 -3 -3 -8z"/>
<path d="M1682 1230 c0 -14 2 -19 5 -12 2 6 2 18 0 25 -3 6 -5 1 -5 -13z"/>
<path d="M1730 1215 c-12 -13 -27 -22 -32 -19 -5 3 -40 3 -79 -1 l-69 -7 2
-42 1 -41 4 36 c4 35 6 37 50 43 25 3 57 6 70 6 23 0 22 -1 -11 -31 -21 -18
-40 -27 -47 -23 -7 4 -9 3 -5 -4 3 -5 -20 -33 -51 -61 -31 -28 -52 -51 -46
-51 6 0 16 7 23 15 9 11 36 15 99 17 l86 2 -79 5 -78 6 79 67 c44 37 91 76
104 87 13 11 19 20 13 21 -6 0 -21 -11 -34 -25z"/>
<path d="M1570 1166 c0 -2 8 -10 18 -17 15 -13 16 -12 3 4 -13 16 -21 21 -21
13z"/>
<path d="M1728 1123 c12 -2 32 -2 45 0 12 2 2 4 -23 4 -25 0 -35 -2 -22 -4z"/>
<path d="M1493 1113 c9 -2 23 -2 30 0 6 3 -1 5 -18 5 -16 0 -22 -2 -12 -5z"/>
<path d="M1581 1024 c0 -11 3 -14 6 -6 3 7 2 16 -1 19 -3 4 -6 -2 -5 -13z"/>
<path d="M2177 1553 c-13 -13 -7 -23 16 -23 57 -1 75 -56 72 -230 -2 -133 -2
-134 4 -30 l7 105 4 -130 4 -130 3 100 c2 55 6 107 9 115 18 42 -11 168 -47
206 -21 23 -58 32 -72 17z"/>
<path d="M1285 1540 c6 -9 4 -12 -7 -8 -11 5 -14 0 -13 -20 1 -15 -3 -33 -9
-41 -9 -12 -8 -13 4 -6 8 5 24 8 35 7 12 -2 16 0 9 5 -6 4 -10 21 -9 36 1 15
-3 30 -8 34 -6 4 -7 1 -2 -7z"/>
<path d="M2196 1501 c20 -12 37 -34 44 -56 7 -20 14 -34 17 -31 13 12 -21 77
-47 91 -42 21 -51 18 -14 -4z"/>
<path d="M2136 1051 c-8 -456 -5 -501 33 -535 24 -22 59 -14 99 22 25 23 30
36 35 92 5 51 4 56 -3 25 -14 -68 -27 -92 -64 -120 -28 -22 -38 -24 -55 -16
-38 21 -41 65 -34 529 3 243 4 442 1 442 -3 0 -8 -197 -12 -439z"/>
<path d="M1114 1465 c-65 -16 -68 -18 -88 -59 -24 -51 -21 -130 6 -156 12 -11
28 -18 35 -16 7 3 15 0 19 -7 4 -7 4 -9 -1 -5 -4 4 -20 1 -35 -7 -37 -19 -54
-72 -47 -138 9 -69 33 -93 106 -101 69 -8 107 4 123 38 6 14 14 24 17 22 3 -2
6 35 6 82 0 47 -1 78 -3 69 -3 -15 -6 -14 -22 5 -17 22 -17 23 5 50 47 56 46
175 -2 215 -31 25 -46 26 -119 8z m71 -14 c-29 -11 -90 -22 -82 -15 7 7 64 22
87 22 9 1 7 -3 -5 -7z m60 -97 c0 -105 -14 -124 -89 -124 -28 0 -56 4 -63 8
-37 24 -39 134 -3 167 23 21 73 34 120 32 l35 -2 0 -81z m-176 41 c-21 -35
-23 -92 -5 -140 8 -20 7 -20 -8 -1 -22 27 -21 110 1 147 10 16 21 29 25 29 4
0 -2 -16 -13 -35z m147 -200 c25 -39 24 -137 -2 -172 -18 -25 -29 -28 -82 -31
-76 -4 -98 8 -112 56 -14 53 -13 82 8 122 18 37 41 46 129 49 35 1 45 -3 59
-24z"/>
<path d="M1185 1180 c-10 -11 -22 -17 -28 -13 -5 3 -7 2 -4 -4 4 -5 -7 -23
-24 -39 -39 -37 -102 -117 -71 -90 14 13 38 19 69 20 32 1 48 6 50 16 4 12 3
12 -5 2 -6 -8 -24 -12 -48 -10 l-39 3 64 68 c35 37 62 67 59 67 -3 0 -13 -9
-23 -20z"/>
<path d="M1067 1153 c-4 -3 -7 -11 -7 -17 0 -7 3 -7 8 1 4 6 23 13 42 16 l35
4 -36 1 c-20 1 -39 -1 -42 -5z"/>
<path d="M1038 1103 c6 -2 18 -2 25 0 6 3 1 5 -13 5 -14 0 -19 -2 -12 -5z"/>
<path d="M1183 1103 c9 -2 23 -2 30 0 6 3 -1 5 -18 5 -16 0 -22 -2 -12 -5z"/>
<path d="M2162 1349 c-2 -80 2 -90 47 -104 16 -5 21 -4 17 4 -4 6 -16 11 -26
11 -23 0 -28 19 -33 105 -3 56 -3 55 -5 -16z"/>
<path d="M2180 1410 c0 -5 7 -10 15 -10 22 0 37 -38 33 -86 -2 -24 0 -44 4
-44 10 0 10 101 0 116 -11 17 -52 36 -52 24z"/>
<path d="M2391 1404 c0 -11 3 -14 6 -6 3 7 2 16 -1 19 -3 4 -6 -2 -5 -13z"/>
<path d="M373 1384 l-42 -15 -1 -307 0 -307 87 -22 c49 -12 255 -61 458 -108
204 -47 483 -112 620 -145 138 -32 302 -70 365 -85 63 -14 122 -29 130 -32 8
-4 34 -12 57 -18 35 -10 45 -9 63 5 18 13 19 20 11 42 -10 25 -6 38 11 38 4 0
8 -7 8 -15 0 -8 7 -15 15 -15 8 0 15 6 15 13 0 7 17 21 38 32 20 11 42 25 48
30 6 6 41 30 78 54 36 24 66 46 66 50 0 4 12 7 27 6 18 0 29 6 31 17 6 30 -24
21 -94 -27 -36 -25 -69 -45 -73 -45 -5 0 -14 -7 -21 -15 -7 -8 -34 -25 -61
-37 -26 -12 -45 -26 -42 -32 3 -5 1 -6 -5 -2 -6 4 -21 2 -32 -4 -18 -10 -20
-8 -20 26 0 28 -3 35 -15 30 -9 -3 -15 0 -15 10 0 10 6 14 15 10 12 -4 15 3
13 37 -1 37 -2 38 -5 10 -3 -20 -10 -33 -19 -33 -8 0 -14 -10 -14 -26 0 -19 4
-25 15 -20 11 4 15 -2 14 -22 0 -24 -1 -25 -9 -7 -5 11 -9 15 -9 8 -2 -23
-122 -9 -426 52 -190 37 -297 56 -301 52 -3 -3 5 -7 18 -10 31 -8 422 -85 522
-103 44 -7 83 -19 88 -26 5 -9 8 -8 8 5 0 15 6 16 43 11 50 -8 70 -24 72 -59
1 -31 -12 -33 -18 -3 l-4 23 -2 -22 c-1 -30 -29 -30 -33 -1 -3 26 -23 26 -22
0 0 -17 -2 -17 -35 0 -32 15 -89 29 -376 93 -33 7 -94 21 -135 31 -41 9 -92
19 -112 21 -28 4 -38 10 -38 22 0 12 -13 22 -39 29 -52 16 -71 15 -71 -4 0
-11 -5 -14 -17 -9 -29 11 -343 85 -364 85 -10 0 -19 6 -19 13 0 25 -301 100
-321 80 -10 -10 -54 -4 -99 14 -8 3 -23 5 -32 4 -16 -2 -18 9 -18 113 l0 116
30 0 c20 0 30 5 30 15 0 8 -9 15 -21 15 -11 0 -17 -4 -14 -10 3 -5 -1 -10 -9
-10 -12 0 -16 10 -16 35 0 24 5 35 15 35 8 0 15 -7 15 -15 0 -8 7 -15 15 -15
28 0 15 27 -17 38 l-33 10 33 1 c43 1 41 21 -3 21 -28 0 -35 4 -35 19 0 14 10
21 35 25 43 8 45 25 5 48 -17 9 -30 25 -30 34 0 14 6 12 30 -11 24 -23 30 -25
30 -12 0 10 -15 30 -32 46 -18 16 -31 32 -28 35 3 3 18 -6 33 -20 41 -38 32
-5 -10 40 -38 39 -28 41 15 3 19 -18 22 -18 22 -4 0 9 -4 17 -10 17 -5 0 -10
5 -10 11 0 5 5 7 10 4 6 -3 10 -1 10 4 0 6 -4 11 -10 11 -20 0 -9 16 18 27 41
17 3 14 -45 -3z m12 -24 c3 -5 -1 -10 -9 -10 -9 0 -16 5 -16 10 0 6 4 10 9 10
6 0 13 -4 16 -10z m-10 -190 c3 -5 -1 -10 -9 -10 -9 0 -16 5 -16 10 0 6 4 10
9 10 6 0 13 -4 16 -10z m165 -440 c0 -5 -4 -10 -10 -10 -5 0 -10 5 -10 10 0 6
5 10 10 10 6 0 10 -4 10 -10z m210 -50 c0 -5 -7 -7 -15 -4 -8 4 -15 8 -15 10
0 2 7 4 15 4 8 0 15 -4 15 -10z m533 -117 c-7 -2 -21 -2 -30 0 -10 3 -4 5 12
5 17 0 24 -2 18 -5z"/>
<path d="M573 1345 c0 -33 2 -45 4 -27 2 18 2 45 0 60 -2 15 -4 0 -4 -33z"/>
<path d="M448 1382 c-22 -4 -24 -32 -3 -32 9 0 18 7 22 15 7 19 3 22 -19 17z"/>
<path d="M653 1315 c0 -22 2 -30 4 -17 2 12 2 30 0 40 -3 9 -5 -1 -4 -23z"/>
<path d="M430 1294 c0 -38 3 -45 18 -42 12 2 18 15 20 46 3 37 1 42 -17 42
-18 0 -21 -6 -21 -46z"/>
<path d="M790 1314 c0 -15 -8 -33 -17 -41 -17 -14 -17 -14 0 -9 13 4 17 -1 17
-24 0 -20 -5 -30 -15 -30 -8 0 -15 -4 -15 -9 0 -5 9 -7 20 -4 18 5 20 14 20
74 0 38 -2 69 -5 69 -3 0 -5 -12 -5 -26z"/>
<path d="M2073 1320 c5 -30 17 -36 18 -9 1 15 6 6 15 -26 13 -46 13 -47 9 -10
-3 22 -5 46 -5 53 0 6 -9 12 -20 12 -14 0 -19 -6 -17 -20z"/>
<path d="M502 1305 c0 -16 2 -22 5 -12 2 9 2 23 0 30 -3 6 -5 -1 -5 -18z"/>
<path d="M1452 1255 c0 -16 2 -22 5 -12 2 9 2 23 0 30 -3 6 -5 -1 -5 -18z"/>
<path d="M587 1262 c-43 -5 -59 -40 -58 -124 1 -40 -2 -97 -5 -126 -8 -72 11
-102 65 -102 54 0 63 16 61 107 -1 43 2 101 6 130 11 90 -8 123 -69 115z m61
-69 c2 -22 -1 -56 -6 -75 -7 -27 -12 -32 -33 -30 -13 2 -26 6 -28 7 -10 10
-11 94 -2 118 9 23 16 28 39 25 24 -3 27 -8 30 -45z m-85 -51 c2 -32 1 -48 -4
-40 -5 7 -8 36 -8 63 1 60 6 50 12 -23z m65 -89 c16 -22 15 -94 -1 -118 -16
-20 -39 -12 -30 10 3 8 0 15 -7 15 -6 0 -9 -4 -6 -8 9 -16 -12 -35 -30 -28
-18 7 -18 8 0 22 11 8 16 14 12 14 -5 0 3 15 16 33 33 44 44 68 18 37 -12 -14
-27 -25 -34 -25 -6 0 -12 -7 -12 -15 -1 -8 -2 -21 -3 -27 0 -7 -5 -13 -11 -13
-13 0 -13 86 0 111 8 15 18 18 43 14 18 -3 38 -13 45 -22z"/>
<path d="M564 1049 c-3 -6 -2 -15 3 -20 5 -5 9 -1 9 11 0 23 -2 24 -12 9z"/>
<path d="M742 1235 c0 -16 2 -22 5 -12 2 9 2 23 0 30 -3 6 -5 -1 -5 -18z"/>
<path d="M430 1194 c0 -38 3 -45 18 -42 12 2 18 15 20 46 3 37 1 42 -17 42
-18 0 -21 -6 -21 -46z"/>
<path d="M2322 1140 c0 -19 2 -27 5 -17 2 9 2 25 0 35 -3 9 -5 1 -5 -18z"/>
<path d="M430 1095 c0 -38 3 -45 20 -45 17 0 20 7 20 45 0 38 -3 45 -20 45
-17 0 -20 -7 -20 -45z"/>
<path d="M2259 1080 c-6 -60 1 -89 12 -50 10 36 10 -166 0 -288 -6 -64 -15
-111 -25 -127 -9 -13 -16 -27 -16 -30 0 -10 37 18 38 29 1 6 6 34 11 61 5 28
10 123 10 213 1 106 4 161 11 157 6 -3 10 -1 10 4 0 6 -9 11 -19 11 -16 0 -21
8 -23 38 -3 33 -4 31 -9 -18z"/>
<path d="M2293 1113 c-18 -7 -16 -43 2 -43 9 0 15 9 15 25 0 14 -1 25 -2 24
-2 0 -9 -3 -15 -6z"/>
<path d="M743 1010 c0 -47 2 -66 4 -42 2 23 2 61 0 85 -2 23 -4 4 -4 -43z"/>
<path d="M430 995 c0 -38 3 -45 20 -45 16 0 19 7 18 45 0 37 -4 45 -19 45 -16
0 -19 -8 -19 -45z"/>
<path d="M2324 940 c0 -52 1 -74 3 -47 2 26 2 68 0 95 -2 26 -3 4 -3 -48z"/>
<path d="M382 963 c-15 -6 -6 -23 14 -23 8 0 14 7 14 15 0 15 -6 17 -28 8z"/>
<path d="M430 895 c0 -36 3 -45 18 -45 14 0 17 9 17 45 0 36 -3 45 -17 45 -15
0 -18 -9 -18 -45z"/>
<path d="M2102 915 c0 -16 2 -22 5 -12 2 9 2 23 0 30 -3 6 -5 -1 -5 -18z"/>
<path d="M390 920 c-13 -9 -13 -10 0 -10 9 -1 5 -6 -10 -15 -14 -8 -20 -14
-14 -15 5 0 18 6 28 13 23 17 18 41 -4 27z"/>
<path d="M2070 910 c0 -11 5 -20 10 -20 6 0 10 9 10 20 0 11 -4 20 -10 20 -5
0 -10 -9 -10 -20z"/>
<path d="M653 855 c0 -27 2 -38 4 -22 2 15 2 37 0 50 -2 12 -4 0 -4 -28z"/>
<path d="M395 860 c3 -5 0 -10 -8 -10 -8 0 -18 -7 -21 -16 -10 -25 -7 -26 19
-7 25 18 33 43 14 43 -5 0 -7 -4 -4 -10z"/>
<path d="M742 850 c0 -14 2 -19 5 -12 2 6 2 18 0 25 -3 6 -5 1 -5 -13z"/>
<path d="M2088 808 c-1 -35 0 -97 3 -138 4 -62 6 -51 7 63 2 141 -4 185 -10
75z"/>
<path d="M1084 824 c-6 -35 0 -101 11 -112 13 -13 81 -27 135 -27 l55 0 3 64
c3 54 0 67 -18 83 -11 10 -24 17 -28 15 -4 -3 -40 -2 -79 2 l-73 7 -6 -32z
m146 1 l45 -6 2 -64 c1 -36 -2 -65 -6 -65 -4 0 -34 5 -67 10 -113 20 -104 13
-104 81 l0 60 43 -5 c23 -3 62 -8 87 -11z"/>
<path d="M1240 731 c0 -12 5 -21 10 -21 6 0 10 6 10 14 0 8 -4 18 -10 21 -5 3
-10 -3 -10 -14z"/>
<path d="M430 800 c0 -33 3 -40 20 -40 17 0 20 7 20 40 0 33 -3 40 -20 40 -17
0 -20 -7 -20 -40z"/>
<path d="M842 820 c0 -14 2 -19 5 -12 2 6 2 18 0 25 -3 6 -5 1 -5 -13z"/>
<path d="M400 808 c0 -6 -3 -9 -6 -5 -4 3 -13 -1 -21 -9 -20 -19 -14 -24 15
-13 18 7 33 39 17 39 -3 0 -5 -5 -5 -12z"/>
<path d="M2392 780 c0 -14 2 -19 5 -12 2 6 2 18 0 25 -3 6 -5 1 -5 -13z"/>
<path d="M832 676 c6 -7 51 -18 243 -57 55 -11 109 -22 120 -26 13 -3 16 -2
10 4 -5 5 -48 18 -95 27 -47 10 -112 24 -145 31 -85 20 -141 29 -133 21z"/>
<path d="M2209 610 c-25 -29 -27 -38 -3 -22 10 6 38 53 32 52 -2 -1 -15 -14
-29 -30z"/>
</g>
</svg>
