<?xml version="1.0" standalone="no"?>
<!DOCTYPE svg PUBLIC "-//W3C//DTD SVG 20010904//EN"
 "http://www.w3.org/TR/2001/REC-SVG-20010904/DTD/svg10.dtd">
<svg version="1.0" xmlns="http://www.w3.org/2000/svg"
 width="900.000000pt" height="600.000000pt" viewBox="0 0 900.000000 600.000000"
 preserveAspectRatio="xMidYMid meet">
<metadata>
Created by potrace 1.10, written by Peter Selinger 2001-2011
</metadata>
<g transform="translate(0.000000,600.000000) scale(0.100000,-0.100000)"
fill="#000000" stroke="none">
<path d="M6248 5302 c-29 -2 -38 -8 -38 -22 0 -18 6 -19 88 -13 83 5 114 15
99 30 -8 7 -90 10 -149 5z"/>
<path d="M6475 5291 c-3 -5 -1 -12 5 -16 5 -3 10 -12 10 -18 0 -16 -225 -22
-264 -7 -47 18 -83 -2 -91 -52 -4 -21 -4 -42 -1 -46 4 -3 30 0 59 8 51 13 226
29 247 22 5 -2 10 -19 10 -37 0 -25 -5 -34 -21 -38 -13 -3 -18 -10 -14 -17 5
-8 14 -6 29 8 11 11 36 27 54 36 31 16 35 16 66 -3 43 -27 71 -26 91 2 17 21
17 21 9 -18 -4 -22 -8 -213 -8 -425 -1 -212 -5 -391 -9 -398 -5 -7 -25 -19
-45 -28 -20 -8 -49 -26 -63 -40 -34 -32 -56 -23 -64 27 -9 50 -22 58 -30 17
-4 -25 -1 -211 4 -226 4 -12 41 23 41 38 0 17 7 20 43 20 34 0 44 -5 52 -23
10 -20 8 -22 -23 -24 -68 -4 -63 47 -61 -613 l1 -600 48 0 c39 0 50 -4 55 -19
9 -29 -4 -48 -48 -71 -51 -26 -67 -45 -67 -82 0 -42 -18 -34 -22 10 -2 29 -7
37 -23 37 -18 0 -19 -9 -23 -115 -2 -63 -7 -131 -13 -150 -17 -65 -14 -73 29
-65 20 4 42 10 47 15 13 11 130 50 149 50 31 0 28 -67 40 1199 3 260 6 474 8
475 2 1 28 14 58 28 64 31 81 47 103 106 15 37 17 92 17 407 0 344 -1 367 -21
416 -23 59 -30 66 -114 109 -89 47 -128 70 -151 91 -21 20 -88 26 -99 10z
m271 -253 c4 -18 9 -51 10 -73 4 -61 1 -342 -4 -415 -2 -36 -3 -110 -2 -166 1
-80 -2 -103 -14 -113 -24 -20 -28 1 -22 110 3 52 5 228 5 392 1 280 8 347 27
265z m-61 -857 c7 -13 -57 -61 -82 -61 -10 0 -28 7 -39 15 -16 13 -17 16 -4
25 8 5 23 10 32 10 9 0 20 5 23 10 8 13 62 13 70 1z m-69 -341 c1 -91 -1 -304
-5 -475 -3 -170 -3 -341 2 -379 8 -72 3 -86 -35 -86 -16 0 -16 39 -12 548 2
301 4 551 4 555 0 5 10 7 23 5 22 -3 22 -5 23 -168z m-18 -1228 c2 -79 0 -93
-14 -99 -9 -3 -24 -2 -33 4 -22 14 -17 149 7 176 28 32 37 14 40 -81z"/>
<path d="M3255 5139 c-33 -4 -179 -12 -325 -18 -269 -11 -393 -24 -420 -45 -8
-6 -33 -20 -55 -30 -22 -10 -47 -22 -55 -27 -8 -5 -22 -12 -30 -15 -99 -38
-121 -64 -137 -159 -16 -92 -17 -952 -2 -1023 15 -70 68 -142 104 -142 13 0
26 -4 29 -9 3 -5 37 -19 76 -32 38 -12 70 -26 70 -30 0 -5 21 -14 48 -22 33
-9 106 -13 252 -12 l205 2 0 102 c0 57 -3 105 -6 107 -3 2 -22 -1 -42 -7 -26
-7 -38 -17 -46 -39 -7 -21 -17 -30 -33 -31 -189 -8 -245 -4 -306 19 -60 23
-64 24 -82 7 -29 -26 -43 -14 -68 58 l-23 65 -37 -5 c-47 -6 -65 11 -53 53 4
16 6 46 3 67 -3 23 1 46 11 60 14 21 13 24 -4 35 -20 13 -26 56 -10 66 5 4 9
94 9 202 0 220 0 218 68 209 49 -7 61 5 60 60 l-1 40 -65 0 -65 0 1 35 c1 19
3 63 5 97 l4 61 53 22 c28 12 52 26 52 30 0 5 -21 10 -47 12 -53 3 -69 24 -26
34 15 4 38 14 50 22 27 17 53 10 53 -15 0 -10 7 -27 16 -38 19 -26 50 -8 47
28 -1 21 5 28 32 37 18 6 50 11 72 10 21 0 62 2 91 5 30 3 63 0 73 -6 14 -7
30 -6 55 3 28 10 39 10 55 0 10 -7 30 -10 43 -6 19 4 26 1 31 -16 9 -28 26
-21 38 16 5 16 16 36 23 45 8 8 14 23 14 32 0 9 7 17 15 17 10 0 14 -12 13
-46 -1 -68 17 -81 113 -76 32 2 40 7 58 42 12 22 21 52 21 65 0 20 5 25 25 25
18 0 25 -5 25 -20 0 -24 -4 -24 54 -4 120 41 236 -20 267 -141 23 -89 22 -82
4 -60 -9 11 -28 43 -41 70 -27 53 -87 105 -123 105 -23 0 -111 -83 -111 -103
0 -7 -6 -24 -14 -38 -7 -14 -16 -43 -20 -65 -4 -21 -14 -58 -22 -82 -16 -50
-18 -121 -3 -177 6 -22 15 -60 20 -85 5 -25 16 -57 24 -72 8 -14 15 -31 15
-37 0 -12 54 -94 72 -108 36 -29 109 -23 144 12 21 20 34 19 34 -3 0 -11 9
-23 20 -28 21 -9 21 -15 21 -648 1 -590 0 -640 -16 -649 -11 -6 -21 -5 -28 2
-16 16 -23 14 -36 -16 -10 -22 -10 -28 3 -35 44 -25 -9 -58 -94 -58 -58 0 -91
21 -72 47 6 10 16 28 22 41 11 26 46 29 72 5 10 -9 21 -13 25 -9 4 4 8 95 10
203 2 109 7 201 13 207 6 6 14 5 24 -3 12 -10 15 -4 18 39 4 66 0 75 -23 54
-11 -9 -22 -14 -26 -10 -4 4 -8 63 -8 132 0 127 7 150 40 137 15 -5 24 41 15
76 -5 21 -7 22 -19 7 -20 -24 -31 -20 -31 12 0 37 -8 44 -32 31 -27 -14 -65
-3 -73 20 -3 12 3 37 15 60 22 44 25 73 10 100 -5 10 -13 43 -18 72 -5 30 -12
61 -16 70 -4 10 -1 23 8 32 23 22 20 42 -8 55 -20 9 -25 8 -30 -5 -4 -8 -6
-305 -5 -658 1 -590 -1 -645 -16 -669 -23 -34 -41 -33 -60 4 -9 17 -19 30 -24
30 -27 0 -19 -139 8 -141 9 0 63 0 121 1 62 1 144 -6 200 -16 66 -11 148 -16
268 -16 200 0 187 7 197 -108 3 -41 11 -92 17 -113 16 -53 3 -60 -99 -52 -59
4 -82 3 -85 -6 -4 -12 -61 -28 -173 -49 -38 -7 -58 -18 -83 -45 l-32 -35 0
-655 c1 -578 -1 -657 -15 -671 -8 -8 -15 -24 -15 -34 0 -10 -4 -21 -9 -25 -5
-3 -12 -18 -16 -34 -3 -16 -13 -35 -21 -42 -10 -8 -14 -37 -14 -114 0 -79 -3
-105 -15 -115 -8 -7 -15 -18 -15 -25 0 -7 -7 -18 -15 -25 -12 -10 -15 -28 -13
-64 3 -49 5 -52 43 -70 22 -11 60 -23 85 -28 25 -4 65 -12 90 -18 25 -5 74
-10 110 -10 36 0 85 -5 110 -11 25 -5 95 -14 155 -19 61 -5 155 -14 210 -20
55 -5 118 -7 140 -3 l40 7 -30 7 c-16 3 -57 7 -91 8 -33 0 -83 8 -110 16 -27
8 -67 15 -89 15 -50 0 -85 9 -85 22 0 18 369 -8 543 -39 l89 -15 38 37 c41 40
51 69 53 152 2 62 -15 72 -24 14 -3 -22 -14 -50 -24 -62 -18 -19 -27 -20 -105
-15 -47 3 -123 10 -170 14 -322 34 -351 36 -372 23 -17 -11 -23 -9 -44 9 -23
22 -23 24 -21 229 2 113 7 216 11 229 8 23 7 23 -45 20 l-54 -3 0 -167 c0
-130 3 -168 13 -168 7 0 15 7 19 16 11 28 23 -7 23 -68 0 -40 7 -71 25 -106
40 -79 33 -94 -33 -71 -22 7 -33 19 -37 39 -8 37 -31 58 -47 42 -23 -23 -28
-12 -28 56 0 106 -12 282 -20 282 -14 0 -42 -140 -39 -196 2 -33 2 -94 1 -136
l-2 -78 -29 0 c-58 0 -77 23 -48 59 23 28 39 91 33 127 -7 36 -9 37 -41 24
-13 -5 -26 -3 -37 8 -23 20 -23 44 1 73 l19 24 13 -30 12 -30 7 40 c3 22 11
49 17 60 5 11 13 35 17 54 3 19 12 42 20 50 7 9 16 28 20 42 5 21 1 30 -18 43
l-25 16 5 337 c7 406 7 359 -4 413 -5 25 -8 90 -6 145 3 55 6 136 7 180 2 44
7 90 11 103 5 14 3 35 -5 53 -11 27 -9 32 16 59 33 35 45 38 45 11 0 -22 15
-35 30 -26 11 7 -5 45 -24 57 -7 5 -5 13 7 25 16 16 38 18 210 17 125 0 202
-5 221 -13 21 -8 145 -12 445 -13 603 -1 663 -3 689 -17 12 -7 32 -9 42 -6 14
4 32 -3 57 -24 47 -39 86 -41 109 -6 18 28 42 33 50 10 5 -11 24 -15 80 -15
79 0 89 -8 52 -42 -23 -19 -23 -21 -18 -230 4 -185 7 -211 23 -222 9 -7 17
-18 17 -24 0 -10 -70 -42 -95 -42 -21 0 -123 -48 -127 -60 -2 -6 -18 -13 -37
-15 -54 -7 -71 -15 -71 -36 0 -14 7 -19 25 -19 18 0 28 -7 35 -26 9 -23 15
-26 43 -21 17 2 47 -2 66 -9 18 -8 46 -14 60 -14 40 0 60 -20 61 -60 1 -117
-7 -360 -12 -365 -16 -17 -127 -36 -169 -31 -45 6 -47 5 -57 -22 -5 -16 -6
-35 -2 -43 13 -19 -6 -45 -40 -57 -31 -11 -41 -32 -15 -32 8 0 19 -9 25 -20
14 -25 30 -17 30 15 0 30 20 43 32 21 5 -9 14 -13 20 -10 7 5 6 11 -5 19 -9 7
-18 23 -19 36 -3 23 0 24 57 27 33 1 75 10 93 18 60 28 61 26 61 -193 0 -109
1 -206 3 -216 2 -13 -9 -25 -37 -40 -52 -28 -55 -33 -55 -89 0 -36 -4 -48 -15
-48 -12 0 -15 19 -15 114 0 116 7 139 35 116 12 -10 16 -9 22 6 4 12 0 22 -15
32 -20 13 -22 23 -22 102 l0 88 -35 0 -35 0 0 -53 c0 -43 -4 -55 -22 -68 l-23
-15 33 -63 c29 -58 32 -73 32 -151 0 -73 -3 -89 -17 -97 -18 -9 -80 -7 -120 5
-20 6 -23 3 -23 -24 0 -38 -13 -47 -48 -33 -23 10 -183 20 -329 22 -20 0 -34
7 -39 17 -4 9 -6 122 -6 250 l2 233 -58 -3 -57 -3 1 -65 c1 -36 5 -113 9 -172
7 -89 11 -107 25 -111 14 -3 18 -18 22 -68 3 -53 11 -74 42 -122 30 -46 36
-64 31 -88 -6 -27 -5 -29 24 -29 38 0 48 15 20 30 -38 21 -6 29 139 36 79 4
145 11 148 16 7 11 24 10 24 -2 0 -6 -8 -14 -17 -17 -10 -4 -33 -17 -52 -30
-28 -19 -30 -24 -16 -29 22 -9 144 2 175 15 14 5 36 12 50 15 14 3 39 17 55
30 28 24 178 134 226 166 12 8 57 41 100 72 75 55 79 60 79 97 0 22 -6 44 -15
51 -11 9 -15 35 -15 104 0 66 -4 98 -15 112 -8 10 -15 27 -15 36 0 9 -7 29
-14 45 -8 15 -17 36 -20 46 -7 23 -26 13 -26 -14 0 -11 -7 -30 -15 -43 -16
-24 -10 -49 31 -131 11 -21 14 -52 12 -105 l-3 -75 -49 -3 c-27 -2 -54 2 -59
7 -16 16 -16 379 0 393 9 7 16 3 24 -16 l12 -26 23 49 c18 36 33 53 61 66 92
43 102 70 103 278 2 201 -6 227 -77 253 -60 22 -96 53 -86 74 4 8 7 128 8 265
1 138 5 270 9 295 l8 45 -157 2 c-86 1 -184 8 -218 15 -45 9 -192 12 -542 10
-298 -2 -507 1 -550 8 -38 6 -123 15 -189 20 -65 5 -120 11 -122 13 -11 10 16
101 36 122 19 21 21 28 12 52 -15 40 -22 90 -16 108 4 9 19 15 41 15 19 0 32
-4 28 -9 -9 -15 15 -24 30 -11 18 15 621 15 705 0 30 -5 147 -12 260 -14 292
-6 771 -25 792 -32 27 -8 80 36 76 64 -3 22 -4 23 -163 26 -88 2 -317 8 -510
14 -436 14 -1265 34 -1527 36 -109 1 -200 5 -203 8 -3 3 -5 241 -4 529 4 1125
-1 1559 -16 1590 -8 15 -15 34 -15 42 0 7 -17 32 -37 54 -37 40 -89 63 -141
63 -13 0 -33 5 -44 11 -26 14 -120 17 -203 8z m-30 -69 c4 -6 -7 -10 -27 -10
-25 0 -29 3 -18 10 19 13 37 13 45 0z m245 -151 c0 -5 -7 -9 -15 -9 -15 0 -20
12 -9 23 8 8 24 -1 24 -14z m98 12 c8 -4 13 -14 12 -22 -4 -27 0 -39 21 -60
15 -15 18 -24 9 -34 -7 -9 -8 -27 -1 -56 16 -77 23 -177 12 -183 -8 -5 -9 -90
-2 -164 0 -7 12 -17 26 -22 14 -5 25 -17 25 -26 0 -13 -3 -14 -15 -4 -11 9
-21 7 -48 -14 -62 -48 -106 -26 -157 79 -17 36 -35 63 -40 60 -9 -5 -30 71
-30 110 0 35 46 58 65 32 17 -24 25 -21 25 8 0 14 -7 28 -15 31 -8 4 -15 12
-15 19 0 23 -20 28 -41 9 -10 -9 -19 -26 -19 -36 0 -11 -5 -18 -12 -16 -19 7
-20 24 -3 41 8 9 18 43 22 77 4 38 11 64 20 67 7 3 13 20 13 39 0 33 14 46 23
22 4 -9 15 -1 33 20 28 32 64 41 92 23z m-1154 -330 c11 -17 -19 -28 -66 -23
-32 3 -48 9 -48 18 0 10 14 14 54 14 30 0 57 -4 60 -9z m1105 -850 c17 -11 6
-31 -18 -31 -18 0 -41 18 -41 32 0 11 41 10 59 -1z m1 -89 c0 -14 -11 -21 -26
-15 -21 8 -17 23 6 23 11 0 20 -4 20 -8z m30 -258 c9 -9 -25 -24 -55 -24 -44
0 -63 14 -39 29 17 10 82 6 94 -5z m-36 -96 c-3 -18 -9 -45 -14 -59 -4 -14 -6
-37 -3 -51 3 -17 0 -27 -11 -31 -11 -4 -16 -1 -17 11 0 9 -2 50 -5 90 l-4 72
30 0 c28 0 29 -2 24 -32z m2350 -1075 c8 -49 8 -356 0 -377 -17 -44 -24 15
-24 205 0 195 9 260 24 172z m4 -534 c7 -10 35 -41 64 -70 l51 -52 -6 -119
c-5 -99 -9 -123 -27 -145 -11 -14 -20 -32 -20 -39 0 -15 -47 -50 -56 -41 -3 3
-7 49 -9 104 -10 267 -7 259 -123 313 -59 28 -74 49 -34 51 9 0 33 6 52 13 43
16 91 9 108 -15z m-2244 -870 c14 -70 0 -117 -26 -91 -11 11 0 122 12 122 4 0
10 -14 14 -31z m1416 5 c0 -8 -4 -14 -10 -14 -5 0 -10 9 -10 21 0 11 5 17 10
14 6 -3 10 -13 10 -21z m-20 -139 c0 -43 -4 -75 -10 -75 -11 0 -14 108 -4 134
11 29 14 17 14 -59z m-1288 -55 c4 -8 7 -28 7 -44 1 -28 1 -29 -50 -24 -28 3
-57 12 -66 21 -14 14 -13 18 9 40 29 29 88 33 100 7z m-33 -119 c16 -10 6 -31
-15 -31 -9 0 -25 5 -36 11 -17 9 -18 13 -7 20 18 11 40 11 58 0z"/>
<path d="M3502 4889 c2 -6 8 -10 13 -10 5 0 11 4 13 10 2 6 -4 11 -13 11 -9 0
-15 -5 -13 -11z"/>
<path d="M3435 4840 c-6 -9 11 -50 20 -50 3 0 5 14 5 30 0 29 -13 40 -25 20z"/>
<path d="M3406 4752 c-2 -4 -1 -14 4 -22 7 -11 11 -11 24 -1 9 7 13 17 10 22
-7 11 -31 12 -38 1z"/>
<path d="M3475 4460 c-8 -13 4 -32 16 -25 12 8 12 35 0 35 -6 0 -13 -4 -16
-10z"/>
<path d="M6117 5126 c-3 -8 -6 -96 -7 -196 0 -146 -3 -186 -16 -205 -13 -20
-14 -31 -2 -82 15 -65 17 -980 4 -1505 -5 -204 -4 -288 3 -288 6 0 11 6 11 14
0 8 16 23 35 35 l35 20 1 93 c5 831 5 1136 -1 1153 -4 11 -10 41 -14 66 -8 56
-5 58 87 50 l68 -6 -1 -695 -1 -694 -21 -23 c-15 -16 -24 -20 -29 -12 -10 16
-50 4 -82 -24 -28 -23 -35 -51 -17 -62 6 -4 8 -10 5 -14 -6 -11 89 -22 124
-15 20 4 35 18 51 46 19 35 21 43 10 64 -11 20 -11 27 5 44 17 18 18 52 14
587 -5 765 -5 736 5 755 6 14 2 20 -19 28 l-26 10 18 31 c18 30 18 31 -2 42
-27 16 -108 26 -119 16 -28 -25 -33 -6 -40 131 -5 89 -3 196 5 295 12 138 15
155 31 155 10 0 18 5 18 10 0 6 10 10 23 10 12 0 28 4 35 9 20 12 -9 21 -71
21 -65 0 -97 9 -97 25 0 13 50 26 154 40 137 18 127 48 -20 56 -60 3 -119 11
-131 17 -17 9 -22 9 -26 -2z m173 -2347 c0 -33 -3 -40 -16 -35 -9 3 -18 6 -20
6 -8 0 -4 31 6 51 17 31 30 22 30 -22z"/>
<path d="M6468 5023 c-2 -5 -4 -26 -4 -48 1 -37 3 -40 26 -37 14 1 43 3 66 3
84 2 82 27 -3 65 -58 25 -79 29 -85 17z"/>
<path d="M6436 4908 c-23 -77 -28 -137 -22 -235 7 -107 14 -131 35 -119 14 9
15 352 1 361 -6 3 -12 0 -14 -7z"/>
<path d="M2900 4811 c0 -14 8 -23 25 -27 l25 -6 2 -399 c0 -219 1 -405 2 -411
1 -7 -11 -14 -25 -16 -33 -4 -58 -49 -33 -59 9 -3 25 -1 35 5 10 7 25 12 33
12 8 0 17 7 20 16 9 24 7 867 -2 882 -5 7 -25 15 -45 19 -33 5 -37 3 -37 -16z"/>
<path d="M2540 4811 c0 -5 11 -16 25 -25 29 -19 33 -44 8 -42 -17 1 -18 -26
-23 -409 -3 -225 -7 -416 -10 -424 -8 -23 28 -25 65 -5 19 10 36 27 39 38 3
12 6 206 6 431 l0 411 -29 17 c-31 18 -81 23 -81 8z m70 -831 c13 -9 13 -11 0
-20 -19 -13 -34 -8 -38 13 -4 19 15 22 38 7z"/>
<path d="M2720 4805 c0 -8 11 -17 25 -21 30 -7 34 -34 5 -34 -20 0 -20 -5 -18
-382 3 -375 3 -383 23 -383 11 0 20 -7 20 -15 0 -9 -9 -15 -24 -15 -18 0 -26
-7 -32 -28 -10 -38 14 -47 57 -21 l33 19 5 426 c5 477 6 469 -60 469 -23 0
-34 -5 -34 -15z"/>
<path d="M6463 4514 c-3 -8 -1 -20 5 -26 8 -8 8 -15 1 -24 -20 -24 0 -35 54
-28 57 7 88 24 44 24 -15 0 -27 5 -27 11 0 8 12 10 35 6 30 -5 35 -3 35 13 0
21 -11 25 -93 34 -37 5 -49 2 -54 -10z"/>
<path d="M3300 4344 c-22 -56 -3 -92 30 -58 13 13 17 28 13 46 -7 37 -31 44
-43 12z"/>
<path d="M2390 4241 c0 -12 5 -21 10 -21 6 0 10 6 10 14 0 8 -4 18 -10 21 -5
3 -10 -3 -10 -14z"/>
<path d="M3227 4203 c-11 -10 -8 -53 3 -53 6 0 10 14 10 30 0 31 -2 35 -13 23z"/>
<path d="M3518 4193 c-23 -6 -23 -15 1 -30 23 -14 90 5 83 25 -4 12 -49 14
-84 5z"/>
<path d="M2376 4165 c-18 -14 -18 -16 -2 -33 10 -12 14 -26 10 -37 -5 -12 0
-23 17 -35 34 -26 59 -10 59 38 0 42 -6 52 -37 70 -27 14 -24 15 -47 -3z"/>
<path d="M3229 4134 c-12 -178 -9 -251 10 -240 9 6 5 236 -4 244 -3 3 -5 1 -6
-4z"/>
<path d="M3524 4073 c-7 -50 1 -231 11 -241 3 -4 10 0 15 8 11 16 14 239 4
264 -11 29 -23 17 -30 -31z"/>
<path d="M3470 4055 c0 -8 5 -15 10 -15 6 0 10 7 10 15 0 8 -4 15 -10 15 -5 0
-10 -7 -10 -15z"/>
<path d="M2392 3985 c-1 -25 2 -45 8 -45 5 0 10 20 10 45 0 25 -4 45 -8 45 -5
0 -10 -20 -10 -45z"/>
<path d="M3100 3783 c0 -22 28 -56 55 -71 19 -10 20 -19 17 -325 -3 -229 0
-330 9 -371 12 -53 11 -58 -8 -77 -14 -15 -38 -22 -84 -26 -35 -2 -65 -6 -67
-7 -5 -6 -4 -388 1 -393 3 -3 57 -7 119 -9 62 -2 131 -6 153 -9 72 -9 479 -7
535 3 l55 10 -60 1 c-34 0 -69 7 -81 15 -19 13 -60 18 -359 41 -38 3 -81 5
-95 5 -69 -3 -151 12 -157 28 -3 10 -12 24 -18 32 -17 21 -28 145 -15 170 6
11 29 24 53 31 49 12 90 56 100 107 11 57 9 764 -3 776 -5 5 -10 22 -10 36 0
39 -18 50 -82 50 -49 0 -58 -3 -58 -17z"/>
<path d="M3041 3477 c-15 -39 -19 -507 -4 -507 6 0 14 17 18 39 8 51 10 479 2
487 -4 4 -11 -5 -16 -19z"/>
<path d="M6444 2846 c-8 -22 0 -89 12 -93 12 -4 34 38 34 65 0 24 -38 48 -46
28z"/>
<path d="M4940 2719 c-25 -4 -116 -8 -202 -8 -86 -1 -159 -5 -162 -10 -10 -15
22 -21 117 -21 64 -1 98 -5 111 -15 18 -14 17 -17 -26 -60 -25 -25 -50 -45
-55 -45 -11 0 -53 -43 -53 -55 0 -12 86 3 123 21 79 41 225 173 213 193 -4 6
-10 10 -14 10 -4 -1 -27 -5 -52 -10z"/>
<path d="M6037 2554 c-17 -23 -17 -25 4 -54 13 -16 24 -30 25 -30 6 0 0 101
-5 104 -3 2 -14 -7 -24 -20z"/>
<path d="M5200 2489 c0 -24 23 -21 28 4 2 10 -3 17 -12 17 -10 0 -16 -9 -16
-21z"/>
<path d="M6047 2439 c-7 -4 -29 -10 -51 -13 -84 -16 -15 -28 178 -34 174 -4
196 -3 196 11 0 11 -16 19 -52 26 -60 13 -253 19 -271 10z"/>
<path d="M3937 2384 c-4 -4 -7 -22 -7 -41 0 -30 2 -33 19 -23 11 5 31 10 45
10 14 0 27 4 30 9 6 10 -16 21 -41 21 -9 0 -21 7 -27 16 -6 8 -15 12 -19 8z"/>
<path d="M4675 2320 c-8 -46 -4 -55 20 -46 12 4 15 16 13 43 -4 51 -25 53 -33
3z"/>
<path d="M4812 2353 c-52 -10 -3 -23 88 -23 l100 0 -6 -27 c-3 -17 1 -36 9
-47 14 -19 15 -19 26 1 8 16 7 29 -4 56 -13 32 -17 34 -76 41 -65 6 -99 6
-137 -1z"/>
<path d="M5065 2303 c-4 -30 -4 -57 -1 -61 3 -3 16 3 29 14 28 25 91 47 115
40 9 -3 31 1 47 9 20 9 24 14 12 14 -10 1 -30 7 -45 15 -15 7 -55 16 -88 19
l-62 5 -7 -55z"/>
<path d="M4222 2319 c1 -13 8 -23 13 -21 15 3 12 35 -3 40 -9 3 -13 -3 -10
-19z"/>
<path d="M4608 2328 c-8 -22 4 -58 18 -58 18 0 18 44 0 59 -11 9 -15 9 -18 -1z"/>
<path d="M4283 2318 c-2 -5 -2 -11 0 -15 7 -12 293 0 287 12 -6 11 -280 14
-287 3z"/>
<path d="M5343 2301 c-18 -9 -33 -24 -33 -33 0 -20 15 -24 25 -8 5 8 12 7 22
-1 18 -15 33 2 33 39 0 25 -3 25 -47 3z"/>
<path d="M4835 2301 c-77 -8 -61 -17 44 -26 78 -7 83 -7 79 11 -4 22 -28 25
-123 15z"/>
<path d="M5470 2257 c-14 -7 -44 -25 -68 -40 l-42 -28 6 -82 c6 -69 10 -85 30
-102 17 -14 21 -24 15 -34 -5 -8 -7 -29 -4 -47 4 -26 2 -33 -16 -39 -30 -9
-26 -24 10 -37 l30 -10 -33 -29 c-33 -29 -32 -36 7 -53 6 -3 -1 -14 -15 -25
-21 -18 -23 -22 -10 -31 8 -5 20 -10 25 -10 6 0 0 -6 -13 -13 -12 -7 -29 -22
-37 -34 -14 -20 -13 -22 15 -28 40 -9 43 -16 29 -70 -9 -34 -9 -48 0 -59 8 -9
8 -16 2 -20 -5 -4 -7 -35 -4 -74 3 -37 5 -84 5 -104 0 -21 4 -38 9 -38 17 0 9
-18 -21 -48 -34 -35 -38 -58 -12 -66 16 -5 18 -15 14 -64 -3 -49 -1 -60 18
-77 22 -19 22 -19 36 0 8 10 14 35 14 54 0 47 10 81 23 81 6 0 19 -8 29 -17
19 -17 19 -16 16 27 -3 39 -6 45 -24 43 -16 -2 -23 4 -27 24 -7 37 2 54 27 51
20 -3 21 2 24 77 3 94 -3 126 -22 119 -8 -3 -17 0 -21 6 -7 11 0 30 26 82 12
23 11 38 -1 38 -5 0 -10 -6 -10 -14 0 -8 -7 -16 -14 -19 -21 -8 -31 67 -21
152 4 36 9 113 11 170 2 57 5 106 8 108 2 2 -2 28 -10 56 -8 29 -14 82 -14
119 0 61 2 69 25 84 43 28 32 43 -15 21z"/>
<path d="M5760 2185 c-1 -38 -3 -106 -5 -150 -4 -91 4 -205 14 -205 10 0 11
338 1 385 -7 37 -8 35 -10 -30z"/>
<path d="M3904 2208 c11 -18 13 -64 11 -228 -2 -131 -7 -206 -14 -208 -5 -2
-22 -13 -36 -24 -34 -27 -19 -46 22 -29 58 25 62 39 66 266 4 198 3 208 -16
226 -30 28 -52 26 -33 -3z"/>
<path d="M4094 1990 c0 -121 -2 -221 -6 -221 -5 -1 -12 -2 -17 -3 -6 0 -16 -7
-23 -14 -25 -25 34 -43 64 -19 13 10 17 43 21 182 7 215 1 295 -23 295 -16 0
-17 -18 -16 -220z"/>
<path d="M4275 1988 c0 -218 0 -223 -22 -242 -30 -25 -29 -46 0 -46 35 0 62
35 63 84 6 173 5 376 -1 399 -4 15 -14 27 -24 27 -14 0 -16 -23 -16 -222z"/>
<path d="M4450 2196 c0 -8 7 -16 15 -20 13 -4 15 -38 15 -216 l0 -210 -35 -14
c-41 -17 -45 -31 -11 -40 31 -8 47 -1 68 28 14 20 17 55 20 232 3 205 3 209
-19 232 -26 25 -53 29 -53 8z"/>
<path d="M4617 2203 c-4 -4 5 -12 21 -19 l28 -12 -1 -218 -2 -219 -24 -5 c-27
-7 -31 -28 -8 -43 11 -7 23 -5 42 8 26 17 27 21 27 105 0 48 3 148 7 223 l6
135 -28 26 c-27 25 -55 33 -68 19z"/>
<path d="M5640 2205 c-3 -5 -3 -98 0 -205 l5 -195 5 165 c5 158 1 256 -10 235z"/>
<path d="M5140 2163 c0 -57 27 -88 31 -37 5 46 -2 74 -16 74 -11 0 -15 -11
-15 -37z"/>
<path d="M5580 2119 c-2 -208 2 -365 8 -371 4 -4 7 91 7 212 0 120 -3 222 -7
226 -5 4 -8 -26 -8 -67z"/>
<path d="M4850 2166 c0 -8 4 -17 8 -20 5 -3 8 -96 7 -207 l-3 -202 -38 -33
c-22 -18 -37 -35 -33 -38 3 -3 22 -3 42 1 27 4 42 14 57 38 18 30 20 50 20
237 0 186 -2 206 -18 221 -23 21 -42 22 -42 3z"/>
<path d="M5030 2172 c0 -4 4 -12 9 -17 6 -6 11 -109 12 -230 l2 -220 -28 -5
c-16 -3 -30 -10 -32 -17 -6 -16 31 -26 67 -18 24 5 31 13 36 42 7 38 -4 436
-13 459 -5 15 -53 20 -53 6z"/>
<path d="M5704 2000 c0 -102 2 -143 3 -92 2 50 2 134 0 185 -1 50 -3 9 -3 -93z"/>
<path d="M5517 2065 c-10 -69 -11 -264 -3 -273 14 -13 16 15 14 169 -3 136 -4
154 -11 104z"/>
<path d="M5150 2041 c0 -12 5 -21 10 -21 6 0 10 6 10 14 0 8 -4 18 -10 21 -5
3 -10 -3 -10 -14z"/>
<path d="M3882 1663 c-10 -4 -8 -10 7 -27 19 -20 21 -35 23 -263 l2 -242 -25
-20 c-18 -15 -21 -22 -12 -32 9 -9 18 -6 42 12 33 27 45 66 43 144 -1 28 -3
125 -5 217 -3 160 -4 169 -27 193 -24 26 -27 27 -48 18z"/>
<path d="M4030 1665 c0 -3 15 -18 33 -34 l32 -29 0 -248 c0 -249 0 -249 -22
-247 -24 3 -40 -26 -21 -39 22 -13 44 -9 64 13 18 20 19 40 19 280 l0 259 -30
25 c-26 21 -75 34 -75 20z"/>
<path d="M5141 1636 c-9 -10 -7 -16 5 -27 13 -10 17 -10 24 1 9 14 3 40 -10
40 -4 0 -13 -6 -19 -14z"/>
<path d="M4246 1631 c-4 -5 3 -15 14 -21 19 -10 20 -20 20 -265 l0 -254 -26
-13 c-15 -7 -26 -17 -26 -23 2 -19 42 -16 64 5 23 21 23 26 26 258 3 276 -2
316 -40 320 -14 2 -29 -1 -32 -7z"/>
<path d="M4396 1631 c-4 -5 7 -12 23 -16 19 -4 33 -15 37 -28 4 -12 6 -128 6
-257 -1 -129 -2 -240 -2 -246 0 -7 -9 -14 -20 -17 -23 -6 -26 -22 -6 -30 25
-10 53 4 66 31 10 22 21 151 20 232 0 8 0 70 0 138 0 114 -2 126 -25 162 -21
34 -30 40 -60 40 -18 0 -36 -4 -39 -9z"/>
<path d="M4634 1597 l35 -33 0 -240 c0 -131 -2 -247 -5 -256 -3 -10 -13 -18
-23 -18 -18 0 -41 -18 -41 -32 0 -17 61 -7 82 14 21 21 21 29 23 272 1 138 -2
261 -7 274 -4 13 -24 29 -43 37 -54 23 -59 18 -21 -18z"/>
<path d="M4780 1603 c-9 -4 0 -10 25 -17 l40 -12 3 -267 2 -267 -26 0 c-35 0
-26 -24 11 -28 46 -6 55 17 55 135 0 69 4 103 11 103 7 0 9 10 4 28 -5 15 -7
79 -6 143 2 85 -2 126 -13 153 -14 33 -18 36 -53 35 -21 0 -45 -3 -53 -6z"/>
<path d="M4980 1600 c0 -6 10 -14 23 -19 45 -17 46 -25 47 -281 1 -135 1 -250
0 -257 0 -7 -12 -18 -27 -25 -33 -16 -32 -32 2 -36 17 -2 32 4 45 20 18 21 19
41 19 293 0 249 -1 272 -18 293 -14 15 -30 22 -55 22 -20 0 -36 -5 -36 -10z"/>
<path d="M5587 1453 c-2 -21 -2 -41 2 -45 9 -10 152 3 145 13 -3 5 -14 9 -24
9 -11 0 -33 14 -50 30 -43 42 -67 40 -73 -7z"/>
<path d="M5586 1242 c-2 -4 -1 -14 3 -21 4 -7 6 -23 3 -37 -4 -22 -1 -24 29
-23 19 0 52 4 74 8 31 7 34 9 13 10 -44 2 -80 22 -67 37 6 7 8 18 4 24 -7 12
-52 14 -59 2z"/>
<path d="M5141 1215 c0 -37 13 -72 22 -59 3 6 0 28 -8 50 -14 37 -14 38 -14 9z"/>
<path d="M4134 976 c-3 -8 1 -27 10 -43 8 -15 15 -22 16 -16 0 7 17 20 38 29
l37 16 -45 14 c-55 17 -50 17 -56 0z"/>
<path d="M4787 963 c-4 -3 -7 -69 -7 -145 0 -111 3 -138 14 -138 18 0 24 27
32 130 7 95 17 127 29 91 6 -21 8 -22 26 -5 10 9 19 26 19 37 0 17 -5 19 -34
14 -25 -4 -36 -1 -40 9 -6 15 -28 19 -39 7z"/>
<path d="M5420 945 c-7 -8 -23 -15 -35 -15 -13 0 -25 -7 -28 -17 -2 -10 -8
-26 -12 -35 -5 -14 -2 -18 13 -18 24 0 32 -18 32 -75 0 -37 -5 -47 -30 -65
-26 -19 -30 -27 -30 -70 0 -63 14 -98 45 -112 16 -7 25 -19 25 -35 0 -28 24
-40 46 -22 10 9 14 23 10 48 -3 20 -1 79 3 131 l8 95 2 -85 c1 -92 13 -127 32
-100 11 16 3 360 -9 371 -17 16 -60 18 -72 4z"/>
<path d="M5134 898 c10 -63 25 -82 26 -31 0 23 3 48 6 57 4 12 0 16 -16 16
-21 0 -22 -3 -16 -42z"/>
<path d="M4872 787 c-20 -25 -24 -63 -23 -225 0 -92 0 -173 0 -179 1 -16 53
-17 69 -1 9 9 12 9 12 0 0 -6 10 -21 23 -32 l22 -22 -65 7 c-95 9 -395 17
-388 10 3 -4 53 -11 110 -16 56 -5 126 -13 153 -19 28 -5 94 -12 148 -15 82
-6 97 -5 97 8 0 8 -6 20 -14 26 -8 7 -17 30 -21 52 -9 50 -29 73 -55 59 -39
-21 -40 -15 -40 169 0 171 -5 206 -28 178z"/>
</g>
</svg>
