<?xml version="1.0" standalone="no"?>
<!DOCTYPE svg PUBLIC "-//W3C//DTD SVG 20010904//EN"
 "http://www.w3.org/TR/2001/REC-SVG-20010904/DTD/svg10.dtd">
<svg version="1.0" xmlns="http://www.w3.org/2000/svg"
 width="300.000000pt" height="124.000000pt" viewBox="0 0 300.000000 124.000000"
 preserveAspectRatio="xMidYMid meet">
<metadata>
Created by potrace 1.10, written by Peter Selinger 2001-2011
</metadata>
<g transform="translate(0.000000,124.000000) scale(0.100000,-0.100000)"
fill="#000000" stroke="none">
<path d="M1445 1081 c-16 -4 -109 -48 -205 -98 -96 -50 -368 -188 -605 -308
-237 -120 -438 -224 -448 -233 -9 -8 -23 -36 -31 -61 -8 -25 -28 -72 -45 -105
-20 -38 -31 -72 -31 -99 l0 -41 42 40 c42 40 56 45 598 212 305 95 570 172
588 172 39 0 92 -21 111 -43 7 -10 18 -17 24 -17 6 0 0 12 -14 26 -13 14 -48
32 -81 41 l-58 16 0 207 0 207 78 36 c60 28 91 37 132 37 41 0 72 -9 132 -37
l78 -36 0 -207 0 -208 -47 -12 c-48 -11 -120 -57 -109 -68 4 -3 16 4 29 16 28
26 69 42 110 42 18 0 282 -77 587 -172 542 -167 556 -172 598 -212 l42 -40 0
43 c0 30 -9 60 -30 97 -17 29 -37 75 -45 102 -8 27 -23 56 -32 64 -10 9 -294
156 -631 328 -640 325 -657 332 -737 311z m-165 -299 l0 -207 -522 -163 c-288
-89 -527 -162 -533 -162 -6 0 -10 40 -10 100 l0 99 420 212 c231 117 470 239
530 271 61 31 111 58 113 58 1 0 2 -93 2 -208z m1409 -284 l94 -48 1 -100 c0
-55 -3 -100 -8 -100 -5 0 -228 68 -495 151 -267 83 -503 156 -523 161 l-38 10
0 209 0 209 438 -221 c240 -122 479 -244 531 -271z m-2493 -255 c-3 -7 -12
-13 -19 -13 -19 0 -15 143 4 185 13 27 14 24 17 -65 1 -51 1 -99 -2 -107z
m2640 71 c3 -77 2 -85 -14 -82 -15 3 -17 18 -20 108 -2 99 -2 104 14 82 11
-16 17 -51 20 -108z m43 -41 c13 -26 25 -61 27 -78 l3 -30 -29 35 c-19 23 -29
49 -32 77 -2 24 -1 43 2 43 4 0 16 -21 29 -47z m-2729 -1 c0 -27 -8 -47 -30
-72 l-29 -35 6 35 c6 35 39 110 48 110 3 0 5 -17 5 -38z"/>
<path d="M1000 535 c-129 -41 -355 -111 -503 -157 -147 -46 -264 -84 -259 -86
9 -3 1013 306 1021 314 12 11 -42 -4 -259 -71z"/>
<path d="M1741 606 c8 -9 1013 -316 1022 -313 5 1 -44 19 -110 39 -65 20 -244
75 -398 123 -506 157 -526 163 -514 151z"/>
<path d="M1476 608 c-2 -7 -8 -35 -12 -63 l-9 -50 -72 -3 c-42 -2 -73 -7 -73
-13 0 -7 29 -9 79 -7 78 3 79 3 89 -24 6 -16 16 -28 22 -28 6 0 16 12 22 28
10 27 11 27 89 24 52 -2 79 0 79 7 0 7 -26 11 -67 11 -38 0 -72 4 -78 8 -5 4
-12 30 -14 57 -1 28 -5 53 -8 58 -7 12 -43 8 -47 -5z m44 -12 c0 -12 -13 -36
-20 -36 -4 0 -10 9 -13 20 -4 15 0 20 14 20 10 0 19 -2 19 -4z m4 -81 c-4 -8
-15 -15 -25 -15 -10 0 -19 7 -19 15 0 9 9 15 25 15 18 0 23 -4 19 -15z m-6
-55 c-2 -8 -10 -15 -18 -15 -8 0 -16 7 -18 15 -2 10 5 16 18 16 13 0 20 -6 18
-16z"/>
</g>
</svg>
