<?xml version="1.0" standalone="no"?>
<!DOCTYPE svg PUBLIC "-//W3C//DTD SVG 20010904//EN"
 "http://www.w3.org/TR/2001/REC-SVG-20010904/DTD/svg10.dtd">
<svg version="1.0" xmlns="http://www.w3.org/2000/svg"
 width="300.000000pt" height="300.000000pt" viewBox="0 0 300.000000 300.000000"
 preserveAspectRatio="xMidYMid meet">
<metadata>
Created by potrace 1.10, written by Peter Selinger 2001-2011
</metadata>
<g transform="translate(0.000000,300.000000) scale(0.100000,-0.100000)"
fill="#3f3f3f" stroke="none">
<path d="M2185 2188 c-57 -138 -52 -130 -93 -127 -77 4 -82 2 -82 -36 0 -24 5
-35 15 -35 18 0 19 -18 5 -56 l-11 -27 -272 7 c-149 3 -330 9 -402 11 -337 13
-701 25 -805 26 -76 1 -122 6 -136 15 -12 7 -60 16 -106 20 -76 6 -88 4 -104
-12 -11 -11 -34 -29 -51 -42 -17 -12 -44 -48 -60 -80 -26 -52 -28 -66 -28
-172 0 -156 19 -217 88 -285 28 -27 71 -77 95 -110 42 -58 43 -62 37 -113 -6
-47 -4 -57 16 -78 30 -32 82 -32 113 -1 15 16 25 40 29 77 7 59 26 82 41 50 5
-11 17 -20 28 -20 10 0 18 -4 18 -9 0 -4 27 -11 61 -14 51 -4 64 -2 80 14 26
26 57 25 61 -3 3 -21 9 -23 64 -26 45 -2 64 1 74 13 7 8 19 15 26 15 8 0 14 5
14 10 0 6 5 10 10 10 6 0 10 -9 10 -20 0 -11 6 -20 14 -20 9 0 20 -25 31 -75
l16 -75 227 0 c125 0 344 -3 487 -7 l261 -6 -1 -26 c0 -19 5 -25 18 -23 9 2
17 -1 17 -5 0 -4 30 -6 67 -5 36 2 61 7 54 11 -8 5 -3 20 19 49 16 23 23 39
16 36 -8 -3 -17 -12 -20 -20 -3 -9 -10 -13 -15 -10 -5 3 -11 -4 -15 -17 -5
-21 -11 -23 -71 -23 -36 0 -65 3 -65 8 0 4 14 8 30 8 17 0 30 5 30 10 0 6 -13
10 -28 10 -15 0 -33 5 -40 12 -12 12 -179 17 -702 21 l-245 2 -16 64 c-9 36
-21 67 -27 69 -7 2 -12 26 -12 58 0 47 -2 54 -20 54 -20 0 -26 11 -13 23 3 4
12 2 20 -4 11 -9 13 -1 13 47 0 33 7 97 16 144 16 88 17 99 15 213 -1 93 -16
85 -18 -11 -4 -161 -14 -262 -28 -262 -7 0 -15 -10 -18 -22 -2 -13 -8 -32 -12
-43 -7 -20 -6 -20 9 -1 16 19 16 19 16 -7 0 -19 -4 -25 -15 -21 -12 5 -15 -2
-15 -31 0 -21 -4 -34 -10 -30 -5 3 -10 1 -10 -4 0 -6 5 -11 10 -11 6 0 10 -12
9 -27 0 -16 -3 -22 -6 -15 -2 6 -9 12 -14 12 -6 0 -8 -4 -4 -10 3 -5 -13 -7
-42 -3 -26 3 -46 3 -42 -1 3 -3 19 -6 37 -8 24 -2 29 -5 20 -15 -15 -19 -104
-17 -112 2 -4 11 1 15 19 15 14 0 25 3 25 8 0 4 -18 6 -40 6 -42 -2 -53 13
-26 35 8 7 12 20 9 31 -5 17 0 19 51 19 51 -1 56 -3 56 -23 0 -33 27 -28 32 6
5 28 -5 47 -16 30 -2 -4 -34 -5 -70 -2 -64 5 -66 5 -66 -17 0 -13 -5 -23 -11
-23 -5 0 -7 -4 -4 -10 3 -5 -1 -22 -9 -37 -8 -16 -15 -24 -16 -19 0 5 -7 3
-15 -4 -9 -8 -15 -8 -15 -2 0 6 6 12 13 15 9 3 9 7 -1 19 -10 13 -9 16 6 20
15 4 18 12 13 39 -5 30 -6 31 -9 9 -5 -34 -20 -48 -28 -27 -3 9 -10 17 -15 17
-6 0 -5 -8 1 -19 14 -27 13 -81 -2 -82 -35 -3 -84 4 -95 13 -7 6 -12 33 -11
69 1 32 -1 62 -5 66 -4 3 -7 -21 -7 -55 0 -62 -7 -74 -29 -49 -8 10 -7 17 2
26 10 10 6 11 -18 5 -16 -4 -33 -12 -37 -18 -11 -16 -10 -48 1 -42 5 4 4 -7
-2 -23 -10 -27 -12 -28 -33 -14 -20 13 -26 12 -51 -4 -15 -9 -31 -22 -35 -28
-5 -6 -8 -6 -8 2 0 6 12 21 27 32 l28 21 -27 -10 c-22 -7 -26 -6 -21 5 3 10
21 15 55 15 l50 0 -5 45 c-4 41 -2 45 17 45 21 -1 21 -1 2 -15 -32 -24 -5 -17
39 10 22 14 34 25 28 25 -18 0 -16 35 2 50 12 10 15 10 15 -1 0 -9 4 -7 13 4
6 9 24 18 39 19 34 3 26 12 -13 14 -16 1 -26 -2 -23 -7 3 -5 0 -9 -5 -9 -6 0
-11 6 -11 13 0 6 -7 3 -16 -8 -10 -14 -27 -20 -52 -20 -25 0 -37 -4 -37 -14 0
-17 45 -23 46 -7 0 6 5 0 10 -13 12 -30 6 -37 -14 -16 -20 19 -31 19 -23 0 3
-8 1 -15 -4 -15 -6 0 -10 6 -10 14 0 8 -7 16 -15 20 -21 8 -54 88 -66 156 -5
30 -10 109 -10 175 -1 108 -2 114 -11 65 -13 -81 7 -255 38 -338 15 -37 28
-85 31 -107 3 -22 9 -44 14 -50 16 -17 9 -20 -36 -17 -37 3 -49 10 -67 36 -33
46 -40 54 -81 99 -21 23 -41 55 -44 70 -3 17 -9 24 -13 17 -8 -13 -29 8 -35
36 -2 11 -6 27 -10 37 -5 11 -2 17 6 17 10 1 9 4 -3 10 -14 9 -16 27 -15 123
2 95 6 119 25 160 13 26 27 45 31 42 5 -2 13 7 20 22 6 14 15 23 18 19 3 -3
12 2 19 12 10 14 29 17 92 18 l81 0 -20 -24 c-10 -14 -19 -30 -19 -36 0 -6 8
1 17 14 23 33 35 41 49 29 12 -10 66 -14 334 -23 91 -3 228 -8 305 -11 77 -3
228 -8 335 -10 399 -10 566 -15 618 -20 48 -4 52 -3 52 16 0 16 3 19 13 11 9
-8 12 4 13 55 1 63 0 65 -23 60 -12 -2 -23 0 -23 6 0 6 18 6 48 1 26 -4 58 -8
71 -8 22 -1 23 -4 18 -46 -3 -25 0 -74 7 -110 l12 -65 2 112 c1 93 -2 114 -15
121 -10 6 -12 12 -5 16 6 3 17 -1 25 -9 9 -8 22 -15 29 -16 7 0 4 -4 -7 -9
-11 -5 -14 -9 -7 -9 7 -1 11 -5 8 -10 -5 -8 24 -263 74 -641 11 -85 20 -155
20 -156 0 0 7 -1 15 -1 10 0 13 7 10 21 -5 24 -98 751 -104 819 -1 4 -7 6 -13
5 -8 -2 -12 5 -11 17 1 11 -1 31 -6 45 -5 15 -4 36 2 50 l10 25 7 -25 c8 -23
8 -23 9 8 1 30 3 32 39 32 23 0 32 -3 24 -8 -14 -9 -6 -42 12 -54 20 -14 65
-8 75 10 6 9 11 12 11 6 0 -6 -15 -28 -34 -48 -25 -28 -32 -43 -28 -63 4 -22
2 -25 -15 -21 -28 8 -53 -9 -53 -35 1 -30 20 -51 50 -55 14 -2 31 -9 39 -15 8
-7 51 -12 100 -12 47 0 92 -4 100 -9 16 -10 55 -95 47 -103 -2 -3 4 -14 14
-26 27 -28 34 -94 21 -195 -15 -119 -28 -160 -56 -178 -13 -8 -25 -28 -27 -42
-2 -22 -7 -26 -28 -24 -14 2 -28 7 -31 10 -12 13 -21 142 -10 142 6 0 8 7 5
15 -4 8 -18 15 -34 15 -26 0 -28 4 -34 48 -14 102 -14 102 -52 102 -40 0 -46
-17 -7 -22 25 -3 28 -7 29 -43 1 -22 3 -40 4 -40 1 0 4 -16 7 -35 2 -19 9 -39
14 -44 5 -6 9 -20 9 -33 0 -13 5 -23 11 -23 6 0 9 9 6 20 -3 13 0 20 8 20 9 0
16 -19 20 -57 12 -110 18 -119 71 -104 23 6 30 15 36 46 5 21 10 40 12 42 1 2
63 -19 137 -47 188 -70 228 -66 245 28 12 64 -13 118 -84 180 -197 171 -252
225 -258 250 -9 43 -35 100 -53 116 -12 11 -45 16 -111 18 l-95 3 -3 73 c-2
46 1 72 8 72 16 0 48 59 43 80 -11 41 -45 59 -126 65 l-78 6 -14 -33z m161
-32 c10 -8 16 -18 12 -22 -9 -8 -68 15 -68 27 0 14 34 11 56 -5z m-156 -76 c0
-5 -7 -10 -15 -10 -8 0 -15 5 -15 10 0 6 7 10 15 10 8 0 15 -4 15 -10z m150
-109 c0 -14 -9 -20 -34 -23 -30 -3 -35 0 -39 19 -4 21 0 23 34 23 32 0 39 -4
39 -19z m516 -466 c29 -28 56 -63 60 -80 4 -16 11 -32 15 -35 5 -3 -1 -26 -13
-50 -12 -24 -23 -39 -25 -33 -2 6 -18 9 -34 7 -17 -2 -36 -1 -43 3 -6 4 -17 8
-25 10 -8 1 -18 8 -22 15 -5 7 -9 9 -9 5 0 -5 -6 -5 -12 0 -7 4 -15 8 -18 8
-3 1 -25 7 -50 15 -54 16 -76 30 -60 40 6 4 12 20 13 36 1 16 6 32 11 36 11 8
17 43 20 128 2 48 -1 70 -13 84 -9 11 22 -16 68 -60 46 -43 108 -101 137 -129z
m-396 -25 c0 -5 -11 -10 -25 -10 -14 0 -25 5 -25 10 0 6 11 10 25 10 14 0 25
-4 25 -10z m-1530 -234 c0 -3 -4 -8 -10 -11 -5 -3 -10 -1 -10 4 0 6 5 11 10
11 6 0 10 -2 10 -4z m-541 -80 c28 -34 -40 -84 -74 -56 -20 17 -19 26 5 50 23
23 53 26 69 6z m1 -71 c-7 -8 -17 -15 -23 -15 -6 0 -2 7 9 15 25 19 30 19 14
0z"/>
<path d="M2676 1533 c-12 -12 -6 -33 9 -33 22 0 18 -18 -5 -22 -15 -2 -17 -7
-10 -18 9 -13 13 -11 30 10 10 14 15 27 10 28 -6 2 -10 10 -10 17 0 16 -14 27
-24 18z"/>
<path d="M2766 1532 c-2 -4 4 -8 14 -8 10 0 16 4 14 8 -3 4 -9 8 -14 8 -5 0
-11 -4 -14 -8z"/>
<path d="M2747 1472 c-25 -27 -21 -51 10 -58 19 -5 30 -2 39 11 7 10 11 23 7
28 -3 6 -10 1 -14 -11 -5 -12 -12 -22 -16 -22 -17 0 -35 18 -29 29 4 6 11 9
16 6 13 -8 24 15 13 26 -6 6 -16 2 -26 -9z"/>
<path d="M2870 1425 c0 -8 -4 -15 -10 -15 -5 0 -10 5 -10 10 0 6 -4 10 -9 10
-15 0 -24 -61 -11 -73 9 -9 11 -6 8 12 -2 17 3 26 20 32 22 8 23 7 17 -28 -5
-36 -5 -37 10 -18 9 11 14 14 10 8 -3 -7 -1 -13 4 -13 19 0 12 55 -9 73 -17
14 -20 14 -20 2z"/>
<path d="M2222 2090 c0 -14 2 -19 5 -12 2 6 2 18 0 25 -3 6 -5 1 -5 -13z"/>
<path d="M2110 1910 c0 -5 5 -10 11 -10 5 0 7 5 4 10 -3 6 -8 10 -11 10 -2 0
-4 -4 -4 -10z"/>
<path d="M902 1830 c0 -14 2 -19 5 -12 2 6 2 18 0 25 -3 6 -5 1 -5 -13z"/>
<path d="M116 1755 c-13 -76 -13 -103 1 -188 7 -43 10 -84 7 -90 -5 -8 -4 -9
3 -2 6 6 7 71 4 170 -5 135 -7 152 -15 110z"/>
<path d="M902 1765 c0 -16 2 -22 5 -12 2 9 2 23 0 30 -3 6 -5 -1 -5 -18z"/>
<path d="M2182 1775 c-1 -11 11 -130 27 -265 22 -179 27 -247 18 -252 -6 -4
-15 -4 -19 -2 -4 3 -5 -2 -2 -10 3 -9 12 -16 20 -16 8 0 14 -4 14 -9 0 -5 -14
-9 -30 -9 -17 1 -33 -2 -37 -5 -3 -4 20 -6 53 -6 32 1 51 3 42 6 -10 2 -18 12
-19 21 -1 38 -10 135 -25 265 -8 75 -12 143 -8 150 4 7 3 8 -2 4 -5 -5 -14 24
-20 70 -6 43 -12 69 -12 58z"/>
<path d="M2291 1700 c0 -25 4 -52 9 -60 7 -11 9 -8 9 15 -1 17 -5 44 -9 60 -7
27 -8 26 -9 -15z"/>
<path d="M1005 1720 c-3 -5 -1 -10 4 -10 6 0 11 5 11 10 0 6 -2 10 -4 10 -3 0
-8 -4 -11 -10z"/>
<path d="M197 1702 c4 -10 9 -10 22 0 9 7 17 13 19 14 2 1 -8 1 -21 0 -15 0
-23 -6 -20 -14z"/>
<path d="M438 1713 c7 -3 16 -2 19 1 4 3 -2 6 -13 5 -11 0 -14 -3 -6 -6z"/>
<path d="M893 1677 c-1 -31 1 -37 7 -22 11 25 12 65 3 65 -5 0 -9 -19 -10 -43z"/>
<path d="M2153 1654 c-3 -8 -1 -25 4 -37 8 -18 10 -16 9 16 -1 41 -4 45 -13
21z"/>
<path d="M2566 1633 c-6 -14 -5 -15 5 -6 7 7 10 15 7 18 -3 3 -9 -2 -12 -12z"/>
<path d="M245 1620 c-3 -6 1 -7 9 -4 18 7 21 14 7 14 -6 0 -13 -4 -16 -10z"/>
<path d="M896 1550 c2 -36 4 -78 4 -94 0 -16 3 -27 6 -23 8 8 10 136 2 131 -4
-2 -9 8 -11 23 -3 16 -3 -1 -1 -37z"/>
<path d="M1124 1585 c-3 -14 -11 -22 -17 -18 -6 4 -7 1 -2 -7 6 -10 11 -9 22
5 7 11 13 25 13 32 0 22 -9 15 -16 -12z"/>
<path d="M2171 1574 c0 -11 3 -14 6 -6 3 7 2 16 -1 19 -3 4 -6 -2 -5 -13z"/>
<path d="M253 1551 c1 -15 4 -17 14 -9 17 14 16 28 -1 28 -8 0 -14 -9 -13 -19z"/>
<path d="M748 1563 c7 -3 16 -2 19 1 4 3 -2 6 -13 5 -11 0 -14 -3 -6 -6z"/>
<path d="M1805 1561 c-3 -5 -2 -12 3 -15 5 -3 9 1 9 9 0 17 -3 19 -12 6z"/>
<path d="M2322 1530 c0 -14 2 -19 5 -12 2 6 2 18 0 25 -3 6 -5 1 -5 -13z"/>
<path d="M1921 1514 c0 -11 3 -14 6 -6 3 7 2 16 -1 19 -3 4 -6 -2 -5 -13z"/>
<path d="M704 1475 c-10 -8 -14 -15 -8 -15 6 0 17 7 24 15 16 19 9 19 -16 0z"/>
<path d="M725 1442 c-3 -3 -5 -15 -5 -26 1 -20 1 -20 13 2 10 18 15 20 26 10
11 -10 12 -10 7 0 -11 18 78 16 94 -3 10 -12 10 -15 -4 -15 -11 0 -16 -9 -15
-27 l0 -28 11 25 c6 15 12 20 15 13 3 -7 11 -13 18 -13 17 0 27 27 13 36 -7 4
-8 3 -4 -4 4 -7 0 -12 -10 -12 -10 0 -14 3 -11 6 3 4 2 15 -4 26 -8 16 -20 18
-74 17 -36 -1 -67 -4 -70 -7z"/>
<path d="M563 1433 c24 -3 35 -8 31 -15 -5 -7 -2 -8 7 -2 23 14 51 16 43 2 -4
-7 -3 -8 4 -4 28 17 7 26 -55 24 -42 -1 -54 -3 -30 -5z"/>
<path d="M670 1405 c0 -9 -5 -13 -11 -9 -24 14 -39 -54 -20 -85 6 -10 8 0 4
27 -5 37 -3 42 15 42 21 0 37 26 22 35 -6 4 -10 -1 -10 -10z"/>
<path d="M1111 1399 c4 -35 -1 -41 -28 -35 -26 5 -27 5 -5 -6 12 -6 22 -15 22
-20 0 -11 -17 -10 -25 2 -4 6 -11 8 -16 5 -5 -4 -9 0 -9 8 0 18 -68 17 -75 -1
-3 -9 5 -11 30 -9 35 4 50 -9 18 -15 -10 -2 115 -4 277 -5 162 -1 406 -4 543
-5 160 -2 247 1 247 7 0 10 -168 15 -542 17 -87 0 -155 5 -152 9 3 5 -1 7 -8
4 -23 -9 -97 -12 -109 -4 -6 3 -26 3 -45 -1 -19 -4 -34 -5 -34 -1 0 3 -11 7
-25 7 -14 1 -25 -2 -25 -7 0 -4 -7 -6 -15 -3 -16 7 -20 30 -6 36 5 2 2 9 -6
17 -12 11 -14 11 -12 0z"/>
<path d="M2342 1380 c0 -19 2 -27 5 -17 2 9 2 25 0 35 -3 9 -5 1 -5 -18z"/>
<path d="M2166 1385 c4 -8 11 -15 16 -15 6 0 5 6 -2 15 -7 8 -14 15 -16 15 -2
0 -1 -7 2 -15z"/>
<path d="M2423 1378 c2 -15 6 -30 10 -34 10 -10 8 17 -3 41 -8 17 -9 16 -7 -7z"/>
<path d="M700 1379 c0 -5 5 -7 10 -4 6 3 10 8 10 11 0 2 -4 4 -10 4 -5 0 -10
-5 -10 -11z"/>
<path d="M553 1343 c-13 -2 -23 -10 -23 -17 0 -9 9 -12 25 -8 18 3 25 0 25
-12 0 -11 -9 -16 -26 -16 -14 0 -23 -4 -19 -10 3 -6 18 -7 32 -4 20 5 24 4 18
-6 -5 -9 -4 -11 4 -6 6 4 9 12 6 17 -4 5 0 9 7 9 11 0 10 2 0 9 -11 6 -10 10
4 15 15 6 16 9 5 16 -8 4 -21 6 -29 2 -10 -3 -13 -1 -8 6 4 7 6 11 4 11 -2 -1
-13 -4 -25 -6z"/>
<path d="M876 1342 c-2 -4 -1 -14 5 -22 7 -12 9 -10 9 8 0 23 -5 28 -14 14z"/>
<path d="M2100 1330 c0 -6 7 -10 15 -10 8 0 15 2 15 4 0 2 -7 6 -15 10 -8 3
-15 1 -15 -4z"/>
<path d="M2351 1314 c0 -11 3 -14 6 -6 3 7 2 16 -1 19 -3 4 -6 -2 -5 -13z"/>
<path d="M2430 1320 c-1 -8 -2 -23 -1 -32 3 -20 -7 -22 -43 -8 -21 7 -26 6
-26 -5 0 -14 13 -20 34 -16 6 1 19 0 31 -3 17 -4 21 -13 21 -43 0 -21 4 -51 8
-68 6 -26 3 -33 -22 -49 -17 -11 -28 -26 -25 -33 3 -7 8 -11 12 -8 4 2 15 -9
25 -26 15 -25 27 -32 56 -31 3 0 16 3 30 7 24 7 24 6 4 -8 -13 -10 -37 -14
-72 -12 -29 2 -52 -1 -52 -6 0 -5 -5 -9 -11 -9 -5 0 -7 5 -4 10 3 6 -1 10 -10
10 -9 0 -14 4 -10 9 3 5 0 13 -6 16 -7 5 -9 -1 -7 -16 2 -19 -13 -38 -74 -93
-43 -38 -79 -73 -79 -77 -1 -5 -2 -15 -3 -21 -1 -7 -10 -11 -21 -10 -25 5 -22
2 -29 37 -6 29 -6 29 4 5 10 -23 12 -23 21 -7 12 20 4 37 -17 37 -17 0 -19 46
-4 85 16 41 141 185 160 185 6 0 10 9 10 20 0 27 -26 25 -41 -2 -7 -13 -45
-62 -86 -110 l-73 -88 7 -92 8 -93 79 1 c70 1 82 4 98 24 22 27 23 53 2 85
-15 24 -15 25 8 34 13 5 30 16 37 25 11 13 29 16 81 14 50 -1 74 3 94 15 52
35 42 109 -20 148 -44 27 -55 48 -56 109 -1 29 -6 51 -14 54 -7 3 -14 15 -17
28 -2 13 -5 16 -7 8z m96 -225 c10 -8 14 -15 8 -15 -5 0 -19 7 -30 15 -10 8
-14 15 -8 15 5 0 19 -7 30 -15z m-15 -23 c25 -21 21 -52 -8 -52 -28 0 -63 29
-63 51 0 25 40 26 71 1z m-209 -217 c8 -19 8 -28 -2 -40 -16 -19 -31 -19 -56
-1 -19 14 -19 15 5 40 30 32 38 32 53 1z"/>
<path d="M2143 1280 c2 -38 -1 -45 -18 -48 -24 -5 -35 -20 -35 -49 0 -18 5
-21 25 -17 26 4 35 -10 13 -19 -10 -4 -10 -6 -1 -6 6 -1 15 4 18 9 9 14 75 13
75 -1 0 -8 5 -8 15 1 8 7 22 10 30 6 8 -3 15 -1 15 4 0 10 -76 23 -106 18 -31
-5 -26 46 5 52 24 5 24 5 5 24 -10 11 -25 31 -31 45 -12 24 -12 23 -10 -19z
m-13 -90 c0 -5 -4 -10 -10 -10 -5 0 -10 5 -10 10 0 6 5 10 10 10 6 0 10 -4 10
-10z"/>
<path d="M758 1283 c12 -2 32 -2 45 0 12 2 2 4 -23 4 -25 0 -35 -2 -22 -4z"/>
<path d="M2200 1280 c0 -5 5 -10 10 -10 6 0 10 5 10 10 0 6 -4 10 -10 10 -5 0
-10 -4 -10 -10z"/>
<path d="M1032 1217 c-2 -9 -9 -17 -16 -16 -22 3 -36 -1 -36 -9 0 -5 14 -6 31
-4 22 3 30 1 25 -7 -4 -6 -2 -11 3 -11 6 0 11 5 11 10 0 15 50 12 51 -2 0 -7
4 -4 9 7 5 11 9 14 9 7 1 -7 6 -10 11 -7 6 4 8 11 5 16 -4 5 -3 9 2 10 4 1 28
3 52 5 59 5 65 14 10 15 -24 0 -71 1 -103 2 -49 2 -60 -1 -64 -16z m48 -9 c0
-11 -28 -10 -35 1 -3 6 4 9 15 8 11 -1 20 -5 20 -9z"/>
<path d="M988 1223 c6 -2 18 -2 25 0 6 3 1 5 -13 5 -14 0 -19 -2 -12 -5z"/>
<path d="M1260 1220 c7 -4 37 -7 67 -5 29 2 53 -1 53 -6 0 -4 -20 -7 -45 -5
-25 2 -45 -1 -45 -5 0 -5 7 -9 16 -9 8 0 13 -4 10 -9 -8 -12 27 -8 36 4 5 6 8
5 8 -2 0 -7 5 -13 11 -13 5 0 7 4 4 10 -7 11 45 7 65 -5 9 -6 11 -4 5 5 -6 10
-4 12 11 6 31 -12 104 -14 104 -2 0 6 5 5 12 -2 7 -7 17 -12 23 -12 5 0 3 5
-5 10 -12 8 -9 10 13 10 16 0 26 -4 23 -8 -3 -5 10 -8 29 -8 19 1 31 5 27 11
-3 6 2 4 11 -4 12 -9 17 -10 17 -2 0 8 5 9 19 1 26 -13 31 -13 31 4 0 14 -25
17 -132 17 -35 0 -48 4 -48 15 0 10 -12 14 -42 12 l-43 -1 38 -4 c20 -2 37 -9
37 -15 0 -5 -7 -8 -15 -4 -8 3 -26 1 -40 -4 -16 -6 -25 -6 -25 0 0 6 -20 8
-51 4 -32 -4 -49 -3 -46 3 3 5 25 10 48 11 23 1 45 4 47 7 3 3 -51 5 -119 4
-73 0 -118 -4 -109 -9z"/>
<path d="M1628 1223 c7 -3 16 -2 19 1 4 3 -2 6 -13 5 -11 0 -14 -3 -6 -6z"/>
<path d="M1679 1221 c8 -5 20 -7 28 -4 7 3 13 0 13 -7 0 -6 5 -8 11 -4 16 9
-9 24 -41 24 -19 0 -21 -3 -11 -9z"/>
<path d="M1798 1223 c7 -3 16 -2 19 1 4 3 -2 6 -13 5 -11 0 -14 -3 -6 -6z"/>
<path d="M1918 1223 c7 -3 16 -2 19 1 4 3 -2 6 -13 5 -11 0 -14 -3 -6 -6z"/>
<path d="M2033 1215 c0 -8 4 -15 9 -15 4 0 8 4 8 9 0 6 -4 12 -8 15 -5 3 -9
-1 -9 -9z"/>
<path d="M1848 1213 c10 -4 10 -8 1 -19 -15 -18 -2 -18 16 0 12 12 12 15 -1
20 -9 3 -19 6 -22 5 -4 0 -1 -3 6 -6z"/>
<path d="M1220 1200 c0 -4 14 -13 31 -19 26 -9 30 -8 27 6 -3 16 -58 29 -58
13z"/>
<path d="M1776 1203 c-11 -11 -6 -21 14 -26 12 -3 20 0 20 8 0 14 -25 27 -34
18z"/>
<path d="M1890 1201 c0 -15 35 -23 66 -15 18 5 25 3 20 -4 -4 -6 2 -8 14 -5
36 9 21 19 -28 20 -27 0 -54 3 -60 7 -7 4 -12 3 -12 -3z"/>
<path d="M1158 1193 c7 -3 16 -2 19 1 4 3 -2 6 -13 5 -11 0 -14 -3 -6 -6z"/>
<path d="M2056 1165 c-11 -8 -15 -15 -9 -15 6 0 16 7 23 15 16 19 11 19 -14 0z"/>
<path d="M2331 1084 c0 -11 3 -14 6 -6 3 7 2 16 -1 19 -3 4 -6 -2 -5 -13z"/>
<path d="M2290 1034 c0 -10 5 -14 15 -10 10 4 15 -1 15 -14 0 -13 -7 -20 -20
-20 -15 0 -20 7 -21 28 0 27 0 27 -10 4 -6 -17 -5 -27 6 -38 8 -9 15 -20 15
-25 0 -18 22 -9 27 11 3 11 12 20 19 20 17 0 17 9 1 35 -15 25 -47 32 -47 9z"/>
<path d="M2165 917 c-8 -19 -2 -31 13 -26 5 2 6 13 2 24 -7 19 -8 19 -15 2z"/>
</g>
</svg>
