<?xml version="1.0" standalone="no"?>
<!DOCTYPE svg PUBLIC "-//W3C//DTD SVG 20010904//EN"
 "http://www.w3.org/TR/2001/REC-SVG-20010904/DTD/svg10.dtd">
<svg version="1.0" xmlns="http://www.w3.org/2000/svg"
 width="200.000000pt" height="200.000000pt" viewBox="0 0 200.000000 200.000000"
 preserveAspectRatio="xMidYMid meet">
<metadata>
Created by potrace 1.10, written by Peter Selinger 2001-2011
</metadata>
<g transform="translate(0.000000,200.000000) scale(0.100000,-0.100000)"
fill="#3f3f3f" stroke="none">
<path d="M850 1513 c-388 -17 -510 -25 -535 -32 -41 -13 -40 -13 220 4 127 8
314 15 418 15 l187 0 -6 -25 c-5 -19 -2 -25 11 -25 14 0 16 6 11 27 l-7 26
283 -7 c156 -3 326 -8 378 -11 68 -3 84 -2 55 4 -79 17 -798 34 -1015 24z"/>
<path d="M1915 1480 c3 -5 23 -10 43 -10 28 0 33 3 22 10 -20 13 -73 13 -65 0z"/>
<path d="M975 1455 c-38 -7 -105 -22 -148 -34 -42 -11 -88 -21 -100 -21 -13 0
-32 -7 -43 -15 -18 -14 -17 -14 14 -15 24 0 31 4 26 13 -4 6 3 3 16 -8 19 -16
22 -17 17 -3 -3 9 0 19 9 22 8 3 14 1 14 -5 0 -6 7 -3 16 5 8 9 24 16 33 16
10 0 36 6 58 14 l40 14 -2 -33 c-1 -18 -6 -39 -10 -46 -6 -11 -5 -11 5 -3 9 9
23 7 56 -7 38 -17 65 -20 226 -18 105 0 204 -4 232 -10 27 -7 51 -10 53 -7 7
7 -174 41 -192 37 -5 -2 -40 -5 -77 -8 -54 -4 -68 -2 -68 9 0 9 -12 14 -35 15
-20 0 -35 -4 -35 -11 0 -6 -5 -4 -10 4 -8 13 -10 12 -10 -2 0 -23 -27 -23 -79
-2 -44 17 -61 48 -39 70 7 8 45 20 83 28 39 7 59 14 45 14 -14 0 -56 -6 -95
-13z"/>
<path d="M1243 1463 c15 -2 37 -2 50 0 12 2 0 4 -28 4 -27 0 -38 -2 -22 -4z"/>
<path d="M66 1434 c4 -17 2 -29 -7 -34 -9 -6 -10 -12 -2 -22 11 -13 15 -106 5
-122 -3 -6 -5 -31 -3 -56 1 -25 -3 -58 -9 -74 -6 -16 -8 -31 -5 -34 8 -8 80
74 121 137 l36 56 107 2 c79 2 138 -3 231 -21 69 -13 181 -34 250 -47 69 -12
142 -31 162 -41 21 -10 58 -18 83 -18 l46 0 -6 -47 c-9 -69 -10 -70 -44 -65
-19 2 -31 0 -31 -7 0 -8 61 -11 206 -11 177 0 210 2 235 17 16 10 29 21 29 25
0 13 -10 9 -36 -11 -14 -11 -33 -17 -45 -14 -13 4 -17 8 -9 13 11 7 10 25 -6
112 -4 21 -2 27 8 23 7 -3 36 1 63 9 46 14 49 14 62 -4 8 -11 23 -20 34 -20
24 0 42 39 26 58 -5 7 -8 14 -6 15 2 2 16 11 32 20 15 10 27 22 27 28 0 15
-22 33 -45 37 -11 2 -22 7 -25 11 -6 9 -146 55 -225 75 -109 27 -381 14 -333
-15 7 -4 15 -3 19 3 5 8 167 15 204 8 6 -2 14 -2 18 -1 19 3 134 -21 161 -35
16 -8 35 -14 42 -14 7 0 15 -6 17 -12 3 -8 6 -9 6 -2 1 13 81 -5 81 -18 0 -4
7 -8 16 -8 8 0 13 -4 9 -9 -3 -5 2 -11 11 -13 13 -2 9 -10 -16 -37 -27 -28
-41 -34 -79 -36 -25 -1 -55 -6 -65 -10 -15 -6 -17 -5 -11 5 5 8 4 11 -2 7 -6
-4 -30 0 -53 8 -51 18 -110 15 -141 -8 -95 -69 -92 -68 -131 -62 -98 17 -119
25 -180 70 -31 24 -55 45 -52 48 3 2 -13 5 -35 5 -23 0 -46 4 -52 7 -5 4 -72
6 -147 5 -75 -1 -148 -2 -162 -1 -14 1 -40 2 -57 2 -18 0 -33 5 -33 10 0 5
-13 9 -30 9 -19 0 -30 -5 -30 -14 0 -8 -6 -16 -12 -19 -16 -5 -68 12 -68 23 0
8 90 22 167 25 100 4 216 17 232 25 9 5 25 12 36 16 17 6 18 8 3 11 -9 2 -26
-1 -37 -6 -11 -6 -41 -11 -68 -12 -26 0 -70 -4 -98 -9 -29 -4 -51 -4 -53 1 -5
11 -49 12 -56 0 -3 -4 -31 -11 -62 -15 -31 -3 -64 -10 -73 -15 -9 -5 -31 -11
-49 -14 -52 -8 -50 -17 4 -17 34 -1 44 -3 34 -10 -25 -14 -95 0 -109 21 -6 11
-8 25 -4 32 4 7 8 33 8 59 0 39 -3 48 -18 48 -14 0 -16 -5 -11 -26z m30 -166
c-3 -18 -3 -27 0 -20 3 6 13 12 22 13 11 0 12 2 5 6 -20 8 -15 23 8 23 11 0
19 -4 17 -8 -24 -59 -54 -122 -60 -122 -3 0 -6 32 -6 70 0 40 4 70 10 70 5 0
7 -14 4 -32z m684 11 c40 -9 127 -56 118 -63 -2 -3 -290 48 -383 67 -11 2 34
5 100 5 66 1 140 -3 165 -9z m603 -58 c8 -8 -25 -22 -85 -35 -27 -6 -28 -1
-13 51 4 12 82 -1 98 -16z m-113 -4 c0 -15 -8 -27 -22 -33 -26 -11 -68 -7 -68
7 0 13 24 11 39 -3 11 -11 12 -9 4 7 -14 28 -6 45 23 45 19 0 24 -5 24 -23z
m-6 -55 l59 3 18 -50 c10 -27 18 -54 18 -60 1 -6 -48 -10 -129 -10 -81 0 -130
4 -130 10 0 6 9 35 20 65 11 30 20 56 20 57 0 1 15 -3 33 -8 17 -5 59 -9 91
-7z m-161 -27 c-3 -9 -8 -14 -10 -11 -3 3 -2 9 2 15 9 16 15 13 8 -4z"/>
<path d="M1328 1453 c7 -3 16 -2 19 1 4 3 -2 6 -13 5 -11 0 -14 -3 -6 -6z"/>
<path d="M1415 1431 c28 -10 65 -25 83 -35 17 -9 32 -14 32 -11 0 9 -127 65
-147 65 -10 -1 5 -9 32 -19z"/>
<path d="M855 1391 c-7 -12 12 -24 25 -16 11 7 4 25 -10 25 -5 0 -11 -4 -15
-9z"/>
<path d="M110 1380 c0 -5 6 -10 13 -10 8 0 7 -4 -3 -10 -11 -7 -2 -10 33 -10
26 0 47 2 47 5 0 8 -58 35 -75 35 -8 0 -15 -4 -15 -10z"/>
<path d="M814 1366 c-3 -8 -4 -25 -1 -38 3 -17 5 -15 6 10 1 22 5 31 13 26 7
-4 8 -3 4 4 -10 16 -15 15 -22 -2z"/>
<path d="M1225 1373 c-32 -8 -37 -19 -7 -17 40 2 42 3 42 14 0 10 -3 11 -35 3z"/>
<path d="M940 1250 c-9 -18 -8 -20 15 -20 15 0 24 4 20 10 -4 6 -11 8 -16 5
-5 -3 -6 1 -3 9 9 23 -3 20 -16 -4z"/>
<path d="M350 1027 c0 -7 16 -19 36 -26 30 -11 38 -11 45 0 6 9 3 18 -8 27
-22 16 -73 16 -73 -1z"/>
<path d="M441 998 c-10 -15 -8 -20 11 -27 13 -5 147 -64 298 -131 290 -129
330 -143 364 -130 14 5 26 3 35 -8 11 -11 16 -12 19 -3 12 37 -47 59 -67 24
-8 -16 -11 -16 -28 5 -10 13 -144 78 -319 155 -281 125 -302 132 -313 115z"/>
<path d="M990 830 c0 -5 15 -10 34 -10 19 0 36 -5 38 -11 2 -6 35 -13 73 -16
39 -3 67 -2 63 2 -5 5 -28 7 -52 7 -25 -1 -48 3 -51 8 -5 7 50 10 170 9 120
-1 180 2 188 10 8 8 -50 11 -226 11 -151 0 -237 -4 -237 -10z"/>
<path d="M1271 794 c6 -8 25 -14 41 -14 44 0 29 25 -15 26 -30 1 -35 -1 -26
-12z"/>
<path d="M1403 803 c-20 -7 -15 -22 5 -19 41 7 181 -51 164 -68 -4 -4 0 -6 8
-4 11 2 14 -5 13 -24 -2 -30 11 -38 21 -13 8 22 -1 39 -32 62 -58 43 -149 76
-179 66z"/>
<path d="M1018 793 c6 -2 18 -2 25 0 6 3 1 5 -13 5 -14 0 -19 -2 -12 -5z"/>
<path d="M1205 783 l-40 -13 50 5 c35 3 44 2 30 -4 -19 -9 -19 -10 3 -10 24
-1 29 11 10 26 -9 6 -27 5 -53 -4z"/>
<path d="M1070 768 c0 -10 46 -5 57 5 4 4 -7 7 -25 5 -18 -1 -32 -6 -32 -10z"/>
<path d="M276 735 l16 -25 -76 -1 c-42 -1 -80 -3 -86 -4 -5 -1 -25 -3 -44 -4
-28 -1 -35 -6 -38 -26 -4 -20 -1 -25 15 -25 16 0 17 3 7 15 -11 13 2 15 104
15 114 0 131 -5 101 -30 -16 -14 -20 -30 -6 -30 4 0 25 11 45 25 33 23 46 25
140 25 148 0 296 -17 395 -46 47 -14 114 -28 149 -31 43 -4 62 -10 62 -19 0
-9 -12 -14 -35 -14 -19 0 -35 -4 -35 -9 0 -6 83 -8 211 -5 l212 4 191 -84
c152 -67 201 -85 240 -85 27 0 47 1 45 3 -2 2 -51 24 -109 49 -58 25 -157 69
-220 97 -232 104 -339 150 -349 150 -6 0 -11 -8 -11 -18 0 -13 21 -28 75 -51
41 -18 75 -37 75 -42 0 -5 -59 -9 -131 -9 -90 0 -128 3 -124 11 5 7 43 9 119
4 79 -4 106 -3 94 4 -9 6 -72 13 -140 16 -67 3 -141 9 -163 14 l-40 10 48 -2
c26 -1 47 2 47 8 0 5 5 3 10 -5 6 -9 10 -10 10 -3 0 6 8 14 18 16 9 3 -18 5
-60 6 -46 1 -78 -3 -78 -9 0 -13 -27 -13 -35 0 -4 6 1 7 12 4 15 -5 15 -4 3 5
-12 8 -12 13 -2 23 19 19 14 53 -10 74 -23 19 -23 19 -5 -2 36 -43 11 -89 -50
-92 -34 -2 -45 11 -18 22 20 7 19 35 -2 58 -15 17 -14 18 16 18 21 0 30 4 25
11 -7 12 -47 9 -136 -10 -52 -11 -373 -32 -428 -28 -19 1 -33 6 -30 12 3 6 10
9 15 7 6 -1 1 5 -9 13 -33 25 -49 19 -30 -10z m572 -17 c18 -18 14 -46 -8 -53
-16 -5 -103 1 -142 11 -5 1 -21 2 -38 3 -19 1 -30 6 -30 16 0 17 23 24 100 28
30 2 66 4 81 5 14 1 30 -3 37 -10z m-228 -24 c0 -15 -11 -16 -92 -10 -50 3
-110 7 -132 8 -23 1 9 5 69 8 61 3 120 7 133 8 15 1 22 -3 22 -14z m-307 -1
c-23 -2 -64 -2 -90 0 -26 2 -8 3 42 3 50 0 71 -1 48 -3z m17 -27 c0 -2 -7 -6
-15 -10 -8 -3 -15 -1 -15 4 0 6 7 10 15 10 8 0 15 -2 15 -4z"/>
<path d="M1102 678 c2 -18 11 -24 34 -26 21 -2 33 2 37 12 5 11 0 16 -14 16
-13 0 -18 -5 -14 -12 3 -7 -2 -3 -11 10 -9 12 -21 22 -26 22 -5 0 -8 -10 -6
-22z"/>
<path d="M1288 693 c18 -2 45 -2 60 0 15 2 0 4 -33 4 -33 0 -45 -2 -27 -4z"/>
<path d="M1448 693 c23 -2 61 -2 85 0 23 2 4 4 -43 4 -47 0 -66 -2 -42 -4z"/>
<path d="M1568 663 c-3 -11 -25 -25 -59 -37 -30 -10 -58 -23 -63 -27 -18 -16
28 -9 69 10 58 27 76 44 66 59 -6 11 -9 10 -13 -5z"/>
<path d="M1175 618 c3 -8 20 -14 38 -15 31 -2 31 -1 5 7 -14 4 -31 11 -37 14
-6 4 -9 1 -6 -6z"/>
<path d="M1098 613 c7 -3 16 -2 19 1 4 3 -2 6 -13 5 -11 0 -14 -3 -6 -6z"/>
</g>
</svg>
